<svg width="492" xmlns="http://www.w3.org/2000/svg" height="126" id="screenshot-b527cf84-f825-80eb-8006-f2561a815501" viewBox="-27 -27 492 126" xmlns:xlink="http://www.w3.org/1999/xlink" fill="none" version="1.1"><style>/* arabic */
@font-face {
  font-family: 'Cairo';
  font-style: normal;
  font-weight: 600;
  font-display: block;
  src: url(http://localhost:6080/internal/gfonts/font/cairo/v31/SLXgc1nY6HkvangtZmpQdkhzfH5lkSs2SgRjCAGMQ1z0hD45a1biLD-H.woff2) format('woff2');
  unicode-range: U+0600-06FF, U+0750-077F, U+0870-088E, U+0890-0891, U+0897-08E1, U+08E3-08FF, U+200C-200E, U+2010-2011, U+204F, U+2E41, U+FB50-FDFF, U+FE70-FE74, U+FE76-FEFC, U+102E0-102FB, U+10E60-10E7E, U+10EC2-10EC4, U+10EFC-10EFF, U+1EE00-1EE03, U+1EE05-1EE1F, U+1EE21-1EE22, U+1EE24, U+1EE27, U+1EE29-1EE32, U+1EE34-1EE37, U+1EE39, U+1EE3B, U+1EE42, U+1EE47, U+1EE49, U+1EE4B, U+1EE4D-1EE4F, U+1EE51-1EE52, U+1EE54, U+1EE57, U+1EE59, U+1EE5B, U+1EE5D, U+1EE5F, U+1EE61-1EE62, U+1EE64, U+1EE67-1EE6A, U+1EE6C-1EE72, U+1EE74-1EE77, U+1EE79-1EE7C, U+1EE7E, U+1EE80-1EE89, U+1EE8B-1EE9B, U+1EEA1-1EEA3, U+1EEA5-1EEA9, U+1EEAB-1EEBB, U+1EEF0-1EEF1;
}
/* latin-ext */
@font-face {
  font-family: 'Cairo';
  font-style: normal;
  font-weight: 600;
  font-display: block;
  src: url(http://localhost:6080/internal/gfonts/font/cairo/v31/SLXgc1nY6HkvangtZmpQdkhzfH5lkSs2SgRjCAGMQ1z0hD45a13iLD-H.woff2) format('woff2');
  unicode-range: U+0100-02BA, U+02BD-02C5, U+02C7-02CC, U+02CE-02D7, U+02DD-02FF, U+0304, U+0308, U+0329, U+1D00-1DBF, U+1E00-1E9F, U+1EF2-1EFF, U+2020, U+20A0-20AB, U+20AD-20C0, U+2113, U+2C60-2C7F, U+A720-A7FF;
}
/* latin */
@font-face {
  font-family: 'Cairo';
  font-style: normal;
  font-weight: 600;
  font-display: block;
  src: url(http://localhost:6080/internal/gfonts/font/cairo/v31/SLXgc1nY6HkvangtZmpQdkhzfH5lkSs2SgRjCAGMQ1z0hD45a1PiLA.woff2) format('woff2');
  unicode-range: U+0000-00FF, U+0131, U+0152-0153, U+02BB-02BC, U+02C6, U+02DA, U+02DC, U+0304, U+0308, U+0329, U+2000-206F, U+20AC, U+2122, U+2191, U+2193, U+2212, U+2215, U+FEFF, U+FFFD;
}
</style><g id="shape-b527cf84-f825-80eb-8006-f2561a815501" rx="0" ry="0"><g id="shape-71b04822-b0d5-8031-8006-f237d847322d"><defs><filter id="filter-render-2" x="-0.06338028169014084" y="-0.45" width="1.1549295774647887" height="2.1" filterUnits="objectBoundingBox" color-interpolation-filters="sRGB"><feFlood flood-opacity="0" result="BackgroundImageFix"/><feColorMatrix in="SourceAlpha" type="matrix" values="0 0 0 0 0 0 0 0 0 0 0 0 0 0 0 0 0 0 127 0"/><feOffset dx="4" dy="4"/><feGaussianBlur stdDeviation="2"/><feColorMatrix type="matrix" values="0 0 0 0 0 0 0 0 0 0 0 0 0 0 0 0 0 0 0.2 0"/><feBlend mode="normal" in2="BackgroundImageFix" result="filter_71b04822-b0d5-8031-8006-f0df7e8cfde2"/><feBlend mode="normal" in="SourceGraphic" in2="filter_71b04822-b0d5-8031-8006-f0df7e8cfde2" result="shape"/></filter><filter id="filter-shadow-render-2" x="-0.06338028169014084" y="-0.45" width="1.1549295774647887" height="2.1" filterUnits="objectBoundingBox" color-interpolation-filters="sRGB"><feFlood flood-opacity="0" result="BackgroundImageFix"/><feColorMatrix in="SourceAlpha" type="matrix" values="0 0 0 0 0 0 0 0 0 0 0 0 0 0 0 0 0 0 127 0"/><feOffset dx="4" dy="4"/><feGaussianBlur stdDeviation="2"/><feColorMatrix type="matrix" values="0 0 0 0 0 0 0 0 0 0 0 0 0 0 0 0 0 0 0.2 0"/><feBlend mode="normal" in2="BackgroundImageFix" result="filter_71b04822-b0d5-8031-8006-f0df7e8cfde2"/><feBlend mode="normal" in="SourceGraphic" in2="filter_71b04822-b0d5-8031-8006-f0df7e8cfde2" result="shape"/></filter></defs><g class="fills" id="fills-71b04822-b0d5-8031-8006-f237d847322d"><rect width="426" height="60" x="0" transform="matrix(1.000000, 0.000000, 0.000000, 1.000000, 0.000000, 0.000000)" style="fill: rgb(255, 255, 255); fill-opacity: 1;" ry="10" rx="10" filter="url(#filter-render-2)" y="0"/></g><g id="strokes-be1c6b39-7534-80db-8006-f549135eb481-71b04822-b0d5-8031-8006-f237d847322d" class="strokes"><g class="inner-stroke-shape" transform="matrix(1.000000, 0.000000, 0.000000, 1.000000, 0.000000, 0.000000)"><defs><clipPath id="inner-stroke-render-2-71b04822-b0d5-8031-8006-f237d847322d-0"><use href="#stroke-shape-render-2-71b04822-b0d5-8031-8006-f237d847322d-0"/></clipPath><rect rx="10" ry="10" x="0" y="0" width="426" height="60" id="stroke-shape-render-2-71b04822-b0d5-8031-8006-f237d847322d-0" style="fill: none; stroke-width: 3; stroke: rgb(170, 101, 43); stroke-opacity: 1; stroke-dasharray: 0, 6.5; stroke-linecap: round;"/></defs><use href="#stroke-shape-render-2-71b04822-b0d5-8031-8006-f237d847322d-0" clip-path="url('#inner-stroke-render-2-71b04822-b0d5-8031-8006-f237d847322d-0')"/></g></g></g><g id="shape-71b04822-b0d5-8031-8006-f237d847322e" style="opacity: 1;"><g transform="matrix(1.000000, 0.000000, 0.000000, 1.000000, 0.000000, 0.000000)" class="text-container" x="81.5" y="18" width="263" height="24" rx="0" ry="0"><defs><pattern patternUnits="objectBoundingBox" width="231.14999389648438" height="37" id="fill-0-render-3-0"><g><rect width="231.14999389648438" height="37" style="fill: rgb(0, 0, 0); fill-opacity: 1;"/></g></pattern></defs><g class="fills" id="fills-71b04822-b0d5-8031-8006-f237d847322e"><text x="328.5833282470703" y="48.5" dominant-baseline="ideographic" textLength="231.14999389648438" lengthAdjust="spacingAndGlyphs" style="text-transform: none; font-family: Cairo; letter-spacing: normal; font-style: normal; font-weight: 600; white-space: pre; font-size: 20px; text-decoration: none; direction: rtl; fill: rgb(0, 0, 0); fill-opacity: 1;">أرفع صورة من رخصة القيادة</text></g></g></g><g id="shape-b527cf84-f825-80eb-8006-f2552b7f12bb" width="24" height="24" rx="0" ry="0" style="fill: rgb(0, 0, 0);"><g id="shape-b527cf84-f825-80eb-8006-f2552b821327"><g class="fills" id="fills-b527cf84-f825-80eb-8006-f2552b821327"><path d="M376.5,45.49980545043945C375.39990234375,45.49980545043945,374.458740234375,45.11015701293945,373.67578125,44.33134841918945C372.893310546875,43.55205154418945,372.501220703125,42.61552810668945,372.5,41.51933670043945L372.5,37.53837966918945C372.5,36.97441482543945,372.69189453125,36.50224685668945,373.075927734375,36.12138748168945C373.4599609375,35.74052810668945,373.934814453125,35.54912185668945,374.5,35.54765701293945C375.065185546875,35.54716873168945,375.541015625,35.73759841918945,375.92578125,36.12138748168945C376.311279296875,36.50419998168945,376.502685546875,36.97636795043945,376.5,37.53837966918945L376.5,41.51933670043945L400.5,41.51933670043945L400.5,37.53837966918945C400.5,36.97441482543945,400.69189453125,36.50224685668945,401.075927734375,36.12138748168945C401.4599609375,35.74052810668945,401.934814453125,35.54912185668945,402.5,35.54765701293945C403.065185546875,35.54716873168945,403.541015625,35.73759841918945,403.92578125,36.12138748168945C404.311279296875,36.50419998168945,404.502685546875,36.97636795043945,404.5,37.53837966918945L404.5,41.51933670043945C404.5,42.61308670043945,404.108642578125,43.55107498168945,403.325927734375,44.33134841918945C402.54345703125,45.11211013793945,401.601318359375,45.50078201293945,400.5,45.49980545043945ZM386.5,21.316699981689453L382.75,25.048633575439453C382.35009765625,25.446582794189453,381.875244140625,25.637989044189453,381.325927734375,25.622364044189453C380.776611328125,25.605762481689453,380.30126953125,25.399219512939453,379.89990234375,24.999805450439453C379.533447265625,24.600391387939453,379.341552734375,24.136524200439453,379.32421875,23.605762481689453C379.306640625,23.075000762939453,379.498779296875,22.610645294189453,379.89990234375,22.212207794189453L387.10009765625,15.047656059265137C387.300048828125,14.848437309265137,387.5166015625,14.707324028015137,387.75,14.624804496765137C387.9833984375,14.543261528015137,388.2333984375,14.501269340515137,388.5,14.499316215515137C388.7666015625,14.498339653015137,389.0166015625,14.540820121765137,389.25,14.624804496765137C389.4833984375,14.710253715515137,389.699951171875,14.851366996765137,389.89990234375,15.047656059265137L397.10009765625,22.212207794189453C397.5,22.610645294189453,397.69189453125,23.075000762939453,397.67578125,23.605762481689453C397.659912109375,24.136524200439453,397.468017578125,24.600391387939453,397.10009765625,24.999805450439453C396.699951171875,25.396778106689453,396.225341796875,25.605274200439453,395.67578125,25.622364044189453C395.126708984375,25.638965606689453,394.6513671875,25.448047637939453,394.25,25.048633575439453L390.5,21.316699981689453L390.5,35.54765701293945C390.5,36.11113357543945,390.30810546875,36.58525466918945,389.924072265625,36.96709060668945C389.5400390625,37.34892654418945,389.065185546875,37.53935623168945,388.5,37.53837966918945C387.934814453125,37.53740310668945,387.4599609375,37.34550857543945,387.075927734375,36.96513748168945C386.69189453125,36.58378982543945,386.5,36.11113357543945,386.5,35.54765701293945Z" style="fill: rgb(170, 101, 43); fill-opacity: 1;"/></g></g></g><g id="shape-b527cf84-f825-80eb-8006-f255a1af66b4" width="24" height="24" rx="0" ry="0" style="fill: rgb(0, 0, 0);"><g id="shape-b527cf84-f825-80eb-8006-f255a1b44fbf" rx="0" ry="0" style="fill: rgb(0, 0, 0);"><g id="shape-b527cf84-f825-80eb-8006-f255a1b609b2"><g class="fills" id="fills-b527cf84-f825-80eb-8006-f255a1b609b2"><path d="M37.919189453125,44.67119216918945L37.902099609375,44.67412185668945L37.7919921875,44.72685623168945L37.760986328125,44.73271560668945L37.7393798828125,44.72685623168945L37.6292724609375,44.67412185668945C37.61279296875,44.67021560668945,37.600341796875,44.67216873168945,37.592041015625,44.68242263793945L37.5859375,44.69707107543945L37.5594482421875,45.33476638793945L37.5672607421875,45.36455154418945L37.582763671875,45.38359451293945L37.7440185546875,45.49394607543945L37.7672119140625,45.49980545043945L37.7857666015625,45.49394607543945L37.947021484375,45.38359451293945L37.9656982421875,45.36015701293945L37.9718017578125,45.33476638793945L37.9454345703125,44.69853591918945C37.9412841796875,44.68242263793945,37.9326171875,44.67363357543945,37.919189453125,44.67119216918945M38.3299560546875,44.50322341918945L38.3096923828125,44.50615310668945L38.0230712890625,44.64531326293945L38.007568359375,44.65996170043945L38.0028076171875,44.67656326293945L38.03076171875,45.31669998168945L38.03857421875,45.33476638793945L38.0509033203125,45.34502029418945L38.362548828125,45.48369216918945C38.3822021484375,45.48808670043945,38.3970947265625,45.48466873168945,38.4073486328125,45.47148513793945L38.41357421875,45.45048904418945L38.3609619140625,44.53593826293945C38.355712890625,44.51787185668945,38.345458984375,44.50712966918945,38.3299560546875,44.50322341918945M37.2215576171875,44.50615310668945C37.2073974609375,44.49834060668945,37.18896484375,44.50175857543945,37.1796875,44.51494216918945L37.1705322265625,44.53593826293945L37.117919921875,45.45048904418945C37.1187744140625,45.46855545043945,37.1275634765625,45.48027420043945,37.1441650390625,45.48662185668945L37.16748046875,45.48369216918945L37.4788818359375,45.34502029418945L37.494384765625,45.33330154418945L37.5006103515625,45.31669998168945L37.5269775390625,44.67656326293945L37.5224609375,44.65849685668945L37.5068359375,44.64287185668945Z" fill-rule="evenodd" fill="none" style="fill: none;"/></g></g><g id="shape-b527cf84-f825-80eb-8006-f255a1b71968"><g class="fills" id="fills-b527cf84-f825-80eb-8006-f255a1b71968"><path d="M26.1500244140625,14.499804496765137C23.5819091796875,14.499804496765137,21.5,16.500293731689453,21.5,18.968067169189453L21.5,33.86162185668945C21.5,35.50664138793945,22.8878173828125,36.84062576293945,24.5999755859375,36.84062576293945L24.5999755859375,18.968067169189453C24.5999755859375,18.145313262939453,25.2940673828125,17.478809356689453,26.1500244140625,17.478809356689453L47.8499755859375,17.478809356689453C47.8499755859375,15.833788871765137,46.462158203125,14.499804496765137,44.75,14.499804496765137ZM26.1500244140625,21.946582794189453C26.1500244140625,20.301563262939453,27.537841796875,18.968067169189453,29.25,18.968067169189453L49.4000244140625,18.968067169189453C51.1121826171875,18.968067169189453,52.5,20.301563262939453,52.5,21.946582794189453L52.5,38.82597732543945C52.5,40.47099685668945,51.1121826171875,41.80449295043945,49.4000244140625,41.80449295043945L29.25,41.80449295043945C27.537841796875,41.80449295043945,26.1500244140625,40.47099685668945,26.1500244140625,38.82597732543945ZM49.4000244140625,21.946582794189453L29.25,21.946582794189453L29.25,33.63554763793945L35.2144775390625,27.904102325439453C35.5777587890625,27.554981231689453,36.070556640625,27.358692169189453,36.584716796875,27.358692169189453C37.0986328125,27.358692169189453,37.5914306640625,27.554981231689453,37.9547119140625,27.904102325439453L42.9783935546875,32.73027420043945L44.3485107421875,31.414844512939453C44.7119140625,31.065723419189453,45.204833984375,30.869434356689453,45.71875,30.869434356689453C46.232666015625,30.869434356689453,46.7255859375,31.065723419189453,47.0889892578125,31.414844512939453L49.4000244140625,33.63554763793945ZM46.300048828125,26.414844512939453C46.300048828125,27.649219512939453,45.259033203125,28.648731231689453,43.9749755859375,28.648731231689453C42.6910400390625,28.648731231689453,41.6500244140625,27.649219512939453,41.6500244140625,26.414844512939453C41.6500244140625,25.180957794189453,42.6910400390625,24.180957794189453,43.9749755859375,24.180957794189453C45.259033203125,24.180957794189453,46.300048828125,25.180957794189453,46.300048828125,26.414844512939453" fill-rule="evenodd" style="fill: rgb(170, 101, 43); fill-opacity: 1;"/></g></g></g></g></g></svg>