<svg width="492" xmlns="http://www.w3.org/2000/svg" height="126" id="screenshot-b527cf84-f825-80eb-8006-f2567f84340f" viewBox="-27 -27 492 126" xmlns:xlink="http://www.w3.org/1999/xlink" fill="none" version="1.1"><style>/* arabic */
@font-face {
  font-family: 'Cairo';
  font-style: normal;
  font-weight: 600;
  font-display: block;
  src: url(http://localhost:6080/internal/gfonts/font/cairo/v31/SLXgc1nY6HkvangtZmpQdkhzfH5lkSs2SgRjCAGMQ1z0hD45a1biLD-H.woff2) format('woff2');
  unicode-range: U+0600-06FF, U+0750-077F, U+0870-088E, U+0890-0891, U+0897-08E1, U+08E3-08FF, U+200C-200E, U+2010-2011, U+204F, U+2E41, U+FB50-FDFF, U+FE70-FE74, U+FE76-FEFC, U+102E0-102FB, U+10E60-10E7E, U+10EC2-10EC4, U+10EFC-10EFF, U+1EE00-1EE03, U+1EE05-1EE1F, U+1EE21-1EE22, U+1EE24, U+1EE27, U+1EE29-1EE32, U+1EE34-1EE37, U+1EE39, U+1EE3B, U+1EE42, U+1EE47, U+1EE49, U+1EE4B, U+1EE4D-1EE4F, U+1EE51-1EE52, U+1EE54, U+1EE57, U+1EE59, U+1EE5B, U+1EE5D, U+1EE5F, U+1EE61-1EE62, U+1EE64, U+1EE67-1EE6A, U+1EE6C-1EE72, U+1EE74-1EE77, U+1EE79-1EE7C, U+1EE7E, U+1EE80-1EE89, U+1EE8B-1EE9B, U+1EEA1-1EEA3, U+1EEA5-1EEA9, U+1EEAB-1EEBB, U+1EEF0-1EEF1;
}
/* latin-ext */
@font-face {
  font-family: 'Cairo';
  font-style: normal;
  font-weight: 600;
  font-display: block;
  src: url(http://localhost:6080/internal/gfonts/font/cairo/v31/SLXgc1nY6HkvangtZmpQdkhzfH5lkSs2SgRjCAGMQ1z0hD45a13iLD-H.woff2) format('woff2');
  unicode-range: U+0100-02BA, U+02BD-02C5, U+02C7-02CC, U+02CE-02D7, U+02DD-02FF, U+0304, U+0308, U+0329, U+1D00-1DBF, U+1E00-1E9F, U+1EF2-1EFF, U+2020, U+20A0-20AB, U+20AD-20C0, U+2113, U+2C60-2C7F, U+A720-A7FF;
}
/* latin */
@font-face {
  font-family: 'Cairo';
  font-style: normal;
  font-weight: 600;
  font-display: block;
  src: url(http://localhost:6080/internal/gfonts/font/cairo/v31/SLXgc1nY6HkvangtZmpQdkhzfH5lkSs2SgRjCAGMQ1z0hD45a1PiLA.woff2) format('woff2');
  unicode-range: U+0000-00FF, U+0131, U+0152-0153, U+02BB-02BC, U+02C6, U+02DA, U+02DC, U+0304, U+0308, U+0329, U+2000-206F, U+20AC, U+2122, U+2191, U+2193, U+2212, U+2215, U+FEFF, U+FFFD;
}
</style><g id="shape-b527cf84-f825-80eb-8006-f2567f84340f" rx="0" ry="0"><g id="shape-b527cf84-f825-80eb-8006-f255d1532f1e"><defs><filter id="filter-render-2" x="-0.06338028169014084" y="-0.45" width="1.1549295774647887" height="2.1" filterUnits="objectBoundingBox" color-interpolation-filters="sRGB"><feFlood flood-opacity="0" result="BackgroundImageFix"/><feColorMatrix in="SourceAlpha" type="matrix" values="0 0 0 0 0 0 0 0 0 0 0 0 0 0 0 0 0 0 127 0"/><feOffset dx="4" dy="4"/><feGaussianBlur stdDeviation="2"/><feColorMatrix type="matrix" values="0 0 0 0 0 0 0 0 0 0 0 0 0 0 0 0 0 0 0.2 0"/><feBlend mode="normal" in2="BackgroundImageFix" result="filter_71b04822-b0d5-8031-8006-f0df7e8cfde2"/><feBlend mode="normal" in="SourceGraphic" in2="filter_71b04822-b0d5-8031-8006-f0df7e8cfde2" result="shape"/></filter><filter id="filter-shadow-render-2" x="-0.06338028169014084" y="-0.45" width="1.1549295774647887" height="2.1" filterUnits="objectBoundingBox" color-interpolation-filters="sRGB"><feFlood flood-opacity="0" result="BackgroundImageFix"/><feColorMatrix in="SourceAlpha" type="matrix" values="0 0 0 0 0 0 0 0 0 0 0 0 0 0 0 0 0 0 127 0"/><feOffset dx="4" dy="4"/><feGaussianBlur stdDeviation="2"/><feColorMatrix type="matrix" values="0 0 0 0 0 0 0 0 0 0 0 0 0 0 0 0 0 0 0.2 0"/><feBlend mode="normal" in2="BackgroundImageFix" result="filter_71b04822-b0d5-8031-8006-f0df7e8cfde2"/><feBlend mode="normal" in="SourceGraphic" in2="filter_71b04822-b0d5-8031-8006-f0df7e8cfde2" result="shape"/></filter></defs><g class="fills" id="fills-b527cf84-f825-80eb-8006-f255d1532f1e"><rect width="426" height="60" x="0" transform="matrix(1.000000, 0.000000, 0.000000, 1.000000, 0.000000, 0.000000)" style="fill: rgb(255, 255, 255); fill-opacity: 1;" ry="10" rx="10" filter="url(#filter-render-2)" y="0"/></g><g id="strokes-b7c1a5c6-1b53-8085-8006-f549246f2382-b527cf84-f825-80eb-8006-f255d1532f1e" class="strokes"><g class="inner-stroke-shape" transform="matrix(1.000000, 0.000000, 0.000000, 1.000000, 0.000000, 0.000000)"><defs><clipPath id="inner-stroke-render-2-b527cf84-f825-80eb-8006-f255d1532f1e-0"><use href="#stroke-shape-render-2-b527cf84-f825-80eb-8006-f255d1532f1e-0"/></clipPath><rect rx="10" ry="10" x="0" y="0" width="426" height="60" id="stroke-shape-render-2-b527cf84-f825-80eb-8006-f255d1532f1e-0" style="fill: none; stroke-width: 3; stroke: rgb(170, 101, 43); stroke-opacity: 1; stroke-dasharray: 0, 6.5; stroke-linecap: round;"/></defs><use href="#stroke-shape-render-2-b527cf84-f825-80eb-8006-f255d1532f1e-0" clip-path="url('#inner-stroke-render-2-b527cf84-f825-80eb-8006-f255d1532f1e-0')"/></g></g></g><g id="shape-b527cf84-f825-80eb-8006-f255d1532f1d" style="opacity: 1;"><g transform="matrix(1.000000, 0.000000, 0.000000, 1.000000, 0.000000, 0.000000)" class="text-container" x="81.5" y="18" width="263" height="24" rx="0" ry="0"><defs><pattern patternUnits="objectBoundingBox" width="250.83334350585938" height="37" id="fill-0-render-3-0"><g><rect width="250.83334350585938" height="37" style="fill: rgb(0, 0, 0); fill-opacity: 1;"/></g></pattern></defs><g class="fills" id="fills-b527cf84-f825-80eb-8006-f255d1532f1d"><text x="338.4166717529297" y="48.5" dominant-baseline="ideographic" textLength="250.83334350585938" lengthAdjust="spacingAndGlyphs" style="text-transform: none; font-family: Cairo; letter-spacing: normal; font-style: normal; font-weight: 600; white-space: pre; font-size: 20px; text-decoration: none; direction: rtl; fill: rgb(0, 0, 0); fill-opacity: 1;">إلتقاط صورة عن طريق الكاميرا</text></g></g></g><g id="shape-b527cf84-f825-80eb-8006-f25672fa8202" rx="0" ry="0"><g id="shape-b527cf84-f825-80eb-8006-f255d1532f1f" width="24" height="24" rx="0" ry="0" style="fill: rgb(0, 0, 0);"><g id="shape-b527cf84-f825-80eb-8006-f255d1532f20"><g class="fills" id="fills-b527cf84-f825-80eb-8006-f255d1532f20"><path d="M376.25,45.5C375.14990234375,45.5,374.208740234375,45.1103515625,373.42578125,44.33154296875C372.643310546875,43.55224609375,372.251220703125,42.61572265625,372.25,41.51953125L372.25,37.53857421875C372.25,36.974609375,372.44189453125,36.50244140625,372.825927734375,36.12158203125C373.2099609375,35.74072265625,373.684814453125,35.54931640625,374.25,35.5478515625C374.815185546875,35.54736328125,375.291015625,35.73779296875,375.67578125,36.12158203125C376.061279296875,36.50439453125,376.252685546875,36.9765625,376.25,37.53857421875L376.25,41.51953125L400.25,41.51953125L400.25,37.53857421875C400.25,36.974609375,400.44189453125,36.50244140625,400.825927734375,36.12158203125C401.2099609375,35.74072265625,401.684814453125,35.54931640625,402.25,35.5478515625C402.815185546875,35.54736328125,403.291015625,35.73779296875,403.67578125,36.12158203125C404.061279296875,36.50439453125,404.252685546875,36.9765625,404.25,37.53857421875L404.25,41.51953125C404.25,42.61328125,403.858642578125,43.55126953125,403.075927734375,44.33154296875C402.29345703125,45.1123046875,401.351318359375,45.5009765625,400.25,45.5ZM386.25,21.31689453125L382.5,25.048828125C382.10009765625,25.44677734375,381.625244140625,25.63818359375,381.075927734375,25.62255859375C380.526611328125,25.60595703125,380.05126953125,25.3994140625,379.64990234375,25C379.283447265625,24.6005859375,379.091552734375,24.13671875,379.07421875,23.60595703125C379.056640625,23.0751953125,379.248779296875,22.61083984375,379.64990234375,22.21240234375L386.85009765625,15.0478515625C387.050048828125,14.8486328125,387.2666015625,14.70751953125,387.5,14.625C387.7333984375,14.54345703125,387.9833984375,14.50146484375,388.25,14.49951171875C388.5166015625,14.49853515625,388.7666015625,14.541015625,389,14.625C389.2333984375,14.71044921875,389.449951171875,14.8515625,389.64990234375,15.0478515625L396.85009765625,22.21240234375C397.25,22.61083984375,397.44189453125,23.0751953125,397.42578125,23.60595703125C397.409912109375,24.13671875,397.218017578125,24.6005859375,396.85009765625,25C396.449951171875,25.39697265625,395.975341796875,25.60546875,395.42578125,25.62255859375C394.876708984375,25.63916015625,394.4013671875,25.4482421875,394,25.048828125L390.25,21.31689453125L390.25,35.5478515625C390.25,36.111328125,390.05810546875,36.58544921875,389.674072265625,36.96728515625C389.2900390625,37.34912109375,388.815185546875,37.53955078125,388.25,37.53857421875C387.684814453125,37.53759765625,387.2099609375,37.345703125,386.825927734375,36.96533203125C386.44189453125,36.583984375,386.25,36.111328125,386.25,35.5478515625Z" style="fill: rgb(170, 101, 43); fill-opacity: 1;"/></g></g></g><g id="shape-b527cf84-f825-80eb-8006-f2564b0db8d2" width="24" height="24" rx="0" ry="0" style="fill: rgb(0, 0, 0);"><g id="shape-b527cf84-f825-80eb-8006-f2564b1385c0"><g class="fills" id="fills-b527cf84-f825-80eb-8006-f2564b1385c0"><path d="M33.8057861328125,45.5L40.6942138671875,45.5C45.53173828125,45.5,47.9512939453125,45.5,49.6888427734375,44.234375C50.4385986328125,43.6884765625,51.0843505859375,42.98388671875,51.5889892578125,42.16064453125C52.75,40.26611328125,52.75,37.62646484375,52.75,32.3486328125C52.75,27.07177734375,52.75,24.43212890625,51.5889892578125,22.53759765625C51.0843505859375,21.71435546875,50.4385986328125,21.009765625,49.6888427734375,20.4638671875C48.5728759765625,19.64990234375,47.174560546875,19.35791015625,45.0340576171875,19.25537109375C44.0126953125,19.25537109375,43.1337890625,18.4111328125,42.933837890625,17.31787109375C42.6187744140625,15.66650390625,41.3018798828125,14.4892578125,39.78271484375,14.5L34.71728515625,14.5C33.18603515625,14.5,31.8668212890625,15.6796875,31.566162109375,17.31787109375C31.3662109375,18.4111328125,30.4873046875,19.25537109375,29.4659423828125,19.25537109375C27.326904296875,19.35791015625,25.9288330078125,19.6513671875,24.8111572265625,20.4638671875C24.0618896484375,21.009765625,23.416748046875,21.71435546875,22.9124755859375,22.53759765625C21.75,24.43212890625,21.75,27.0703125,21.75,32.3486328125C21.75,37.6279296875,21.75,40.26416015625,22.9110107421875,42.16064453125C23.4130859375,42.98046875,24.0579833984375,43.6845703125,24.8111572265625,44.234375C26.5487060546875,45.5,28.96826171875,45.5,33.8057861328125,45.5M37.25,25.30322265625C33.683349609375,25.30322265625,30.7911376953125,28.45703125,30.7911376953125,32.34716796875C30.7911376953125,36.23779296875,33.6849365234375,39.396484375,37.25,39.396484375C40.8150634765625,39.396484375,43.7088623046875,36.2412109375,43.7088623046875,32.35107421875C43.7088623046875,28.46044921875,40.8150634765625,25.30322265625,37.25,25.30322265625M37.25,28.12158203125C35.1109619140625,28.12158203125,33.375,30.013671875,33.375,32.3486328125C33.375,34.68310546875,35.1109619140625,36.5751953125,37.25,36.5751953125C39.3890380859375,36.5751953125,41.125,34.68310546875,41.125,32.3486328125C41.125,30.01513671875,39.3890380859375,28.12158203125,37.25,28.12158203125M44.5692138671875,26.7119140625C44.5692138671875,25.93408203125,45.147216796875,25.30322265625,45.86181640625,25.30322265625L47.582275390625,25.30322265625C48.2952880859375,25.30322265625,48.875,25.93408203125,48.875,26.7119140625C48.8681640625,27.49755859375,48.290283203125,28.1279296875,47.5838623046875,28.12158203125L45.86181640625,28.12158203125C45.522216796875,28.12451171875,45.1953125,27.978515625,44.952880859375,27.71435546875C44.7103271484375,27.4501953125,44.5723876953125,27.08935546875,44.5692138671875,26.7119140625" fill-rule="evenodd" clip-rule="evenodd" style="fill: rgb(170, 101, 43); fill-opacity: 1;"/></g></g></g></g></g></svg>