<svg width="34" xmlns="http://www.w3.org/2000/svg" height="29" id="screenshot-b527cf84-f825-80eb-8006-f24279747581" viewBox="0 0 34 29" xmlns:xlink="http://www.w3.org/1999/xlink" fill="none" version="1.1"><g id="shape-b527cf84-f825-80eb-8006-f24279747581" width="18" height="18" rx="0" ry="0" style="fill: rgb(0, 0, 0);"><g id="shape-b527cf84-f825-80eb-8006-f24279747582"><g class="fills" id="fills-b527cf84-f825-80eb-8006-f24279747582"><path d="M16.8837890625,7.255126953125C16.029296875,7.25634765625,15.181640625,7.41015625,14.38134765625,7.708740234375L23.67333984375,16.988525390625C23.97607421875,16.178955078125,24.1298828125,15.32177734375,24.127197265625,14.457763671875C24.10986328125,10.474853515625,20.871826171875,7.255126953125,16.8837890625,7.255126953125" class="clr-i-solid clr-i-solid-path-1" style="fill: rgb(78, 78, 78); fill-opacity: 1;"/></g></g><g id="shape-b527cf84-f825-80eb-8006-f24279747583"><g class="fills" id="fills-b527cf84-f825-80eb-8006-f24279747583"><path d="M33.69384765625,13.962158203125C30.13525390625,7.392333984375,23.89501953125,3.416748046875,16.9892578125,3.416748046875C15.109130859375,3.4208984375,13.241455078125,3.723388671875,11.45654296875,4.312744140625L13.156494140625,6.021240234375C14.40869140625,5.698486328125,15.696044921875,5.531982421875,16.9892578125,5.52587890625C22.93408203125,5.52587890625,28.34033203125,8.8369140625,31.560791015625,14.41552734375C30.37841796875,16.484375,28.8125,18.3095703125,26.946533203125,19.793701171875L28.44580078125,21.291259765625C30.60693359375,19.551025390625,32.4013671875,17.400390625,33.725341796875,14.9638671875L34,14.457763671875Z" class="clr-i-solid clr-i-solid-path-2" style="fill: rgb(78, 78, 78); fill-opacity: 1;"/></g></g><g id="shape-b527cf84-f825-80eb-8006-f24279747584"><g class="fills" id="fills-b527cf84-f825-80eb-8006-f24279747584"><path d="M2.629150390625,1.5712890625L7.33837890625,6.2744140625C4.361083984375,8.18798828125,1.92822265625,10.835693359375,0.2744140625,13.962158203125L0,14.457763671875L0.2744140625,14.9638671875C3.832763671875,21.53369140625,10.0732421875,25.50927734375,16.978759765625,25.50927734375C19.67431640625,25.509765625,22.334716796875,24.900634765625,24.7607421875,23.727294921875L30.040283203125,29L31.88818359375,27.418212890625L4.4345703125,0ZM11.39306640625,10.323974609375C9.353271484375,13.19677734375,9.685302734375,17.119873046875,12.1787109375,19.610107421875C14.672119140625,22.100341796875,18.600341796875,22.431884765625,21.476806640625,20.394775390625L23.166259765625,22.08203125C21.210693359375,22.917236328125,19.105712890625,23.34765625,16.978759765625,23.347412109375C11.0341796875,23.347412109375,5.6279296875,20.036376953125,2.407470703125,14.457763671875C3.953125,11.724853515625,6.17919921875,9.4365234375,8.86962890625,7.81396484375Z" class="clr-i-solid clr-i-solid-path-3" style="fill: rgb(78, 78, 78); fill-opacity: 1;"/></g></g></g></svg>