<svg width="42" xmlns="http://www.w3.org/2000/svg" height="41" id="screenshot-b527cf84-f825-80eb-8006-f240e1eef0f7" viewBox="0 0 42 41" xmlns:xlink="http://www.w3.org/1999/xlink" fill="none" version="1.1"><g id="shape-b527cf84-f825-80eb-8006-f240e1eef0f7" width="24" height="24" rx="0" ry="0" style="fill: rgb(0, 0, 0);"><g id="shape-b527cf84-f825-80eb-8006-f240e1eef100"><g class="fills" id="fills-b527cf84-f825-80eb-8006-f240e1eef100"><path d="M2.6953125,17.812255859375L32.802490234375,17.812255859375L19.649169921875,4.6268310546875C18.59814453125,3.572998046875,18.59814453125,1.84375,19.649169921875,0.7900390625C20.15283203125,0.284423828125,20.83642578125,0.0001220703125,21.54931640625,0.0001220703125C22.26220703125,0.0001220703125,22.9462890625,0.284423828125,23.449462890625,0.7900390625L41.2119140625,18.5958251953125C41.71630859375,19.1004638671875,42,19.7857666015625,42,20.5006103515625C42,21.2152099609375,41.71630859375,21.900634765625,41.2119140625,22.4053955078125L23.449462890625,40.2110595703125C22.400390625,41.2628173828125,20.69873046875,41.2628173828125,19.649169921875,40.2110595703125C18.599609375,39.158935546875,18.599609375,37.4534912109375,19.649169921875,36.4012451171875L32.802490234375,23.2159423828125L2.6953125,23.2159423828125C1.212890625,23.2159423828125,0,22.000244140625,0,20.51416015625C0,19.0279541015625,1.212890625,17.812255859375,2.6953125,17.812255859375" style="fill: rgb(255, 255, 255); fill-opacity: 1;"/></g></g></g></svg>