<svg width="112" xmlns="http://www.w3.org/2000/svg" height="59" id="screenshot-b527cf84-f825-80eb-8006-f241c9e6c63e" viewBox="0 0 112 59" xmlns:xlink="http://www.w3.org/1999/xlink" fill="none" version="1.1"><g id="shape-b527cf84-f825-80eb-8006-f241c9e6c63e" width="24" height="24" rx="0" ry="0" style="fill: rgb(0, 0, 0);"><g id="shape-b527cf84-f825-80eb-8006-f241c9edba30"><g class="fills" id="fills-b527cf84-f825-80eb-8006-f241c9edba30"><path d="M10.181884765625,48.935791015625L101.818115234375,48.935791015625C103.26123046875,48.935791015625,104.470458984375,49.418701171875,105.447509765625,50.385498046875C106.425537109375,51.35107421875,106.91259765625,52.54541015625,106.9091796875,53.968017578125C106.9052734375,55.390625,106.416748046875,56.5859375,105.442626953125,57.555419921875C104.468994140625,58.52587890625,103.26123046875,59.005859375,101.818115234375,59.000244140625L10.181884765625,59.000244140625C8.73876953125,59.000244140625,7.531005859375,58.517333984375,6.557373046875,57.550537109375C5.583251953125,56.5849609375,5.0947265625,55.390625,5.0908203125,53.968017578125C5.08740234375,52.54541015625,5.575927734375,51.35107421875,6.557373046875,50.385498046875C7.538330078125,49.418701171875,8.74609375,48.935791015625,10.181884765625,48.935791015625M15.27294921875,21.0084228515625L12.854248046875,25.2861328125C12.345703125,26.2083740234375,11.581298828125,26.795654296875,10.563232421875,27.0465087890625C9.545654296875,27.29833984375,8.569580078125,27.173095703125,7.636474609375,26.66943359375C6.703125,26.166748046875,6.10888671875,25.4112548828125,5.85400390625,24.4049072265625C5.600341796875,23.3990478515625,5.7275390625,22.434326171875,6.237060546875,21.5120849609375L8.654052734375,17.2344970703125L3.818359375,17.2344970703125C2.715576171875,17.2344970703125,1.8037109375,16.8792724609375,1.083740234375,16.167724609375C0.365478515625,15.4566650390625,0.003662109375,14.5538330078125,0.000244140625,13.46044921875C-0.003662109375,12.3671875,0.358154296875,11.4661865234375,1.083740234375,10.758544921875C1.81103515625,10.0499267578125,2.721923828125,9.6937255859375,3.818359375,9.6865234375L8.654052734375,9.6865234375L6.237060546875,5.66064453125C5.7275390625,4.738037109375,5.600341796875,3.773681640625,5.85400390625,2.767333984375C6.10888671875,1.760986328125,6.703125,1.0069580078125,7.636474609375,0.50341796875C8.569580078125,-0.000244140625,9.545654296875,-0.1259765625,10.563232421875,0.1258544921875C11.581298828125,0.377685546875,12.345703125,0.9639892578125,12.854248046875,1.88671875L15.27294921875,5.9124755859375L17.691650390625,1.88671875C18.19970703125,0.9639892578125,18.9638671875,0.377685546875,19.98193359375,0.1258544921875C21.000244140625,-0.1259765625,21.975830078125,-0.000244140625,22.9091796875,0.50341796875C23.84228515625,1.0069580078125,24.4365234375,1.760986328125,24.691162109375,2.767333984375C24.945068359375,3.773681640625,24.818359375,4.738037109375,24.308837890625,5.66064453125L21.89111328125,9.6865234375L26.7275390625,9.6865234375C27.82958984375,9.6865234375,28.7431640625,10.043701171875,29.46630859375,10.758544921875C30.188720703125,11.4725341796875,30.549072265625,12.3729248046875,30.545654296875,13.46044921875C30.541748046875,14.5474853515625,30.179931640625,15.449462890625,29.46142578125,16.167724609375C28.7421875,16.885498046875,27.82958984375,17.24169921875,26.7275390625,17.2344970703125L21.89111328125,17.2344970703125L24.308837890625,21.5120849609375C24.818359375,22.434326171875,24.945068359375,23.3990478515625,24.691162109375,24.4049072265625C24.4365234375,25.4112548828125,23.84228515625,26.166748046875,22.9091796875,26.66943359375C21.975830078125,27.173095703125,21.000244140625,27.29833984375,19.98193359375,27.0465087890625C18.9638671875,26.795654296875,18.19970703125,26.2083740234375,17.691650390625,25.2861328125ZM56,21.0084228515625L53.581298828125,25.2861328125C53.07275390625,26.2083740234375,52.308349609375,26.795654296875,51.290771484375,27.0465087890625C50.272705078125,27.29833984375,49.297119140625,27.173095703125,48.363525390625,26.66943359375C47.43017578125,26.166748046875,46.8359375,25.4112548828125,46.581298828125,24.4049072265625C46.327880859375,23.3990478515625,46.45458984375,22.434326171875,46.964111328125,21.5120849609375L49.3818359375,17.2344970703125L44.54541015625,17.2344970703125C43.443115234375,17.2344970703125,42.53076171875,16.8792724609375,41.81103515625,16.167724609375C41.092529296875,15.4566650390625,40.731201171875,14.5538330078125,40.727294921875,13.46044921875C40.723388671875,12.3671875,41.085205078125,11.4661865234375,41.81103515625,10.758544921875C42.5380859375,10.0499267578125,43.448974609375,9.6937255859375,44.54541015625,9.6865234375L49.3818359375,9.6865234375L46.964111328125,5.66064453125C46.45458984375,4.738037109375,46.327880859375,3.773681640625,46.581298828125,2.767333984375C46.8359375,1.760986328125,47.43017578125,1.0069580078125,48.363525390625,0.50341796875C49.297119140625,-0.000244140625,50.272705078125,-0.1259765625,51.290771484375,0.1258544921875C52.308349609375,0.377685546875,53.07275390625,0.9639892578125,53.581298828125,1.88671875L56,5.9124755859375L58.418701171875,1.88671875C58.92724609375,0.9639892578125,59.691650390625,0.377685546875,60.709228515625,0.1258544921875C61.727294921875,-0.1259765625,62.702880859375,-0.000244140625,63.636474609375,0.50341796875C64.56982421875,1.0069580078125,65.1640625,1.760986328125,65.418701171875,2.767333984375C65.672119140625,3.773681640625,65.54541015625,4.738037109375,65.035888671875,5.66064453125L62.6181640625,9.6865234375L67.45458984375,9.6865234375C68.556884765625,9.6865234375,69.46923828125,10.043701171875,70.18896484375,10.758544921875C70.907470703125,11.4725341796875,71.268798828125,12.3729248046875,71.272705078125,13.46044921875C71.276611328125,14.5474853515625,70.914794921875,15.449462890625,70.18896484375,16.167724609375C69.4619140625,16.885498046875,68.551025390625,17.24169921875,67.45458984375,17.2344970703125L62.6181640625,17.2344970703125L65.035888671875,21.5120849609375C65.54541015625,22.434326171875,65.672119140625,23.3990478515625,65.418701171875,24.4049072265625C65.1640625,25.4112548828125,64.56982421875,26.166748046875,63.636474609375,26.66943359375C62.702880859375,27.173095703125,61.727294921875,27.29833984375,60.709228515625,27.0465087890625C59.691650390625,26.795654296875,58.92724609375,26.2083740234375,58.418701171875,25.2861328125ZM96.72705078125,21.0084228515625L94.308349609375,25.2861328125C93.80029296875,26.2083740234375,93.0361328125,26.795654296875,92.01806640625,27.0465087890625C90.999755859375,27.29833984375,90.024169921875,27.173095703125,89.0908203125,26.66943359375C88.15771484375,26.166748046875,87.5634765625,25.4112548828125,87.308837890625,24.4049072265625C87.054931640625,23.3990478515625,87.181640625,22.434326171875,87.691162109375,21.5120849609375L90.10888671875,17.2344970703125L85.2724609375,17.2344970703125C84.17041015625,17.2344970703125,83.2578125,16.8792724609375,82.53857421875,16.167724609375C81.820068359375,15.4566650390625,81.458251953125,14.5538330078125,81.454345703125,13.46044921875C81.450927734375,12.3671875,81.812255859375,11.4661865234375,82.53857421875,10.758544921875C83.265625,10.0499267578125,84.1767578125,9.6937255859375,85.2724609375,9.6865234375L90.10888671875,9.6865234375L87.691162109375,5.66064453125C87.181640625,4.738037109375,87.054931640625,3.773681640625,87.308837890625,2.767333984375C87.5634765625,1.760986328125,88.15771484375,1.0069580078125,89.0908203125,0.50341796875C90.024169921875,-0.000244140625,90.999755859375,-0.1259765625,92.01806640625,0.1258544921875C93.0361328125,0.377685546875,93.80029296875,0.9639892578125,94.308349609375,1.88671875L96.72705078125,5.9124755859375L99.145751953125,1.88671875C99.654296875,0.9639892578125,100.418701171875,0.377685546875,101.436767578125,0.1258544921875C102.454345703125,-0.1259765625,103.430419921875,-0.000244140625,104.363525390625,0.50341796875C105.296875,1.0069580078125,105.89111328125,1.760986328125,106.14599609375,2.767333984375C106.399658203125,3.773681640625,106.2724609375,4.738037109375,105.762939453125,5.66064453125L103.345947265625,9.6865234375L108.181640625,9.6865234375C109.284423828125,9.6865234375,110.19775390625,10.043701171875,110.921142578125,10.758544921875C111.643310546875,11.4725341796875,112.003662109375,12.3729248046875,111.999755859375,13.46044921875C111.996337890625,14.5474853515625,111.634521484375,15.449462890625,110.916259765625,16.167724609375C110.1962890625,16.885498046875,109.284423828125,17.24169921875,108.181640625,17.2344970703125L103.345947265625,17.2344970703125L105.762939453125,21.5120849609375C106.2724609375,22.434326171875,106.399658203125,23.3990478515625,106.14599609375,24.4049072265625C105.89111328125,25.4112548828125,105.296875,26.166748046875,104.363525390625,26.66943359375C103.430419921875,27.173095703125,102.454345703125,27.29833984375,101.436767578125,27.0465087890625C100.418701171875,26.795654296875,99.654296875,26.2083740234375,99.145751953125,25.2861328125Z" style="fill: rgb(255, 255, 255); fill-opacity: 1;"/></g></g></g></svg>