<svg width="221" xmlns="http://www.w3.org/2000/svg" height="203" id="screenshot-c68eaf53-5e8f-80b3-8006-f2624713e992" viewBox="3329.5 4504 221 203" xmlns:xlink="http://www.w3.org/1999/xlink" fill="none" version="1.1"><g id="shape-c68eaf53-5e8f-80b3-8006-f2624713e992"><defs><filter id="filter-render-1" x="-0.5053763440860215" y="-0.6266666666666667" width="2.139784946236559" height="2.4133333333333336" filterUnits="objectBoundingBox" color-interpolation-filters="sRGB"><feFlood flood-opacity="0" result="BackgroundImageFix"/><feColorMatrix in="SourceAlpha" type="matrix" values="0 0 0 0 0 0 0 0 0 0 0 0 0 0 0 0 0 0 127 0"/><feOffset dx="4" dy="4"/><feGaussianBlur stdDeviation="2"/><feColorMatrix type="matrix" values="0 0 0 0 0 0 0 0 0 0 0 0 0 0 0 0 0 0 0.2 0"/><feBlend mode="normal" in2="BackgroundImageFix" result="filter_71b04822-b0d5-8031-8006-f23c833fbf5b"/><feBlend mode="normal" in="SourceGraphic" in2="filter_71b04822-b0d5-8031-8006-f23c833fbf5b" result="shape"/></filter><filter id="filter-shadow-render-1" x="-0.5053763440860215" y="-0.6266666666666667" width="2.139784946236559" height="2.4133333333333336" filterUnits="objectBoundingBox" color-interpolation-filters="sRGB"><feFlood flood-opacity="0" result="BackgroundImageFix"/><feColorMatrix in="SourceAlpha" type="matrix" values="0 0 0 0 0 0 0 0 0 0 0 0 0 0 0 0 0 0 127 0"/><feOffset dx="4" dy="4"/><feGaussianBlur stdDeviation="2"/><feColorMatrix type="matrix" values="0 0 0 0 0 0 0 0 0 0 0 0 0 0 0 0 0 0 0.2 0"/><feBlend mode="normal" in2="BackgroundImageFix" result="filter_71b04822-b0d5-8031-8006-f23c833fbf5b"/><feBlend mode="normal" in="SourceGraphic" in2="filter_71b04822-b0d5-8031-8006-f23c833fbf5b" result="shape"/></filter></defs><g class="fills" id="fills-c68eaf53-5e8f-80b3-8006-f2624713e992"><path d="M3474.5,4592.20703125L3474.5,4566.3447265625C3474.5,4560.6318359375,3469.873046875,4556,3464.16650390625,4556L3391.83349609375,4556C3386.126953125,4556,3381.5,4560.6318359375,3381.5,4566.3447265625L3381.5,4597.37939453125C3381.5,4603.09228515625,3386.126953125,4607.72412109375,3391.83349609375,4607.72412109375L3428,4607.72412109375M3440.91650390625,4620.6552734375L3451.25,4631L3471.91650390625,4610.310546875M3428,4581.9140625L3428.0517578125,4581.85693359375M3448.66650390625,4581.9140625L3448.71826171875,4581.85693359375M3407.33349609375,4581.9140625L3407.385009765625,4581.85693359375" filter="url(#filter-render-1)" fill="none" stroke-linecap="round" stroke-linejoin="round" style="fill: none;"/></g><g fill="none" stroke-linecap="round" stroke-linejoin="round" id="strokes-3c9258a3-4f3f-80fc-8006-fee4167f5c75-c68eaf53-5e8f-80b3-8006-f2624713e992" class="strokes" filter="url(#filter-render-1)"><g class="stroke-shape"><path d="M3474.5,4592.20703125L3474.5,4566.3447265625C3474.5,4560.6318359375,3469.873046875,4556,3464.16650390625,4556L3391.83349609375,4556C3386.126953125,4556,3381.5,4560.6318359375,3381.5,4566.3447265625L3381.5,4597.37939453125C3381.5,4603.09228515625,3386.126953125,4607.72412109375,3391.83349609375,4607.72412109375L3428,4607.72412109375M3440.91650390625,4620.6552734375L3451.25,4631L3471.91650390625,4610.310546875M3428,4581.9140625L3428.0517578125,4581.85693359375M3448.66650390625,4581.9140625L3448.71826171875,4581.85693359375M3407.33349609375,4581.9140625L3407.385009765625,4581.85693359375" style="fill: none; stroke-width: 8; stroke: rgb(255, 255, 255); stroke-opacity: 1;"/></g></g></g></svg>