<svg width="46" xmlns="http://www.w3.org/2000/svg" height="52" id="screenshot-71b04822-b0d5-8031-8006-f0e36ce7fce0" viewBox="0 0 46 52" xmlns:xlink="http://www.w3.org/1999/xlink" fill="none" version="1.1"><g id="shape-71b04822-b0d5-8031-8006-f0e36ce7fce0" width="24" height="24" rx="0" ry="0" style="fill: rgb(0, 0, 0);"><g id="shape-71b04822-b0d5-8031-8006-f0e36cedc948"><defs><linearGradient id="fill-color-gradient-render-2-0" x1="0.5" y1="1" x2="0.4999999999999999" y2="3.0616169978683836e-17" gradientTransform=""><stop offset="0" stop-color="#482200" stop-opacity="1"/><stop offset="1" stop-color="#aa652b" stop-opacity="1"/></linearGradient><pattern patternUnits="userSpaceOnUse" x="0" y="0" width="46" height="52" patternTransform="matrix(1.000000, 0.000000, 0.000000, 1.000000, 0.000000, 0.000000)" id="fill-0-render-2"><g><rect width="46" height="52" style="fill: url(&quot;#fill-color-gradient-render-2-0&quot;);"/></g></pattern></defs><g class="fills" id="fills-71b04822-b0d5-8031-8006-f0e36cedc948"><path d="M9.8350830078125,5.054931640625C9.8350830078125,4.423828125,16.4425048828125,0,23.0028076171875,0C29.5631103515625,0,36.170654296875,4.423828125,36.170654296875,5.054931640625C36.170654296875,7.307861328125,35.927734375,8.64208984375,35.7230224609375,9.368408203125C35.5870361328125,9.84521484375,35.134765625,10.109619140625,34.6328125,10.109619140625L11.3729248046875,10.109619140625C10.8709716796875,10.109619140625,10.418701171875,9.84521484375,10.28271484375,9.368408203125C10.077880859375,8.64208984375,9.8350830078125,7.307861328125,9.8350830078125,5.054931640625M20.8082275390625,4.332763671875C20.000244140625,4.332763671875,19.3450927734375,4.9794921875,19.3450927734375,5.77685546875C19.3450927734375,6.57470703125,20.000244140625,7.221435546875,20.8082275390625,7.221435546875L25.197509765625,7.221435546875C26.0054931640625,7.221435546875,26.66064453125,6.57470703125,26.66064453125,5.77685546875C26.66064453125,4.9794921875,26.0054931640625,4.332763671875,25.197509765625,4.332763671875ZM11.35400390625,19.08984375C6.481689453125,17.602294921875,7.7108154296875,14.945068359375,9.5689697265625,12.998291015625L36.8436279296875,12.998291015625C38.330322265625,14.87255859375,39.1275634765625,17.401611328125,34.63427734375,18.915283203125C34.6832275390625,19.34375,34.70751953125,19.778564453125,34.70751953125,20.219482421875C34.7056884765625,24.48095703125,32.3275146484375,28.396240234375,28.519775390625,30.404541015625C24.7125244140625,32.413818359375,20.0933837890625,32.190185546875,16.503173828125,29.8232421875C12.9127197265625,27.456787109375,10.933349609375,23.331298828125,11.35400390625,19.08984375M22.6048583984375,20.219482421875C26.4705810546875,20.219482421875,29.4666748046875,20.01708984375,31.763916015625,19.665283203125C31.775634765625,19.847900390625,31.7813720703125,20.032470703125,31.7813720703125,20.219482421875C31.778564453125,23.367431640625,30.0460205078125,26.2666015625,27.2559814453125,27.79248046875C24.466064453125,29.31787109375,21.0574951171875,29.22900390625,18.3524169921875,27.561279296875C15.6474609375,25.8935546875,14.071533203125,22.908203125,14.2362060546875,19.764404296875C16.37646484375,20.056396484375,19.1197509765625,20.219482421875,22.6048583984375,20.219482421875M35.317626953125,41.305419921875C32.6285400390625,37.1630859375,27.9869384765625,34.658935546875,23.0028076171875,34.661865234375C18.016845703125,34.658203125,13.372802734375,37.163818359375,10.683837890625,41.308349609375C10.1915283203125,40.56201171875,9.4375,40.022705078125,8.566650390625,39.791259765625L5.73974609375,39.04541015625C3.788818359375,38.529052734375,1.7830810546875,39.671630859375,1.2598876953125,41.5966796875L0.1246337890625,45.78271484375C-0.12646484375,46.707275390625,0.0050048828125,47.693359375,0.4901123046875,48.5224609375C0.97509765625,49.351806640625,1.7742919921875,49.95703125,2.71142578125,50.205322265625L5.5364990234375,50.95263671875C6.4969482421875,51.20703125,7.5205078125,51.06396484375,8.3719482421875,50.55712890625C8.3743896484375,51.3544921875,9.0313720703125,52,9.83935546875,51.9970703125C10.6473388671875,51.99462890625,11.3006591796875,51.345947265625,11.2982177734375,50.548583984375L11.2982177734375,49.104248046875C11.2982177734375,48.553466796875,11.3359375,48.012451171875,11.412109375,47.482421875L19.026123046875,49.4970703125C19.7476806640625,51.021484375,21.29833984375,51.99560546875,23.0028076171875,51.99560546875C24.7073974609375,51.99560546875,26.258056640625,51.021484375,26.9796142578125,49.4970703125L34.5936279296875,47.482421875C34.6685791015625,48.012451171875,34.70654296875,48.553466796875,34.70751953125,49.104248046875L34.70751953125,50.548583984375C34.7037353515625,51.345947265625,35.355224609375,51.996337890625,36.16357421875,52C36.9715576171875,52.004150390625,37.6297607421875,51.361083984375,37.6337890625,50.562744140625C38.453125,51.048583984375,39.46533203125,51.21728515625,40.4619140625,50.95263671875L43.2884521484375,50.20654296875C44.2257080078125,49.958251953125,45.0247802734375,49.353271484375,45.510009765625,48.52392578125C45.9949951171875,47.694580078125,46.12646484375,46.708740234375,45.8753662109375,45.784423828125L44.7384033203125,41.59912109375C44.2152099609375,39.6728515625,42.20947265625,38.530517578125,40.25830078125,39.046630859375L37.4317626953125,39.793701171875C36.5628662109375,40.022705078125,35.8101806640625,40.560791015625,35.317626953125,41.30419921875M12.180419921875,44.693359375C13.7904052734375,40.853271484375,17.3629150390625,38.1611328125,21.5396728515625,37.639892578125L21.5396728515625,43.573974609375C20.2088623046875,44.038818359375,19.1851806640625,45.1064453125,18.789306640625,46.4443359375ZM33.8253173828125,44.693359375C32.21533203125,40.853271484375,28.6427001953125,38.1611328125,24.466064453125,37.639892578125L24.466064453125,43.573974609375C25.7886962890625,44.036865234375,26.8216552734375,45.10498046875,27.2164306640625,46.4443359375ZM23.0028076171875,49.104248046875C23.810791015625,49.104248046875,24.466064453125,48.45751953125,24.466064453125,47.66015625C24.466064453125,46.862548828125,23.810791015625,46.2158203125,23.0028076171875,46.2158203125C22.19482421875,46.2158203125,21.5396728515625,46.862548828125,21.5396728515625,47.66015625C21.5396728515625,48.45751953125,22.19482421875,49.104248046875,23.0028076171875,49.104248046875" fill="url(#fill-0-render-2)" fill-rule="evenodd" clip-rule="evenodd"/></g></g></g></svg>