<svg width="42" xmlns="http://www.w3.org/2000/svg" height="41" id="screenshot-71b04822-b0d5-8031-8006-f0dcc65f6059" viewBox="0 0 42 41" xmlns:xlink="http://www.w3.org/1999/xlink" fill="none" version="1.1"><g id="shape-71b04822-b0d5-8031-8006-f0dcc65f6059" width="24" height="24" rx="0" ry="0" style="fill: rgb(0, 0, 0);"><g id="shape-71b04822-b0d5-8031-8006-f0dcc661c5cc"><g class="fills" id="fills-71b04822-b0d5-8031-8006-f0dcc661c5cc"><path d="M2.6954345703125,17.812255859375L32.802490234375,17.812255859375L19.649169921875,4.6268310546875C18.5980224609375,3.572998046875,18.5980224609375,1.84375,19.649169921875,0.7900390625C20.1527099609375,0.284423828125,20.83642578125,0.0001220703125,21.54931640625,0.0001220703125C22.2623291015625,0.0001220703125,22.9461669921875,0.284423828125,23.449462890625,0.7900390625L41.2119140625,18.5958251953125C41.71630859375,19.1004638671875,42,19.7857666015625,42,20.5006103515625C42,21.2152099609375,41.71630859375,21.900634765625,41.2119140625,22.4053955078125L23.449462890625,40.2110595703125C22.4002685546875,41.2628173828125,20.6986083984375,41.2628173828125,19.649169921875,40.2110595703125C18.5997314453125,39.158935546875,18.5997314453125,37.4534912109375,19.649169921875,36.4012451171875L32.802490234375,23.2159423828125L2.6954345703125,23.2159423828125C1.2127685546875,23.2159423828125,0.0001220703125,22.000244140625,0.0001220703125,20.51416015625C0.0001220703125,19.0279541015625,1.2127685546875,17.812255859375,2.6954345703125,17.812255859375" style="fill: rgb(255, 255, 255); fill-opacity: 1;"/></g></g></g></svg>