<svg width="57" xmlns="http://www.w3.org/2000/svg" height="39" id="screenshot-71b04822-b0d5-8031-8006-f0e352afeabc" viewBox="0 0 57 39" xmlns:xlink="http://www.w3.org/1999/xlink" fill="none" version="1.1"><g id="shape-71b04822-b0d5-8031-8006-f0e352afeabc" width="25" height="25" rx="0" ry="0" style="fill: rgb(0, 0, 0);"><g id="shape-71b04822-b0d5-8031-8006-f0e352b1d871"><defs><linearGradient id="fill-color-gradient-render-2-0" x1="0.5" y1="1" x2="0.4999999999999999" y2="3.0616169978683836e-17" gradientTransform=""><stop offset="0" stop-color="#482200" stop-opacity="1"/><stop offset="1" stop-color="#aa652b" stop-opacity="1"/></linearGradient><pattern patternUnits="userSpaceOnUse" x="0" y="0" width="57" height="39" patternTransform="matrix(1.000000, 0.000000, 0.000000, 1.000000, 0.000000, 0.000000)" id="fill-0-render-2"><g><rect width="57" height="39" style="fill: url(&quot;#fill-color-gradient-render-2-0&quot;);"/></g></pattern></defs><g class="fills" id="fills-71b04822-b0d5-8031-8006-f0e352b1d871"><path d="M40.9495849609375,8.57275390625C40.6553955078125,8.57275390625,40.3748779296875,8.369384765625,40.3748779296875,8.071533203125L40.3748779296875,0.53955078125C40.3748779296875,0.24267578125,40.2156982421875,0,39.9202880859375,0L17.078857421875,0C16.782958984375,0,16.6251220703125,0.24267578125,16.6251220703125,0.53955078125L16.6251220703125,8.071533203125C16.6251220703125,8.369384765625,16.3055419921875,8.53125,16.0086669921875,8.53125L0.533203125,8.53125C0.240966796875,8.53125,0,8.856689453125,0,9.150146484375L0,17.52294921875C0,17.818115234375,0.240966796875,18.28125,0.533203125,18.28125L25.4541015625,18.28125C25.7498779296875,18.28125,26.1248779296875,17.818115234375,26.1248779296875,17.52294921875L26.1248779296875,15.73779296875C26.1248779296875,15.4404296875,26.2342529296875,14.625,26.5286865234375,14.625L30.47216796875,14.625C30.7667236328125,14.625,30.8751220703125,15.4404296875,30.8751220703125,15.73779296875L30.8751220703125,17.52294921875C30.8751220703125,17.818115234375,31.2501220703125,18.28125,31.5435791015625,18.28125L56.46337890625,18.28125C56.7603759765625,18.28125,57,17.818115234375,57,17.52294921875L57,9.150146484375C57,8.85546875,56.7603759765625,8.53125,56.4644775390625,8.53125L40.990234375,8.53125ZM20.298095703125,8.53125C20.00341796875,8.53125,20.1876220703125,8.369384765625,20.1876220703125,8.072998046875L20.1876220703125,3.791259765625C20.1876220703125,3.4931640625,20.00341796875,3.65625,20.298095703125,3.65625L36.701904296875,3.65625C36.99658203125,3.65625,36.8123779296875,3.4931640625,36.8123779296875,3.791259765625L36.8123779296875,8.072998046875C36.8123779296875,8.369384765625,36.99658203125,8.53125,36.701904296875,8.53125ZM30.9400634765625,26.46142578125C30.9400634765625,26.756591796875,30.7667236328125,26.8125,30.47216796875,26.8125L26.5286865234375,26.8125C26.2342529296875,26.8125,26.1248779296875,26.942626953125,26.1248779296875,26.64794921875L26.1248779296875,20.629638671875C26.1248779296875,20.334716796875,25.7498779296875,19.5,25.455322265625,19.5L0.533203125,19.5C0.240966796875,19.5,0,20.334716796875,0,20.629638671875L0,38.458984375C0.00390625,38.758544921875,0.2410888671875,38.99951171875,0.533203125,39L56.4644775390625,39C56.7567138671875,39.00048828125,56.9954833984375,38.76025390625,57,38.46044921875L57,20.629638671875C57,20.334716796875,56.7603759765625,19.5,56.4644775390625,19.5L31.5435791015625,19.5C31.2501220703125,19.5,30.8751220703125,20.334716796875,30.8751220703125,20.629638671875L30.8751220703125,26.64794921875Z" fill="url(#fill-0-render-2)"/></g></g></g></svg>