<svg width="35" xmlns="http://www.w3.org/2000/svg" height="35" id="screenshot-71b04822-b0d5-8031-8006-f0e4e20a564d" viewBox="0 0 35 35" xmlns:xlink="http://www.w3.org/1999/xlink" fill="none" version="1.1"><g id="shape-71b04822-b0d5-8031-8006-f0e4e20a564d" rx="0" ry="0" style="fill: rgb(0, 0, 0);"><g id="shape-71b04822-b0d5-8031-8006-f0e4e20a564e"><g class="fills" id="fills-71b04822-b0d5-8031-8006-f0e4e20a564e"><path d="M0,3.888671875C0,1.7412109375,1.740966796875,0,3.888916015625,0L31.111083984375,0C33.259033203125,0,35,1.7412109375,35,3.888671875L35,31.111328125C35,33.2587890625,33.259033203125,35,31.111083984375,35L3.888916015625,35C1.740966796875,35,0,33.2587890625,0,31.111328125Z" fill="none" stroke-linejoin="round" stroke-linecap="round" style="fill: none;"/></g><g fill="none" stroke-linejoin="round" stroke-linecap="round" id="strokes-6d804e74-0eaa-8012-8006-f4db79994b51-71b04822-b0d5-8031-8006-f0e4e20a564e" class="strokes"><g class="inner-stroke-shape"><defs><clipPath id="inner-stroke-render-2-71b04822-b0d5-8031-8006-f0e4e20a564e-0"><use href="#stroke-shape-render-2-71b04822-b0d5-8031-8006-f0e4e20a564e-0"/></clipPath><path d="M0,3.888671875C0,1.7412109375,1.740966796875,0,3.888916015625,0L31.111083984375,0C33.259033203125,0,35,1.7412109375,35,3.888671875L35,31.111328125C35,33.2587890625,33.259033203125,35,31.111083984375,35L3.888916015625,35C1.740966796875,35,0,33.2587890625,0,31.111328125Z" id="stroke-shape-render-2-71b04822-b0d5-8031-8006-f0e4e20a564e-0" style="fill: none; stroke-width: 6; stroke: rgb(170, 101, 43); stroke-opacity: 1;"/></defs><use href="#stroke-shape-render-2-71b04822-b0d5-8031-8006-f0e4e20a564e-0" clip-path="url('#inner-stroke-render-2-71b04822-b0d5-8031-8006-f0e4e20a564e-0')"/></g></g></g></g></svg>