<svg width="35" xmlns="http://www.w3.org/2000/svg" height="35" id="screenshot-71b04822-b0d5-8031-8006-f0df4e14bee8" viewBox="0 0 35 35" xmlns:xlink="http://www.w3.org/1999/xlink" fill="none" version="1.1"><g id="shape-71b04822-b0d5-8031-8006-f0df4e14bee8" rx="0" ry="0" style="fill: rgb(0, 0, 0);"><g id="shape-71b04822-b0d5-8031-8006-f0df4e14f7ee"><g class="fills" id="fills-71b04822-b0d5-8031-8006-f0df4e14f7ee"><path d="M0,3.888671875C0,1.7412109375,1.740966796875,0,3.888916015625,0L31.111083984375,0C33.259033203125,0,35,1.7412109375,35,3.888671875L35,31.111328125C35,33.2587890625,33.259033203125,35,31.111083984375,35L3.888916015625,35C1.740966796875,35,0,33.2587890625,0,31.111328125Z" fill="none" stroke-linejoin="round" stroke-linecap="round" style="fill: none;"/></g><g fill="none" stroke-linejoin="round" stroke-linecap="round" id="strokes-f1ceb16c-365e-8052-8006-f4db83b4166d-71b04822-b0d5-8031-8006-f0df4e14f7ee" class="strokes"><g class="inner-stroke-shape"><defs><clipPath id="inner-stroke-render-2-71b04822-b0d5-8031-8006-f0df4e14f7ee-0"><use href="#stroke-shape-render-2-71b04822-b0d5-8031-8006-f0df4e14f7ee-0"/></clipPath><path d="M0,3.888671875C0,1.7412109375,1.740966796875,0,3.888916015625,0L31.111083984375,0C33.259033203125,0,35,1.7412109375,35,3.888671875L35,31.111328125C35,33.2587890625,33.259033203125,35,31.111083984375,35L3.888916015625,35C1.740966796875,35,0,33.2587890625,0,31.111328125Z" id="stroke-shape-render-2-71b04822-b0d5-8031-8006-f0df4e14f7ee-0" style="fill: none; stroke-width: 6; stroke: rgb(170, 101, 43); stroke-opacity: 1;"/></defs><use href="#stroke-shape-render-2-71b04822-b0d5-8031-8006-f0df4e14f7ee-0" clip-path="url('#inner-stroke-render-2-71b04822-b0d5-8031-8006-f0df4e14f7ee-0')"/></g></g></g><g id="shape-71b04822-b0d5-8031-8006-f0df4e15bfb7"><g class="fills" id="fills-71b04822-b0d5-8031-8006-f0df4e15bfb7"><path d="M11.6666259765625,15.555419921875L17.5,21.388671875L23.3333740234375,15.555419921875" fill="none" stroke-linejoin="round" stroke-linecap="round" style="fill: none;"/></g><g fill="none" stroke-linejoin="round" stroke-linecap="round" id="strokes-f1ceb16c-365e-8052-8006-f4db83b5073f-71b04822-b0d5-8031-8006-f0df4e15bfb7" class="strokes"><g class="stroke-shape"><path d="M11.6666259765625,15.555419921875L17.5,21.388671875L23.3333740234375,15.555419921875" style="fill: none; stroke-width: 3; stroke: rgb(170, 101, 43); stroke-opacity: 1;"/></g></g></g></g></svg>