<svg width="177" xmlns="http://www.w3.org/2000/svg" height="189" id="screenshot-b527cf84-f825-80eb-8006-f2508e01aa77" viewBox="-32 -32 177 189" xmlns:xlink="http://www.w3.org/1999/xlink" fill="none" version="1.1"><g id="shape-b527cf84-f825-80eb-8006-f2508e01aa77" filter="url(#filter-render-1)" width="24" height="24" rx="0" ry="0" style="fill: rgb(0, 0, 0);"><defs><filter id="filter-render-1" x="-0.30337078651685395" y="-0.26732673267326734" width="1.7415730337078652" height="1.6534653465346534" filterUnits="objectBoundingBox" color-interpolation-filters="sRGB"><feFlood flood-opacity="0" result="BackgroundImageFix"/><feColorMatrix in="SourceAlpha" type="matrix" values="0 0 0 0 0 0 0 0 0 0 0 0 0 0 0 0 0 0 127 0"/><feOffset dx="4" dy="4"/><feGaussianBlur stdDeviation="2"/><feColorMatrix type="matrix" values="0 0 0 0 0 0 0 0 0 0 0 0 0 0 0 0 0 0 0.2 0"/><feBlend mode="normal" in2="BackgroundImageFix" result="filter_b527cf84-f825-80eb-8006-f250a269b2dd"/><feBlend mode="normal" in="SourceGraphic" in2="filter_b527cf84-f825-80eb-8006-f250a269b2dd" result="shape"/></filter><filter id="filter-shadow-render-1" x="-0.30337078651685395" y="-0.26732673267326734" width="1.7415730337078652" height="1.6534653465346534" filterUnits="objectBoundingBox" color-interpolation-filters="sRGB"><feFlood flood-opacity="0" result="BackgroundImageFix"/><feColorMatrix in="SourceAlpha" type="matrix" values="0 0 0 0 0 0 0 0 0 0 0 0 0 0 0 0 0 0 127 0"/><feOffset dx="4" dy="4"/><feGaussianBlur stdDeviation="2"/><feColorMatrix type="matrix" values="0 0 0 0 0 0 0 0 0 0 0 0 0 0 0 0 0 0 0.2 0"/><feBlend mode="normal" in2="BackgroundImageFix" result="filter_b527cf84-f825-80eb-8006-f250a269b2dd"/><feBlend mode="normal" in="SourceGraphic" in2="filter_b527cf84-f825-80eb-8006-f250a269b2dd" result="shape"/></filter></defs><g id="shape-b527cf84-f825-80eb-8006-f2508e01aa78"><g class="fills" id="fills-b527cf84-f825-80eb-8006-f2508e01aa78"><path d="M19.02880859375,9.818359375C19.02880859375,8.5927734375,31.812744140625,0.00048828125,44.5054931640625,0.00048828125C57.1982421875,0.00048828125,69.982421875,8.5927734375,69.982421875,9.818359375C69.982421875,14.19384765625,69.512451171875,16.7861328125,69.1163330078125,18.1962890625C68.853271484375,19.123046875,67.978271484375,19.6357421875,67.007080078125,19.6357421875L22.0042724609375,19.6357421875C21.0330810546875,19.6357421875,20.1580810546875,19.123046875,19.8948974609375,18.1962890625C19.4986572265625,16.7861328125,19.02880859375,14.19384765625,19.02880859375,9.818359375M40.259521484375,8.41552734375C38.6962890625,8.41552734375,37.4287109375,9.671875,37.4287109375,11.220703125C37.4287109375,12.7705078125,38.6962890625,14.0263671875,40.259521484375,14.0263671875L48.7518310546875,14.0263671875C50.3150634765625,14.0263671875,51.5826416015625,12.7705078125,51.5826416015625,11.220703125C51.5826416015625,9.671875,50.3150634765625,8.41552734375,48.7518310546875,8.41552734375ZM21.9676513671875,37.07861328125C12.540771484375,34.18896484375,14.9188232421875,29.02783203125,18.5140380859375,25.24658203125L71.2845458984375,25.24658203125C74.160888671875,28.8876953125,75.7034912109375,33.79931640625,67.0098876953125,36.7392578125C67.1046142578125,37.57177734375,67.151611328125,38.416015625,67.151611328125,39.2724609375C67.1480712890625,47.5498046875,62.546875,55.154296875,55.1796875,59.0546875C47.8134765625,62.95751953125,38.87646484375,62.52294921875,31.93017578125,57.92626953125C24.9833984375,53.32958984375,21.15380859375,45.31640625,21.9676513671875,37.07861328125M43.735595703125,39.2724609375C51.2149658203125,39.2724609375,57.01171875,38.8798828125,61.4564208984375,38.19580078125C61.47900390625,38.55078125,61.4901123046875,38.9091796875,61.4901123046875,39.2724609375C61.4847412109375,45.38671875,58.132568359375,51.01806640625,52.7344970703125,53.98193359375C47.336669921875,56.94482421875,40.7418212890625,56.77197265625,35.508056640625,53.5322265625C30.2745361328125,50.29345703125,27.2254638671875,44.4951171875,27.5440673828125,38.388671875C31.68505859375,38.95556640625,36.99267578125,39.2724609375,43.735595703125,39.2724609375M68.33203125,80.2275390625C63.1292724609375,72.1826171875,54.1488037109375,67.318359375,44.5054931640625,67.32373046875C34.8587646484375,67.3173828125,25.87353515625,72.18359375,20.6710205078125,80.2333984375C19.718505859375,78.7841796875,18.2596435546875,77.736328125,16.57470703125,77.28662109375L11.105224609375,75.83837890625C7.3306884765625,74.8349609375,3.449951171875,77.05419921875,2.437744140625,80.7939453125L0.2412109375,88.92431640625C-0.24462890625,90.7197265625,0.009765625,92.6357421875,0.9483642578125,94.24609375C1.88671875,95.8564453125,3.4329833984375,97.0322265625,5.24609375,97.51416015625L10.7120361328125,98.96630859375C12.5703125,99.4599609375,14.5506591796875,99.18212890625,16.197998046875,98.19775390625C16.2027587890625,99.74658203125,17.473876953125,101.00048828125,19.037109375,100.99462890625C20.600341796875,100.98974609375,21.8643798828125,99.7294921875,21.8597412109375,98.1806640625L21.8597412109375,95.37548828125C21.8597412109375,94.3056640625,21.9327392578125,93.2548828125,22.080078125,92.22607421875L36.8115234375,96.138671875C38.20751953125,99.099609375,41.207763671875,100.99169921875,44.5054931640625,100.99169921875C47.8035888671875,100.99169921875,50.8037109375,99.099609375,52.1998291015625,96.138671875L66.9312744140625,92.22607421875C67.0762939453125,93.2548828125,67.1497802734375,94.3056640625,67.151611328125,95.37548828125L67.151611328125,98.1806640625C67.144287109375,99.7294921875,68.40478515625,100.99267578125,69.96875,101.00048828125C71.531982421875,101.0078125,72.8055419921875,99.7587890625,72.8133544921875,98.20849609375C74.3985595703125,99.15185546875,76.35693359375,99.47998046875,78.28515625,98.96630859375L83.75390625,97.51708984375C85.5672607421875,97.0341796875,87.11328125,95.859375,88.0521240234375,94.24853515625C88.990478515625,92.63720703125,89.2447509765625,90.72265625,88.7589111328125,88.92724609375L86.5592041015625,80.798828125C85.546875,77.05712890625,81.666259765625,74.837890625,77.89111328125,75.84033203125L72.4224853515625,77.29150390625C70.7413330078125,77.736328125,69.2850341796875,78.78125,68.33203125,80.22607421875M23.5665283203125,86.80859375C26.6815185546875,79.349609375,33.5936279296875,74.12109375,41.6746826171875,73.10791015625L41.6746826171875,84.6337890625C39.099853515625,85.53662109375,37.1192626953125,87.61083984375,36.353271484375,90.20947265625ZM65.4447021484375,86.80859375C62.3297119140625,79.349609375,55.41748046875,74.12109375,47.336669921875,73.10791015625L47.336669921875,84.6337890625C49.8956298828125,85.533203125,51.8941650390625,87.60791015625,52.657958984375,90.20947265625ZM44.5054931640625,95.37548828125C46.06884765625,95.37548828125,47.336669921875,94.11962890625,47.336669921875,92.5712890625C47.336669921875,91.021484375,46.06884765625,89.765625,44.5054931640625,89.765625C42.9422607421875,89.765625,41.6746826171875,91.021484375,41.6746826171875,92.5712890625C41.6746826171875,94.11962890625,42.9422607421875,95.37548828125,44.5054931640625,95.37548828125" fill-rule="evenodd" clip-rule="evenodd" style="fill: rgb(255, 255, 255); fill-opacity: 1;"/></g></g></g></svg>