<svg width="43" xmlns="http://www.w3.org/2000/svg" height="31" id="screenshot-b527cf84-f825-80eb-8006-f25021dc78ac" viewBox="0 0 43 31" xmlns:xlink="http://www.w3.org/1999/xlink" fill="none" version="1.1"><g id="shape-b527cf84-f825-80eb-8006-f25021dc78ac" width="18" height="18" rx="0" ry="0" style="fill: rgb(0, 0, 0);"><g id="shape-b527cf84-f825-80eb-8006-f25021dc78ae"><g class="fills" id="fills-b527cf84-f825-80eb-8006-f25021dc78ae"><path d="M-0.0001220703125,22.653417587280273L43,22.653417587280273L43,8.345800399780273L-0.0001220703125,8.345800399780273ZM25.3817138671875,12.759862899780273L26.6146240234375,14.453222274780273L28.6092529296875,13.806737899780273L27.3763427734375,15.500097274780273L28.6092529296875,17.192480087280273L26.6146240234375,16.546483993530273L25.3817138671875,18.239843368530273L25.3817138671875,16.146093368530273L23.3870849609375,15.500097274780273L25.3817138671875,14.852636337280273ZM21.4998779296875,11.625097274780273C22.5775146484375,11.625097274780273,23.5521240234375,12.063573837280273,24.2554931640625,12.770605087280273C23.6832275390625,12.355566024780273,22.9935302734375,12.131933212280273,22.2857666015625,12.132909774780273C20.8248291015625,12.129980087280273,19.5284423828125,13.066503524780273,19.0740966796875,14.452733993530273C18.6199951171875,15.838964462280273,19.1109619140625,17.359472274780273,20.2908935546875,18.218847274780273C21.4710693359375,19.079198837280273,23.0714111328125,19.083105087280273,24.2554931640625,18.229101181030273C23.0167236328125,19.475683212280273,21.0931396484375,19.734472274780273,19.5677490234375,18.860448837280273C18.0421142578125,17.986913681030273,17.2957763671875,16.198339462280273,17.7489013671875,14.501562118530273C18.2017822265625,12.805273056030273,19.7408447265625,11.625097274780273,21.4998779296875,11.625097274780273" style="fill: rgb(20, 20, 20);"/></g></g><g id="shape-b527cf84-f825-80eb-8006-f25021dc78af"><g class="fills" id="fills-b527cf84-f825-80eb-8006-f25021dc78af"><path d="M38.22216796875,0.00009765625145519152L4.7777099609375,0.00009765625145519152C2.1387939453125,0.00009765625145519152,-0.0001220703125,2.1348633766174316,-0.0001220703125,4.769140720367432L-0.0001220703125,8.345800399780273L43,8.345800399780273L43,4.769140720367432C43,2.1348633766174316,40.861083984375,0.00009765625145519152,38.22216796875,0.00009765625145519152" style="fill: rgb(231, 0, 19);"/></g></g><g id="shape-b527cf84-f825-80eb-8006-f25021dc78b0"><g class="fills" id="fills-b527cf84-f825-80eb-8006-f25021dc78b0"><path d="M38.22216796875,31.000097274780273L4.7777099609375,31.000097274780273C2.1387939453125,31.000097274780273,-0.0001220703125,28.864355087280273,-0.0001220703125,26.230566024780273L-0.0001220703125,22.653417587280273L43,22.653417587280273L43,26.230566024780273C43,28.864355087280273,40.861083984375,31.000097274780273,38.22216796875,31.000097274780273" style="fill: rgb(35, 158, 70);"/></g></g><g id="shape-b527cf84-f825-80eb-8006-f25021dc78b1"><g class="fills" id="fills-b527cf84-f825-80eb-8006-f25021dc78b1"><path d="M21.4998779296875,19.375097274780273C22.5775146484375,19.375097274780273,23.5521240234375,18.936132431030273,24.2554931640625,18.229101181030273C23.6832275390625,18.644140243530273,22.9935302734375,18.867773056030273,22.2857666015625,18.866796493530273C20.8248291015625,18.869237899780273,19.5284423828125,17.932714462280273,19.0740966796875,16.546972274780273C18.6199951171875,15.160741806030273,19.1109619140625,13.640233993530273,20.2908935546875,12.780370712280273C21.4710693359375,11.920507431030273,23.0714111328125,11.916112899780273,24.2554931640625,12.770605087280273C23.0167236328125,11.524023056030273,21.0931396484375,11.264745712280273,19.5677490234375,12.138769149780273C18.0421142578125,13.012792587280273,17.2957763671875,14.801855087280273,17.7489013671875,16.498144149780273C18.2017822265625,18.194433212280273,19.7408447265625,19.375097274780273,21.4998779296875,19.375097274780273" style="fill: rgb(255, 255, 255);"/></g></g><g id="shape-b527cf84-f825-80eb-8006-f25021dc78b2"><g class="fills" id="fills-b527cf84-f825-80eb-8006-f25021dc78b2"><path d="M25.3817138671875,16.146093368530273L25.3817138671875,18.239843368530273L26.6146240234375,16.546483993530273L28.6092529296875,17.192480087280273L27.3763427734375,15.500097274780273L28.6092529296875,13.806737899780273L26.6146240234375,14.453222274780273L25.3817138671875,12.759862899780273L25.3817138671875,14.852636337280273L23.3870849609375,15.500097274780273Z" style="fill: rgb(255, 255, 255);"/></g></g></g></svg>