<svg width="286" xmlns="http://www.w3.org/2000/svg" height="126" id="screenshot-95934b4a-61fb-80d3-8006-fee028876ad0" viewBox="-27 -27 286 126" xmlns:xlink="http://www.w3.org/1999/xlink" fill="none" version="1.1"><g id="shape-95934b4a-61fb-80d3-8006-fee028876ad0" rx="0" ry="0"><g id="shape-329950f3-4367-803f-8006-f2590e7a2cf0"><defs><filter id="filter-render-2" x="-0.12272727272727273" y="-0.45" width="1.3" height="2.1" filterUnits="objectBoundingBox" color-interpolation-filters="sRGB"><feFlood flood-opacity="0" result="BackgroundImageFix"/><feColorMatrix in="SourceAlpha" type="matrix" values="0 0 0 0 0 0 0 0 0 0 0 0 0 0 0 0 0 0 127 0"/><feOffset dx="4" dy="4"/><feGaussianBlur stdDeviation="2"/><feColorMatrix type="matrix" values="0 0 0 0 0 0 0 0 0 0 0 0 0 0 0 0 0 0 0.2 0"/><feBlend mode="normal" in2="BackgroundImageFix" result="filter_71b04822-b0d5-8031-8006-f0df7e8cfde2"/><feBlend mode="normal" in="SourceGraphic" in2="filter_71b04822-b0d5-8031-8006-f0df7e8cfde2" result="shape"/></filter><filter id="filter-shadow-render-2" x="-0.12272727272727273" y="-0.45" width="1.3" height="2.1" filterUnits="objectBoundingBox" color-interpolation-filters="sRGB"><feFlood flood-opacity="0" result="BackgroundImageFix"/><feColorMatrix in="SourceAlpha" type="matrix" values="0 0 0 0 0 0 0 0 0 0 0 0 0 0 0 0 0 0 127 0"/><feOffset dx="4" dy="4"/><feGaussianBlur stdDeviation="2"/><feColorMatrix type="matrix" values="0 0 0 0 0 0 0 0 0 0 0 0 0 0 0 0 0 0 0.2 0"/><feBlend mode="normal" in2="BackgroundImageFix" result="filter_71b04822-b0d5-8031-8006-f0df7e8cfde2"/><feBlend mode="normal" in="SourceGraphic" in2="filter_71b04822-b0d5-8031-8006-f0df7e8cfde2" result="shape"/></filter></defs><g class="fills" id="fills-329950f3-4367-803f-8006-f2590e7a2cf0"><rect width="220" height="60" x="0" transform="matrix(1.000000, 0.000000, 0.000000, 1.000000, 0.000000, 0.000000)" style="fill: rgb(255, 255, 255); fill-opacity: 1;" ry="10" rx="10" filter="url(#filter-render-2)" y="0"/></g><g id="strokes-ff0ab29a-d205-809e-8006-fee08f833823-329950f3-4367-803f-8006-f2590e7a2cf0" class="strokes"><g class="inner-stroke-shape" transform="matrix(1.000000, 0.000000, 0.000000, 1.000000, 0.000000, 0.000000)"><defs><clipPath id="inner-stroke-render-2-329950f3-4367-803f-8006-f2590e7a2cf0-0"><use href="#stroke-shape-render-2-329950f3-4367-803f-8006-f2590e7a2cf0-0"/></clipPath><rect rx="10" ry="10" x="0" y="0" width="220" height="60" id="stroke-shape-render-2-329950f3-4367-803f-8006-f2590e7a2cf0-0" style="fill: none; stroke-width: 3; stroke: rgb(78, 78, 78); stroke-opacity: 1;"/></defs><use href="#stroke-shape-render-2-329950f3-4367-803f-8006-f2590e7a2cf0-0" clip-path="url('#inner-stroke-render-2-329950f3-4367-803f-8006-f2590e7a2cf0-0')"/></g></g></g><g id="shape-329950f3-4367-803f-8006-f2590e7a2cf2" width="24" height="24" rx="0" ry="0" style="fill: rgb(0, 0, 0);"><g id="shape-329950f3-4367-803f-8006-f2590e7a2cf3"><g class="fills" id="fills-329950f3-4367-803f-8006-f2590e7a2cf3"><path d="M23.51025390625,17C23.9615478515625,17,24.3946533203125,17.17138671875,24.7137451171875,17.47607421875L31.522216796875,23.97607421875C32.167236328125,24.6142578125,32.1580810546875,25.62744140625,31.50146484375,26.25390625C30.8448486328125,26.88134765625,29.7833251953125,26.8896484375,29.1153564453125,26.27392578125L23.51025390625,20.9228515625L17.9052734375,26.27392578125C17.2371826171875,26.8896484375,16.1756591796875,26.88134765625,15.5191650390625,26.25390625C14.862548828125,25.62744140625,14.853271484375,24.6142578125,15.498291015625,23.97607421875L22.306884765625,17.47607421875C22.6259765625,17.17138671875,23.0589599609375,17,23.51025390625,17M15.498291015625,33.7265625C16.1629638671875,33.09228515625,17.2406005859375,33.09228515625,17.9052734375,33.7265625L23.51025390625,39.07763671875L29.1153564453125,33.7265625C29.7833251953125,33.11083984375,30.8448486328125,33.119140625,31.50146484375,33.74609375C32.1580810546875,34.373046875,32.167236328125,35.38623046875,31.522216796875,36.0244140625L24.7137451171875,42.5244140625C24.049072265625,43.158203125,22.971435546875,43.158203125,22.306884765625,42.5244140625L15.498291015625,36.0244140625C14.8338623046875,35.3896484375,14.8338623046875,34.361328125,15.498291015625,33.7265625" style="fill: rgb(170, 101, 43); fill-opacity: 1;"/></g></g></g></g></svg>