<svg width="286" xmlns="http://www.w3.org/2000/svg" height="126" id="screenshot-95934b4a-61fb-80d3-8006-fedfdc03835a" viewBox="-27 -27 286 126" xmlns:xlink="http://www.w3.org/1999/xlink" fill="none" version="1.1"><g id="shape-95934b4a-61fb-80d3-8006-fedfdc03835a" rx="0" ry="0"><g id="shape-b527cf84-f825-80eb-8006-f25457205dbd"><defs><filter id="filter-render-2" x="-0.12272727272727273" y="-0.45" width="1.3" height="2.1" filterUnits="objectBoundingBox" color-interpolation-filters="sRGB"><feFlood flood-opacity="0" result="BackgroundImageFix"/><feColorMatrix in="SourceAlpha" type="matrix" values="0 0 0 0 0 0 0 0 0 0 0 0 0 0 0 0 0 0 127 0"/><feOffset dx="4" dy="4"/><feGaussianBlur stdDeviation="2"/><feColorMatrix type="matrix" values="0 0 0 0 0 0 0 0 0 0 0 0 0 0 0 0 0 0 0.2 0"/><feBlend mode="normal" in2="BackgroundImageFix" result="filter_71b04822-b0d5-8031-8006-f0df7e8cfde2"/><feBlend mode="normal" in="SourceGraphic" in2="filter_71b04822-b0d5-8031-8006-f0df7e8cfde2" result="shape"/></filter><filter id="filter-shadow-render-2" x="-0.12272727272727273" y="-0.45" width="1.3" height="2.1" filterUnits="objectBoundingBox" color-interpolation-filters="sRGB"><feFlood flood-opacity="0" result="BackgroundImageFix"/><feColorMatrix in="SourceAlpha" type="matrix" values="0 0 0 0 0 0 0 0 0 0 0 0 0 0 0 0 0 0 127 0"/><feOffset dx="4" dy="4"/><feGaussianBlur stdDeviation="2"/><feColorMatrix type="matrix" values="0 0 0 0 0 0 0 0 0 0 0 0 0 0 0 0 0 0 0.2 0"/><feBlend mode="normal" in2="BackgroundImageFix" result="filter_71b04822-b0d5-8031-8006-f0df7e8cfde2"/><feBlend mode="normal" in="SourceGraphic" in2="filter_71b04822-b0d5-8031-8006-f0df7e8cfde2" result="shape"/></filter></defs><g class="fills" id="fills-b527cf84-f825-80eb-8006-f25457205dbd"><rect width="220" height="60" x="0" transform="matrix(1.000000, 0.000000, 0.000000, 1.000000, 0.000000, 0.000000)" style="fill: rgb(255, 255, 255); fill-opacity: 1;" ry="10" rx="10" filter="url(#filter-render-2)" y="0"/></g><g id="strokes-7dcb9515-7c58-8019-8006-fee08447ba8a-b527cf84-f825-80eb-8006-f25457205dbd" class="strokes"><g class="inner-stroke-shape" transform="matrix(1.000000, 0.000000, 0.000000, 1.000000, 0.000000, 0.000000)"><defs><clipPath id="inner-stroke-render-2-b527cf84-f825-80eb-8006-f25457205dbd-0"><use href="#stroke-shape-render-2-b527cf84-f825-80eb-8006-f25457205dbd-0"/></clipPath><rect rx="10" ry="10" x="0" y="0" width="220" height="60" id="stroke-shape-render-2-b527cf84-f825-80eb-8006-f25457205dbd-0" style="fill: none; stroke-width: 3; stroke: rgb(78, 78, 78); stroke-opacity: 1;"/></defs><use href="#stroke-shape-render-2-b527cf84-f825-80eb-8006-f25457205dbd-0" clip-path="url('#inner-stroke-render-2-b527cf84-f825-80eb-8006-f25457205dbd-0')"/></g></g></g><g id="shape-b527cf84-f825-80eb-8006-f25457205dcc" width="24" height="24" rx="0" ry="0" style="fill: rgb(0, 0, 0);"><g id="shape-b527cf84-f825-80eb-8006-f25457205dea"><g class="fills" id="fills-b527cf84-f825-80eb-8006-f25457205dea"><path d="M23.51025390625,17.00016212463379C23.9615478515625,17.00016212463379,24.3946533203125,17.17154884338379,24.7137451171875,17.47623634338379L31.522216796875,23.97623634338379C32.167236328125,24.61441993713379,32.1580810546875,25.62760353088379,31.50146484375,26.25406837463379C30.8448486328125,26.88150978088379,29.7833251953125,26.88981056213379,29.1153564453125,26.27408790588379L23.51025390625,20.92301368713379L17.9052734375,26.27408790588379C17.2371826171875,26.88981056213379,16.1756591796875,26.88150978088379,15.5191650390625,26.25406837463379C14.862548828125,25.62760353088379,14.853271484375,24.61441993713379,15.498291015625,23.97623634338379L22.306884765625,17.47623634338379C22.6259765625,17.17154884338379,23.0589599609375,17.00016212463379,23.51025390625,17.00016212463379M15.498291015625,33.72672653198242C16.1629638671875,33.09244918823242,17.2406005859375,33.09244918823242,17.9052734375,33.72672653198242L23.51025390625,39.07780075073242L29.1153564453125,33.72672653198242C29.7833251953125,33.11100387573242,30.8448486328125,33.11930465698242,31.50146484375,33.74625778198242C32.1580810546875,34.37321090698242,32.167236328125,35.38639450073242,31.522216796875,36.02457809448242L24.7137451171875,42.52457809448242C24.049072265625,43.15836715698242,22.971435546875,43.15836715698242,22.306884765625,42.52457809448242L15.498291015625,36.02457809448242C14.8338623046875,35.38981246948242,14.8338623046875,34.36149215698242,15.498291015625,33.72672653198242" style="fill: rgb(170, 101, 43); fill-opacity: 1;"/></g></g></g></g></svg>