<svg width="155" xmlns="http://www.w3.org/2000/svg" height="131" id="screenshot-b527cf84-f825-80eb-8006-f24811616805" viewBox="0 0 155 131" xmlns:xlink="http://www.w3.org/1999/xlink" fill="none" version="1.1"><g id="shape-b527cf84-f825-80eb-8006-f24811616805" width="24" height="24" rx="0" ry="0" style="fill: rgb(0, 0, 0);"><g id="shape-b527cf84-f825-80eb-8006-f24811658a64"><defs><linearGradient id="fill-color-gradient-render-2-0" x1="0.5" y1="1" x2="0.4999999999999999" y2="3.0616169978683836e-17" gradientTransform=""><stop offset="0" stop-color="#482200" stop-opacity="1"/><stop offset="1" stop-color="#aa652b" stop-opacity="1"/></linearGradient><pattern patternUnits="userSpaceOnUse" x="0" y="0" width="155.0000000000009" height="131" patternTransform="matrix(1.000000, 0.000000, 0.000000, 1.000000, 0.000000, 0.000000)" id="fill-0-render-2"><g><rect width="155.0000000000009" height="131" style="fill: url(&quot;#fill-color-gradient-render-2-0&quot;);"/></g></pattern></defs><g class="fills" id="fills-b527cf84-f825-80eb-8006-f24811658a64"><path d="M143.872314453125,67.48486328125L155,78.6787109375L103.094482421875,131L75.512939453125,103.212158203125L86.640380859375,92.01806640625L103.094482421875,108.531005859375ZM55.64111328125,103.212158203125L79.487060546875,127.0302734375L4.547473508864641e-13,127.0302734375L4.547473508864641e-13,111.151611328125C4.547473508864641e-13,93.605712890625,28.45703125,79.39404296875,63.58984375,79.39404296875L78.61181640625,80.268310546875ZM63.58984375,0C81.150146484375,0,95.384521484375,14.2177734375,95.384521484375,31.757568359375C95.384521484375,49.29736328125,81.150146484375,63.51513671875,63.58984375,63.51513671875C46.029296875,63.51513671875,31.794921875,49.29736328125,31.794921875,31.757568359375C31.794921875,14.2177734375,46.029296875,0,63.58984375,0" fill="url(#fill-0-render-2)"/></g></g></g></svg>