<svg width="282" xmlns="http://www.w3.org/2000/svg" height="135" id="screenshot-eba6a2a3-4eff-8064-8006-f0d0189180a9" viewBox="0 0 282 135" xmlns:xlink="http://www.w3.org/1999/xlink" fill="none" version="1.1"><g id="shape-eba6a2a3-4eff-8064-8006-f0d0189180a9" rx="0" ry="0"><g id="shape-eba6a2a3-4eff-8064-8006-f0cfb016868a"><g class="fills" id="fills-eba6a2a3-4eff-8064-8006-f0cfb016868a"><path d="M230.46435546875,16.75994873046875C218.3153076171875,16.75994873046875,208.4686279296875,26.6033935546875,208.4686279296875,38.74847412109375C208.4686279296875,50.8934326171875,218.3153076171875,60.7369384765625,230.46435546875,60.7369384765625C242.61328125,60.7369384765625,252.4599609375,50.8934326171875,252.4599609375,38.74847412109375C252.4599609375,26.6033935546875,242.61328125,16.75994873046875,230.46435546875,16.75994873046875ZM230.46435546875,54.009521484375C222.034423828125,54.009521484375,215.1983642578125,47.1756591796875,215.1983642578125,38.74847412109375C215.1983642578125,30.3212890625,222.034423828125,23.4874267578125,230.46435546875,23.4874267578125C238.894287109375,23.4874267578125,245.7301025390625,30.3212890625,245.7301025390625,38.74847412109375C245.7301025390625,47.1756591796875,238.894287109375,54.009521484375,230.46435546875,54.009521484375Z" class="cls-2" style="fill: rgb(170, 102, 44); fill-opacity: 1;"/></g></g><g id="shape-eba6a2a3-4eff-8064-8006-f0cfb016868b"><g class="fills" id="fills-eba6a2a3-4eff-8064-8006-f0cfb016868b"><path d="M266.97021484375,15.02496337890625C257.6785888671875,5.7362060546875,244.8446044921875,0.00006103515625,230.6767578125,0.00006103515625C202.3292236328125,0.00006103515625,179.3536376953125,22.96820068359375,179.3536376953125,51.306640625L179.3536376953125,83.6932373046875C179.3536376953125,112.03173828125,202.3292236328125,134.9998779296875,230.6767578125,134.9998779296875C259.0244140625,134.9998779296875,282,112.03173828125,282,83.6932373046875L282,51.306640625C282,37.13153076171875,276.250244140625,24.313720703125,266.97021484375,15.02496337890625ZM262.873291015625,114.77001953125C261.0550537109375,116.6468505859375,259.059814453125,118.3463134765625,256.9464111328125,119.8807373046875C254.9984130859375,121.28515625,252.92041015625,122.5482177734375,250.7479248046875,123.6220703125C244.71484375,126.6436767578125,237.902587890625,128.3314208984375,230.6885986328125,128.3314208984375C223.4747314453125,128.3314208984375,216.1666259765625,126.5137939453125,209.9681396484375,123.2916259765625C207.74853515625,122.135009765625,205.6351318359375,120.813232421875,203.6634521484375,119.314208984375C201.6917724609375,117.8388671875,199.849853515625,116.1981201171875,198.14971923828125,114.4158935546875C193.67498779296875,109.730224609375,190.203857421875,104.0885009765625,188.0787353515625,97.809326171875C187.40570068359375,95.802978515625,186.86260986328125,93.7374267578125,186.4730224609375,91.624755859375C186.1070556640625,89.6773681640625,185.87091064453125,87.6708984375,185.77642822265625,85.640869140625C185.72918701171875,84.8853759765625,185.7174072265625,84.130126953125,185.7174072265625,83.36279296875L185.7174072265625,51.63720703125C185.7174072265625,26.8040771484375,205.859375,6.66851806640625,230.700439453125,6.66851806640625C243.1209716796875,6.66851806640625,254.36083984375,11.696533203125,262.5074462890625,19.8404541015625C270.64208984375,27.9725341796875,275.68359375,39.22064208984375,275.68359375,51.63720703125L275.68359375,83.36279296875C275.68359375,84.3660888671875,275.6480712890625,85.357666015625,275.5889892578125,86.3370361328125C275.4591064453125,88.3201904296875,275.199462890625,90.2674560546875,274.821533203125,92.1678466796875C274.4083251953125,94.2569580078125,273.8416748046875,96.298828125,273.1451416015625,98.269775390625C270.9490966796875,104.5135498046875,267.4189453125,110.131591796875,262.8851318359375,114.77001953125Z" class="cls-1" style="fill: rgb(0, 0, 0); fill-opacity: 1;"/></g></g><g id="shape-eba6a2a3-4eff-8064-8006-f0cfb016868c"><defs><linearGradient id="fill-color-gradient-render-4-0" x1="0.5" y1="1" x2="0.4999999999999999" y2="3.0616169978683836e-17" gradientTransform=""><stop offset="0" stop-color="#482200" stop-opacity="1"/><stop offset="1" stop-color="#aa652b" stop-opacity="1"/></linearGradient><pattern patternUnits="userSpaceOnUse" x="185.6819614962992" y="63.90015392192754" width="89.97787881379054" height="64.4312746197711" patternTransform="matrix(1.000000, 0.000000, 0.000000, 1.000000, 0.000000, 0.000000)" id="fill-0-render-4"><g><rect width="89.97787881379054" height="64.4312746197711" style="fill: url(&quot;#fill-color-gradient-render-4-0&quot;);"/></g></pattern></defs><g class="fills" id="fills-eba6a2a3-4eff-8064-8006-f0cfb016868c"><path d="M271.9879150390625,71.8199462890625C273.26318359375,72.09130859375,274.479248046875,72.4100341796875,275.659912109375,72.763916015625L275.659912109375,65.6116943359375C270.1107177734375,64.5491943359375,262.4482421875,63.7467041015625,253.4398193359375,64.7734375C243.19189453125,65.94189453125,235.18701171875,69.046142578125,230.0511474609375,71.501220703125C224.1478271484375,68.52685546875,214.0767822265625,64.4549560546875,201.0777587890625,63.947265625C200.1922607421875,63.911865234375,199.318603515625,63.9000244140625,198.45672607421875,63.9000244140625C193.6513671875,63.9000244140625,189.35382080078125,64.40771484375,185.69378662109375,65.0921630859375L185.69378662109375,72.185546875C190.8768310546875,71.0289306640625,198.0316162109375,70.1201171875,206.414306640625,71.0880126953125C213.734375,71.937744140625,219.673095703125,73.9560546875,223.887939453125,75.7618408203125C222.034423828125,77.3790283203125,220.1690673828125,78.995849609375,218.303466796875,80.60107421875C214.4781494140625,79.1375732421875,208.8582763671875,77.46142578125,201.880615234375,77.0721435546875C195.35162353515625,76.7061767578125,189.802490234375,77.57958984375,185.68194580078125,78.6065673828125L185.68194580078125,83.36279296875C185.68194580078125,84.130126953125,185.69378662109375,84.8853759765625,185.74102783203125,85.640869140625C189.1295166015625,84.6729736328125,193.39166259765625,83.8232421875,198.3504638671875,83.634521484375C204.4661865234375,83.4100341796875,209.5667724609375,84.283447265625,213.203125,85.1922607421875C211.8099365234375,86.9981689453125,210.416748046875,88.803955078125,209.0235595703125,90.60986328125C204.182861328125,89.6064453125,197.27606201171875,88.922119140625,189.48370361328125,90.77490234375C188.421142578125,91.022705078125,187.40570068359375,91.3062744140625,186.43756103515625,91.624755859375C186.82720947265625,93.7374267578125,187.370361328125,95.802978515625,188.04327392578125,97.809326171875C190.92413330078125,97.1368408203125,194.24169921875,96.5821533203125,197.93719482421875,96.357666015625C200.5228271484375,96.204345703125,202.90771484375,96.2279052734375,205.0802001953125,96.357666015625C203.3682861328125,99.52099609375,201.5972900390625,103.333251953125,200.07421875,107.75927734375C199.27130126953125,110.0843505859375,198.6219482421875,112.31494140625,198.1260986328125,114.404052734375C199.82623291015625,116.186279296875,201.6680908203125,117.8270263671875,203.639892578125,119.3023681640625C204.312744140625,115.5843505859375,205.4697265625,111.2174072265625,207.4652099609375,106.53173828125C208.8345947265625,103.3095703125,210.3458251953125,100.5240478515625,211.8099365234375,98.1634521484375C213.6990966796875,99.214111328125,215.588134765625,100.264404296875,217.47705078125,101.3150634765625C215.7178955078125,103.9351806640625,213.5572509765625,107.75927734375,211.9752197265625,112.6927490234375C210.6883544921875,116.6937255859375,210.145263671875,120.3409423828125,209.9444580078125,123.2916259765625C216.1429443359375,126.5137939453125,223.19140625,128.3314208984375,230.6649169921875,128.3314208984375C238.1385498046875,128.3314208984375,244.679443359375,126.6436767578125,250.724365234375,123.6220703125C250.44091796875,119.1488037109375,249.4256591796875,113.3065185546875,246.450439453125,107.1927490234375C245.44677734375,105.1273193359375,244.348876953125,103.2978515625,243.2508544921875,101.6925048828125C243.9473876953125,101.1024169921875,244.8446044921875,100.4298095703125,245.95458984375,99.80419921875C247.14697265625,99.13134765625,248.2449951171875,98.694580078125,249.154052734375,98.4112548828125C249.26025390625,98.5885009765625,251.385498046875,102.5894775390625,252.9322509765625,106.283935546875C254.951171875,111.111083984375,255.9075927734375,115.195068359375,256.3797607421875,117.283935546875C256.59228515625,118.21630859375,256.7694091796875,119.077880859375,256.9227294921875,119.8807373046875C259.0479736328125,118.3463134765625,261.0316162109375,116.6468505859375,262.8497314453125,114.77001953125C262.1885986328125,112.1617431640625,261.2794189453125,109.234619140625,259.9925537109375,106.1185302734375C258.43408203125,102.3416748046875,256.6866455078125,99.1668701171875,255.0692138671875,96.605712890625C257.4896240234375,96.1688232421875,260.8662109375,95.83837890625,264.833251953125,96.2752685546875C268.0919189453125,96.640869140625,270.878173828125,97.431884765625,273.109619140625,98.2816162109375C273.80615234375,96.3106689453125,274.361083984375,94.2685546875,274.7862548828125,92.1796875C271.468505859375,91.022705078125,267.1473388671875,89.9488525390625,262.046875,89.724609375C258.04443359375,89.54736328125,254.5614013671875,89.93701171875,251.7869873046875,90.468017578125C251.3382568359375,89.748291015625,250.736083984375,88.9102783203125,249.933349609375,88.060546875C248.965087890625,87.021728515625,247.9970703125,86.254638671875,247.182373046875,85.7115478515625C252.67236328125,84.1064453125,257.3597412109375,83.705078125,260.641845703125,83.6578369140625C263.723388671875,83.61083984375,267.5015869140625,83.5872802734375,272.1297607421875,85.05078125C273.428466796875,85.4637451171875,274.5736083984375,85.9241943359375,275.5299072265625,86.348876953125C275.600830078125,85.3695068359375,275.62451171875,84.3779296875,275.62451171875,83.3746337890625L275.62451171875,79.5386962890625C270.1697998046875,77.8037109375,261.50390625,76.021484375,251.5272216796875,78.1578369140625C248.2449951171875,78.8543701171875,245.3642578125,79.869140625,242.908447265625,80.9434814453125C240.83056640625,79.302734375,238.7525634765625,77.6622314453125,236.674560546875,76.021484375C242.55419921875,73.377685546875,255.978271484375,68.3614501953125,271.9644775390625,71.84326171875ZM230.73583984375,79.20849609375C232.5777587890625,80.565673828125,234.4195556640625,81.9110107421875,236.26123046875,83.2685546875C234.2896728515625,84.625732421875,232.31787109375,85.971435546875,230.35791015625,87.32861328125C228.610595703125,85.93603515625,226.8514404296875,84.5430908203125,225.1041259765625,83.150390625C226.9814453125,81.8404541015625,228.858642578125,80.5184326171875,230.73583984375,79.20849609375ZM221.4322509765625,96.10986328125C219.4368896484375,95.1773681640625,217.441650390625,94.2569580078125,215.4464111328125,93.324462890625C216.95751953125,91.4949951171875,218.45703125,89.66552734375,219.9564208984375,87.82421875C222.034423828125,88.94580078125,224.1124267578125,90.06689453125,226.1903076171875,91.1881103515625C224.6082763671875,92.82861328125,223.0142822265625,94.4693603515625,221.4322509765625,96.10986328125ZM230.8538818359375,105.056396484375C229.3544921875,103.4393310546875,227.866943359375,101.822509765625,226.3792724609375,100.2171630859375C227.748779296875,98.600341796875,229.1065673828125,96.983154296875,230.4761962890625,95.378173828125C231.9874267578125,96.7708740234375,233.4866943359375,98.1634521484375,234.9862060546875,99.556396484375C233.6165771484375,101.3856201171875,232.2353515625,103.215087890625,230.8538818359375,105.056396484375ZM241.397216796875,87.82421875C242.896728515625,89.6536865234375,244.4078369140625,91.4832763671875,245.9072265625,93.324462890625C243.9119873046875,94.2569580078125,241.9166259765625,95.189208984375,239.92138671875,96.10986328125C238.327392578125,94.4693603515625,236.745361328125,92.82861328125,235.163330078125,91.1881103515625C237.2413330078125,90.06689453125,239.3192138671875,88.94580078125,241.397216796875,87.82421875Z" fill="url(#fill-color-gradient-render-4-0)" class="cls-2"/></g></g><g id="shape-eba6a2a3-4eff-8064-8006-f0cfb016868d"><g class="fills" id="fills-eba6a2a3-4eff-8064-8006-f0cfb016868d"><rect width="13.518525494458117" height="10.232994842054723" class="cls-2" x="78.63177310536526" transform="matrix(1.000000, 0.000000, 0.000000, 1.000000, 0.000000, 0.000000)" style="fill: rgb(170, 102, 44); fill-opacity: 1;" ry="0" rx="0" y="22.531475953601102"/></g></g><g id="shape-eba6a2a3-4eff-8064-8006-f0cfb016868e"><g class="fills" id="fills-eba6a2a3-4eff-8064-8006-f0cfb016868e"><path d="M125.43304443359375,67.3702392578125L108.86846923828125,67.3702392578125L108.86846923828125,59.9462890625C108.86846923828125,55.732666015625,107.84130859375,52.097412109375,105.786865234375,49.05224609375C103.7325439453125,46.0072021484375,100.94622802734375,43.64666748046875,97.42779541015625,41.982421875C93.90948486328125,40.31817626953125,89.90704345703125,39.480224609375,85.432373046875,39.480224609375C83.29534912109375,39.480224609375,81.14654541015625,39.6455078125,78.9859619140625,39.9876708984375C76.82537841796875,40.33001708984375,74.6175537109375,40.7548828125,72.3861083984375,41.2742919921875L73.554931640625,51.825927734375C75.7391357421875,51.51904296875,77.72271728515625,51.294921875,79.49371337890625,51.1650390625C81.26470947265625,51.03515625,82.66961669921875,50.96435546875,83.70855712890625,50.96435546875C87.8763427734375,50.96435546875,90.87518310546875,51.7314453125,92.69342041015625,53.2657470703125C94.5115966796875,54.8001708984375,95.43255615234375,57.031005859375,95.43255615234375,59.9462890625L95.43255615234375,67.3702392578125L59.02105712890625,67.3702392578125L59.02105712890625,61.5867919921875C59.02105712890625,58.4591064453125,58.60784912109375,55.5556640625,57.76959228515625,52.8763427734375C56.9312744140625,50.197021484375,55.6798095703125,47.848388671875,54.01507568359375,45.84197998046875C52.35040283203125,43.83538818359375,50.2606201171875,42.27752685546875,47.75762939453125,41.15631103515625C45.254638671875,40.03497314453125,42.36199951171875,39.480224609375,39.07977294921875,39.480224609375C35.79754638671875,39.480224609375,32.9403076171875,39.952392578125,30.51995849609375,40.88470458984375C28.09967041015625,41.81719970703125,25.8681640625,43.19818115234375,23.8375244140625,45.0274658203125C22.2672119140625,46.43212890625,20.708740234375,48.07275390625,19.1502685546875,49.9375L19.1502685546875,24.08941650390625L5.71435546875,24.08941650390625L5.71435546875,67.3702392578125L0.16534423828125,67.3702392578125L0.16534423828125,78.7716064453125L138.868896484375,78.7716064453125L138.868896484375,24.08941650390625L125.43304443359375,24.08941650390625L125.43304443359375,67.3702392578125ZM19.16204833984375,62.2950439453125C19.528076171875,61.858154296875,19.9058837890625,61.4097900390625,20.2955322265625,60.961181640625C21.78314208984375,59.238037109375,23.4124755859375,57.6329345703125,25.1834716796875,56.1221923828125C26.9544677734375,54.611328125,28.85528564453125,53.3602294921875,30.885986328125,52.3687744140625C32.916748046875,51.37744140625,35.03009033203125,50.8818359375,37.21435546875,50.8818359375C38.8790283203125,50.8818359375,40.34307861328125,51.223876953125,41.59454345703125,51.896728515625C42.8460693359375,52.5694580078125,43.82598876953125,53.678955078125,44.52264404296875,55.21337890625C45.23101806640625,56.747802734375,45.5733642578125,58.8720703125,45.5733642578125,61.574951171875L45.5733642578125,67.3583984375L19.16204833984375,67.3583984375L19.16204833984375,62.283203125Z" class="cls-2" style="fill: rgb(170, 102, 44); fill-opacity: 1;"/></g></g><g id="shape-eba6a2a3-4eff-8064-8006-f0cfb016868f"><g class="fills" id="fills-eba6a2a3-4eff-8064-8006-f0cfb016868f"><rect width="13.365040052163067" height="54.682197350909746" class="cls-2" x="150.75812441160474" transform="matrix(1.000000, 0.000000, 0.000000, 1.000000, 0.000000, 0.000000)" style="fill: rgb(170, 102, 44); fill-opacity: 1;" ry="0" rx="0" y="24.08944056623227"/></g></g><g id="shape-eba6a2a3-4eff-8064-8006-f0cfb0168690"><g class="fills" id="fills-eba6a2a3-4eff-8064-8006-f0cfb0168690"><path d="M6.9541015625,112.4686279296875L6.9541015625,91.1173095703125L0,91.1173095703125L0,86.7030029296875L18.87872314453125,86.7030029296875L18.87872314453125,91.1173095703125L12.1607666015625,91.1173095703125L12.1607666015625,112.4686279296875L6.9541015625,112.4686279296875Z" class="cls-1" style="fill: rgb(0, 0, 0); fill-opacity: 1;"/></g></g><g id="shape-eba6a2a3-4eff-8064-8006-f0cfb0168691"><g class="fills" id="fills-eba6a2a3-4eff-8064-8006-f0cfb0168691"><path d="M21.71234130859375,112.4686279296875L21.71234130859375,86.7030029296875L26.91900634765625,86.7030029296875L26.91900634765625,97.4554443359375L36.919189453125,97.4554443359375L36.919189453125,86.7030029296875L42.1258544921875,86.7030029296875L42.1258544921875,112.4686279296875L36.919189453125,112.4686279296875L36.919189453125,101.834228515625L26.91900634765625,101.834228515625L26.91900634765625,112.4686279296875L21.71234130859375,112.4686279296875Z" class="cls-1" style="fill: rgb(0, 0, 0); fill-opacity: 1;"/></g></g><g id="shape-eba6a2a3-4eff-8064-8006-f0cfb0168692"><g class="fills" id="fills-eba6a2a3-4eff-8064-8006-f0cfb0168692"><path d="M46.88397216796875,112.4686279296875L46.88397216796875,86.7030029296875L64.01519775390625,86.7030029296875L64.01519775390625,91.0345458984375L52.09063720703125,91.0345458984375L52.09063720703125,97.3018798828125L61.74835205078125,97.3018798828125L61.74835205078125,101.5628662109375L52.09063720703125,101.5628662109375L52.09063720703125,108.13671875L64.01519775390625,108.13671875L64.01519775390625,112.4686279296875L46.88397216796875,112.4686279296875Z" class="cls-1" style="fill: rgb(0, 0, 0); fill-opacity: 1;"/></g></g><g id="shape-eba6a2a3-4eff-8064-8006-f0cfb0168693"><g class="fills" id="fills-eba6a2a3-4eff-8064-8006-f0cfb0168693"><path d="M67.67529296875,112.4686279296875L67.67529296875,86.7030029296875L72.8819580078125,86.7030029296875L72.8819580078125,108.0543212890625L83.071044921875,108.0543212890625L83.071044921875,112.4686279296875L67.67529296875,112.4686279296875Z" class="cls-1" style="fill: rgb(0, 0, 0); fill-opacity: 1;"/></g></g><g id="shape-eba6a2a3-4eff-8064-8006-f0cfb0168694"><g class="fills" id="fills-eba6a2a3-4eff-8064-8006-f0cfb0168694"><rect width="5.206698465550971" height="25.7654299194985" class="cls-1" x="85.86920203820614" transform="matrix(1.000000, 0.000000, 0.000000, 1.000000, 0.000000, 0.000000)" style="fill: rgb(0, 0, 0); fill-opacity: 1;" ry="0" rx="0" y="86.70309412690085"/></g></g><g id="shape-eba6a2a3-4eff-8064-8006-f0cfb0168695"><g class="fills" id="fills-eba6a2a3-4eff-8064-8006-f0cfb0168695"><path d="M95.869384765625,112.4686279296875L95.869384765625,86.7030029296875L102.658203125,86.7030029296875L110.93463134765625,104.80859375L111.6075439453125,104.80859375L111.6075439453125,86.7030029296875L116.81427001953125,86.7030029296875L116.81427001953125,112.4686279296875L110.0963134765625,112.4686279296875L101.7608642578125,94.05615234375L101.0760498046875,94.05615234375L101.0760498046875,112.4686279296875L95.869384765625,112.4686279296875Z" class="cls-1" style="fill: rgb(0, 0, 0); fill-opacity: 1;"/></g></g><g id="shape-eba6a2a3-4eff-8064-8006-f0cfb0168696"><g class="fills" id="fills-eba6a2a3-4eff-8064-8006-f0cfb0168696"><path d="M121.572265625,112.4686279296875L121.572265625,86.7030029296875L138.70361328125,86.7030029296875L138.70361328125,91.0345458984375L126.77899169921875,91.0345458984375L126.77899169921875,97.3018798828125L136.4486083984375,97.3018798828125L136.4486083984375,101.5628662109375L126.77899169921875,101.5628662109375L126.77899169921875,108.13671875L138.70361328125,108.13671875L138.70361328125,112.4686279296875L121.572265625,112.4686279296875Z" class="cls-1" style="fill: rgb(0, 0, 0); fill-opacity: 1;"/></g></g><g id="shape-eba6a2a3-4eff-8064-8006-f0cfb0168697"><g class="fills" id="fills-eba6a2a3-4eff-8064-8006-f0cfb0168697"><path d="M146.248046875,112.4686279296875L146.248046875,105.7410888671875L144.06378173828125,105.7410888671875L144.06378173828125,104.34814453125L150.00250244140625,104.34814453125L150.00250244140625,105.7410888671875L147.88916015625,105.7410888671875L147.88916015625,112.4686279296875L146.248046875,112.4686279296875Z" class="cls-1" style="fill: rgb(0, 0, 0); fill-opacity: 1;"/></g></g><g id="shape-eba6a2a3-4eff-8064-8006-f0cfb0168698"><g class="fills" id="fills-eba6a2a3-4eff-8064-8006-f0cfb0168698"><path d="M150.89984130859375,112.4686279296875L150.89984130859375,104.34814453125L153.53265380859375,104.34814453125L155.17376708984375,109.7657470703125L156.77947998046875,104.34814453125L159.4595947265625,104.34814453125L159.4595947265625,112.4686279296875L157.8184814453125,112.4686279296875L157.8184814453125,106.4490966796875L157.65313720703125,106.4490966796875L155.95306396484375,112.2562255859375L154.40631103515625,112.2562255859375L152.70623779296875,106.4490966796875L152.54095458984375,106.4490966796875L152.54095458984375,112.4686279296875L150.89984130859375,112.4686279296875Z" class="cls-1" style="fill: rgb(0, 0, 0); fill-opacity: 1;"/></g></g></g></svg>