<svg width="42" xmlns="http://www.w3.org/2000/svg" height="41" id="screenshot-b527cf84-f825-80eb-8006-f24b9108998c" viewBox="0 0 42 41" xmlns:xlink="http://www.w3.org/1999/xlink" fill="none" version="1.1"><g id="shape-b527cf84-f825-80eb-8006-f24b9108998c" width="24" height="24" rx="0" ry="0" style="fill: rgb(0, 0, 0);"><g id="shape-b527cf84-f825-80eb-8006-f24b9108998d"><g class="fills" id="fills-b527cf84-f825-80eb-8006-f24b9108998d"><path d="M2.6954345703125,17.812255859375L32.802490234375,17.812255859375L19.649169921875,4.626953125C18.5980224609375,3.572998046875,18.5980224609375,1.84375,19.649169921875,0.7900390625C20.1527099609375,0.284423828125,20.83642578125,0,21.54931640625,0C22.2623291015625,0,22.9462890625,0.284423828125,23.449462890625,0.7900390625L41.2119140625,18.595703125C41.71630859375,19.1005859375,42,19.78564453125,42,20.50048828125C42,21.21533203125,41.71630859375,21.900634765625,41.2119140625,22.4052734375L23.449462890625,40.2109375C22.4002685546875,41.2626953125,20.6986083984375,41.2626953125,19.649169921875,40.2109375C18.5997314453125,39.158935546875,18.5997314453125,37.45361328125,19.649169921875,36.4013671875L32.802490234375,23.2158203125L2.6954345703125,23.2158203125C1.2127685546875,23.2158203125,0.0001220703125,22.000244140625,0.0001220703125,20.51416015625C0.0001220703125,19.02783203125,1.2127685546875,17.812255859375,2.6954345703125,17.812255859375" style="fill: rgb(255, 255, 255); fill-opacity: 1;"/></g></g></g></svg>