<svg width="190" xmlns="http://www.w3.org/2000/svg" height="158" id="screenshot-b527cf84-f825-80eb-8006-f24c2f083441" viewBox="-32 -32 190 158" xmlns:xlink="http://www.w3.org/1999/xlink" fill="none" version="1.1"><g id="shape-b527cf84-f825-80eb-8006-f24c2f083441" filter="url(#filter-render-1)" width="25" height="25" rx="0" ry="0" style="fill: rgb(0, 0, 0);"><defs><filter id="filter-render-1" x="-0.2647058823529412" y="-0.38571428571428573" width="1.6470588235294117" height="1.9428571428571428" filterUnits="objectBoundingBox" color-interpolation-filters="sRGB"><feFlood flood-opacity="0" result="BackgroundImageFix"/><feColorMatrix in="SourceAlpha" type="matrix" values="0 0 0 0 0 0 0 0 0 0 0 0 0 0 0 0 0 0 127 0"/><feOffset dx="4" dy="4"/><feGaussianBlur stdDeviation="2"/><feColorMatrix type="matrix" values="0 0 0 0 0 0 0 0 0 0 0 0 0 0 0 0 0 0 0.2 0"/><feBlend mode="normal" in2="BackgroundImageFix" result="filter_b527cf84-f825-80eb-8006-f24c39ba906c"/><feBlend mode="normal" in="SourceGraphic" in2="filter_b527cf84-f825-80eb-8006-f24c39ba906c" result="shape"/></filter><filter id="filter-shadow-render-1" x="-0.2647058823529412" y="-0.38571428571428573" width="1.6470588235294117" height="1.9428571428571428" filterUnits="objectBoundingBox" color-interpolation-filters="sRGB"><feFlood flood-opacity="0" result="BackgroundImageFix"/><feColorMatrix in="SourceAlpha" type="matrix" values="0 0 0 0 0 0 0 0 0 0 0 0 0 0 0 0 0 0 127 0"/><feOffset dx="4" dy="4"/><feGaussianBlur stdDeviation="2"/><feColorMatrix type="matrix" values="0 0 0 0 0 0 0 0 0 0 0 0 0 0 0 0 0 0 0.2 0"/><feBlend mode="normal" in2="BackgroundImageFix" result="filter_b527cf84-f825-80eb-8006-f24c39ba906c"/><feBlend mode="normal" in="SourceGraphic" in2="filter_b527cf84-f825-80eb-8006-f24c39ba906c" result="shape"/></filter></defs><g id="shape-b527cf84-f825-80eb-8006-f24c2f083442"><g class="fills" id="fills-b527cf84-f825-80eb-8006-f24c2f083442"><path d="M73.2781982421875,15.38671875C72.751708984375,15.38671875,72.249755859375,15.021728515625,72.249755859375,14.487060546875L72.249755859375,0.96826171875C72.249755859375,0.435302734375,71.9649658203125,-0.000244140625,71.436279296875,-0.000244140625L30.5621337890625,-0.000244140625C30.0325927734375,-0.000244140625,29.750244140625,0.435302734375,29.750244140625,0.96826171875L29.750244140625,14.487060546875C29.750244140625,15.021728515625,29.1783447265625,15.312255859375,28.6470947265625,15.312255859375L0.9541015625,15.312255859375C0.43115234375,15.312255859375,0,15.896484375,0,16.423095703125L0,31.451171875C0,31.98095703125,0.43115234375,32.812255859375,0.9541015625,32.812255859375L45.5494384765625,32.812255859375C46.0787353515625,32.812255859375,46.749755859375,31.98095703125,46.749755859375,31.451171875L46.749755859375,28.2470703125C46.749755859375,27.71337890625,46.9454345703125,26.249755859375,47.472412109375,26.249755859375L54.5291748046875,26.249755859375C55.0562744140625,26.249755859375,55.250244140625,27.71337890625,55.250244140625,28.2470703125L55.250244140625,31.451171875C55.250244140625,31.98095703125,55.9212646484375,32.812255859375,56.4464111328125,32.812255859375L101.0396728515625,32.812255859375C101.5711669921875,32.812255859375,102,31.98095703125,102,31.451171875L102,16.423095703125C102,15.894287109375,101.5711669921875,15.312255859375,101.0416259765625,15.312255859375L73.3509521484375,15.312255859375ZM36.3228759765625,15.312255859375C35.7955322265625,15.312255859375,36.125244140625,15.021728515625,36.125244140625,14.48974609375L36.125244140625,6.8046875C36.125244140625,6.26953125,35.7955322265625,6.562255859375,36.3228759765625,6.562255859375L65.6771240234375,6.562255859375C66.204345703125,6.562255859375,65.874755859375,6.26953125,65.874755859375,6.8046875L65.874755859375,14.48974609375C65.874755859375,15.021728515625,66.204345703125,15.312255859375,65.6771240234375,15.312255859375ZM55.366455078125,47.49462890625C55.366455078125,48.0244140625,55.0562744140625,48.124755859375,54.5291748046875,48.124755859375L47.472412109375,48.124755859375C46.9454345703125,48.124755859375,46.749755859375,48.3583984375,46.749755859375,47.829345703125L46.749755859375,37.02734375C46.749755859375,36.498046875,46.0787353515625,34.999755859375,45.5516357421875,34.999755859375L0.9541015625,34.999755859375C0.43115234375,34.999755859375,0,36.498046875,0,37.02734375L0,69.02880859375C0.0069580078125,69.56640625,0.431396484375,69.9990234375,0.9541015625,69.999755859375L101.0416259765625,69.999755859375C101.5645751953125,70.000732421875,101.991943359375,69.569580078125,102,69.031494140625L102,37.02734375C102,36.498046875,101.5711669921875,34.999755859375,101.0416259765625,34.999755859375L56.4464111328125,34.999755859375C55.9212646484375,34.999755859375,55.250244140625,36.498046875,55.250244140625,37.02734375L55.250244140625,47.829345703125Z" style="fill: rgb(255, 255, 255); fill-opacity: 1;"/></g></g></g></svg>