<svg width="43" xmlns="http://www.w3.org/2000/svg" height="31" id="screenshot-b527cf84-f825-80eb-8006-f24b72288084" viewBox="0 0 43 31" xmlns:xlink="http://www.w3.org/1999/xlink" fill="none" version="1.1"><g id="shape-b527cf84-f825-80eb-8006-f24b72288084" width="18" height="18" rx="0" ry="0" style="fill: rgb(0, 0, 0);"><g id="shape-b527cf84-f825-80eb-8006-f24b72288086"><g class="fills" id="fills-b527cf84-f825-80eb-8006-f24b72288086"><path d="M-0.0001220703125,22.65380859375L43,22.65380859375L43,8.345947265625L-0.0001220703125,8.345947265625ZM25.3817138671875,12.759765625L26.6146240234375,14.453125L28.6092529296875,13.806884765625L27.3763427734375,15.5L28.6092529296875,17.19287109375L26.6146240234375,16.546630859375L25.3817138671875,18.239990234375L25.3817138671875,16.146240234375L23.3870849609375,15.5L25.3817138671875,14.8525390625ZM21.4998779296875,11.625C22.5775146484375,11.625,23.5521240234375,12.0634765625,24.2554931640625,12.770751953125C23.6832275390625,12.35546875,22.9935302734375,12.132080078125,22.2857666015625,12.1328125C20.8248291015625,12.13037109375,19.5284423828125,13.06689453125,19.0740966796875,14.452880859375C18.6199951171875,15.839111328125,19.1109619140625,17.359375,20.2908935546875,18.21923828125C21.4710693359375,19.0791015625,23.0714111328125,19.083251953125,24.2554931640625,18.229248046875C23.0167236328125,19.4755859375,21.0931396484375,19.73486328125,19.5677490234375,18.86083984375C18.0421142578125,17.987060546875,17.2957763671875,16.1982421875,17.7489013671875,14.501708984375C18.2017822265625,12.805419921875,19.7408447265625,11.625,21.4998779296875,11.625" style="fill: rgb(20, 20, 20);"/></g></g><g id="shape-b527cf84-f825-80eb-8006-f24b72288087"><g class="fills" id="fills-b527cf84-f825-80eb-8006-f24b72288087"><path d="M38.22216796875,0L4.7777099609375,0C2.1387939453125,0,-0.0001220703125,2.135009765625,-0.0001220703125,4.769287109375L-0.0001220703125,8.345947265625L43,8.345947265625L43,4.769287109375C43,2.135009765625,40.861083984375,0,38.22216796875,0" style="fill: rgb(231, 0, 19);"/></g></g><g id="shape-b527cf84-f825-80eb-8006-f24b72288088"><g class="fills" id="fills-b527cf84-f825-80eb-8006-f24b72288088"><path d="M38.22216796875,31L4.7777099609375,31C2.1387939453125,31,-0.0001220703125,28.86474609375,-0.0001220703125,26.230712890625L-0.0001220703125,22.65380859375L43,22.65380859375L43,26.230712890625C43,28.86474609375,40.861083984375,31,38.22216796875,31" style="fill: rgb(35, 158, 70);"/></g></g><g id="shape-b527cf84-f825-80eb-8006-f24b72288089"><g class="fills" id="fills-b527cf84-f825-80eb-8006-f24b72288089"><path d="M21.4998779296875,19.375C22.5775146484375,19.375,23.5521240234375,18.936279296875,24.2554931640625,18.229248046875C23.6832275390625,18.644287109375,22.9935302734375,18.867919921875,22.2857666015625,18.866943359375C20.8248291015625,18.86962890625,19.5284423828125,17.932861328125,19.0740966796875,16.547119140625C18.6199951171875,15.160888671875,19.1109619140625,13.640380859375,20.2908935546875,12.780517578125C21.4710693359375,11.920654296875,23.0714111328125,11.91650390625,24.2554931640625,12.770751953125C23.0167236328125,11.524169921875,21.0931396484375,11.26513671875,19.5677490234375,12.138916015625C18.0421142578125,13.012939453125,17.2957763671875,14.8017578125,17.7489013671875,16.498046875C18.2017822265625,18.194580078125,19.7408447265625,19.375,21.4998779296875,19.375" style="fill: rgb(255, 255, 255);"/></g></g><g id="shape-b527cf84-f825-80eb-8006-f24b7228808a"><g class="fills" id="fills-b527cf84-f825-80eb-8006-f24b7228808a"><path d="M25.3817138671875,16.146240234375L25.3817138671875,18.239990234375L26.6146240234375,16.546630859375L28.6092529296875,17.19287109375L27.3763427734375,15.5L28.6092529296875,13.806884765625L26.6146240234375,14.453125L25.3817138671875,12.759765625L25.3817138671875,14.8525390625L23.3870849609375,15.5Z" style="fill: rgb(255, 255, 255);"/></g></g></g></svg>