<svg width="221" xmlns="http://www.w3.org/2000/svg" height="203" id="screenshot-71b04822-b0d5-8031-8006-f23c07a129a7" viewBox="2025.5 1928 221 203" xmlns:xlink="http://www.w3.org/1999/xlink" fill="none" version="1.1"><g id="shape-71b04822-b0d5-8031-8006-f23c07a129a7"><defs><filter id="filter-render-1" x="-0.5053763440860215" y="-0.6266666666666667" width="2.139784946236559" height="2.4133333333333336" filterUnits="objectBoundingBox" color-interpolation-filters="sRGB"><feFlood flood-opacity="0" result="BackgroundImageFix"/><feColorMatrix in="SourceAlpha" type="matrix" values="0 0 0 0 0 0 0 0 0 0 0 0 0 0 0 0 0 0 127 0"/><feOffset dx="4" dy="4"/><feGaussianBlur stdDeviation="2"/><feColorMatrix type="matrix" values="0 0 0 0 0 0 0 0 0 0 0 0 0 0 0 0 0 0 0.2 0"/><feBlend mode="normal" in2="BackgroundImageFix" result="filter_71b04822-b0d5-8031-8006-f23c833fbf5b"/><feBlend mode="normal" in="SourceGraphic" in2="filter_71b04822-b0d5-8031-8006-f23c833fbf5b" result="shape"/></filter><filter id="filter-shadow-render-1" x="-0.5053763440860215" y="-0.6266666666666667" width="2.139784946236559" height="2.4133333333333336" filterUnits="objectBoundingBox" color-interpolation-filters="sRGB"><feFlood flood-opacity="0" result="BackgroundImageFix"/><feColorMatrix in="SourceAlpha" type="matrix" values="0 0 0 0 0 0 0 0 0 0 0 0 0 0 0 0 0 0 127 0"/><feOffset dx="4" dy="4"/><feGaussianBlur stdDeviation="2"/><feColorMatrix type="matrix" values="0 0 0 0 0 0 0 0 0 0 0 0 0 0 0 0 0 0 0.2 0"/><feBlend mode="normal" in2="BackgroundImageFix" result="filter_71b04822-b0d5-8031-8006-f23c833fbf5b"/><feBlend mode="normal" in="SourceGraphic" in2="filter_71b04822-b0d5-8031-8006-f23c833fbf5b" result="shape"/></filter></defs><g class="fills" id="fills-71b04822-b0d5-8031-8006-f23c07a129a7"><path d="M2170.5,2016.20703125L2170.5,1990.3448486328125C2170.5,1984.6319580078125,2165.873046875,1980,2160.16650390625,1980L2087.83349609375,1980C2082.126953125,1980,2077.5,1984.6319580078125,2077.5,1990.3448486328125L2077.5,2021.3792724609375C2077.5,2027.0921630859375,2082.126953125,2031.72412109375,2087.83349609375,2031.72412109375L2124,2031.72412109375M2136.91650390625,2044.6551513671875L2147.25,2055L2167.91650390625,2034.310302734375M2124,2005.9139404296875L2124.0517578125,2005.8570556640625M2144.66650390625,2005.9139404296875L2144.71826171875,2005.8570556640625M2103.33349609375,2005.9139404296875L2103.385009765625,2005.8570556640625" filter="url(#filter-render-1)" fill="none" stroke-linecap="round" stroke-linejoin="round" style="fill: none;"/></g><g fill="none" stroke-linecap="round" stroke-linejoin="round" id="strokes-54cfab5e-71a2-8061-8006-f4df363d865d-71b04822-b0d5-8031-8006-f23c07a129a7" class="strokes" filter="url(#filter-render-1)"><g class="stroke-shape"><path d="M2170.5,2016.20703125L2170.5,1990.3448486328125C2170.5,1984.6319580078125,2165.873046875,1980,2160.16650390625,1980L2087.83349609375,1980C2082.126953125,1980,2077.5,1984.6319580078125,2077.5,1990.3448486328125L2077.5,2021.3792724609375C2077.5,2027.0921630859375,2082.126953125,2031.72412109375,2087.83349609375,2031.72412109375L2124,2031.72412109375M2136.91650390625,2044.6551513671875L2147.25,2055L2167.91650390625,2034.310302734375M2124,2005.9139404296875L2124.0517578125,2005.8570556640625M2144.66650390625,2005.9139404296875L2144.71826171875,2005.8570556640625M2103.33349609375,2005.9139404296875L2103.385009765625,2005.8570556640625" style="fill: none; stroke-width: 8; stroke: rgb(255, 255, 255); stroke-opacity: 1;"/></g></g></g></svg>