<svg width="18" xmlns="http://www.w3.org/2000/svg" height="22" id="screenshot-b5f7ee28-226f-805a-8006-f4c4bf3f21fa" viewBox="0 0 18 22" xmlns:xlink="http://www.w3.org/1999/xlink" fill="none" version="1.1"><g id="shape-b5f7ee28-226f-805a-8006-f4c4bf3f21fa" width="24" height="24" rx="0" ry="0" style="fill: rgb(0, 0, 0);"><g id="shape-b5f7ee28-226f-805a-8006-f4c4bf4555e7"><defs><linearGradient id="fill-color-gradient-render-2-0" x1="0.5" y1="1" x2="0.4999999999999999" y2="3.0616169978683836e-17" gradientTransform=""><stop offset="0" stop-color="#765224" stop-opacity="1"/><stop offset="1" stop-color="#c17536" stop-opacity="1"/></linearGradient><pattern patternUnits="userSpaceOnUse" x="0" y="0" width="18" height="22" patternTransform="matrix(1.000000, 0.000000, 0.000000, 1.000000, 0.000000, 0.000000)" id="fill-0-render-2"><g><rect width="18" height="22" style="fill: url(&quot;#fill-color-gradient-render-2-0&quot;); fill-opacity: 1;"/></g></pattern></defs><g class="fills" id="fills-b5f7ee28-226f-805a-8006-f4c4bf4555e7"><path d="M7.98779296875,14.31396484375L10.01220703125,14.31396484375C10.18115234375,14.31396484375,10.326904296875,14.244140625,10.44921875,14.10546875C10.5712890625,13.966796875,10.61328125,13.8134765625,10.57470703125,13.6455078125L10.04052734375,10.72119140625C10.41552734375,10.5361328125,10.7109375,10.2666015625,10.927001953125,9.9140625C11.14306640625,9.56103515625,11.2509765625,9.1708984375,11.25,8.744140625C11.25,8.1318359375,11.030029296875,7.607421875,10.58984375,7.17138671875C10.1494140625,6.73583984375,9.61962890625,6.5166015625,9,6.51611328125C8.38037109375,6.515625,7.85107421875,6.734375,7.411376953125,7.17138671875C6.971923828125,7.6083984375,6.75146484375,8.1328125,6.75,8.744140625C6.75,9.1708984375,6.85791015625,9.56103515625,7.07421875,9.9140625C7.2900390625,10.2666015625,7.585205078125,10.5361328125,7.95947265625,10.72119140625L7.42529296875,13.6455078125C7.387451171875,13.8125,7.4296875,13.9658203125,7.552001953125,14.10546875C7.67431640625,14.2451171875,7.8193359375,14.314453125,7.98779296875,14.31396484375M9,22C8.86865234375,22,8.74658203125,21.9912109375,8.63427734375,21.97216796875C8.52197265625,21.9541015625,8.40966796875,21.92578125,8.296875,21.88818359375C5.765625,21.052734375,3.75,19.50732421875,2.25,17.25146484375C0.75,14.99560546875,0,12.56787109375,0,9.9697265625L0,4.7060546875C0,4.24267578125,0.13623046875,3.82470703125,0.408447265625,3.453125C0.6806640625,3.08203125,1.03173828125,2.8125,1.46240234375,2.6455078125L8.21240234375,0.13916015625C8.47509765625,0.046875,8.7373046875,0,9,0C9.2626953125,0,9.52490234375,0.046875,9.78759765625,0.13916015625L16.53759765625,2.6455078125C16.96875,2.8125,17.3203125,3.08203125,17.5927734375,3.453125C17.86474609375,3.82470703125,18.0009765625,4.24267578125,18,4.7060546875L18,9.9697265625C18,12.568359375,17.25,14.99658203125,15.75,17.25244140625C14.25,19.5087890625,12.234375,21.05419921875,9.703125,21.88818359375C9.59033203125,21.92578125,9.47802734375,21.9541015625,9.36572265625,21.97216796875C9.25341796875,21.9912109375,9.13134765625,22,9,22" fill="url(#fill-0-render-2)"/></g></g></g></svg>