<svg width="186.017" xmlns="http://www.w3.org/2000/svg" height="325" id="screenshot-b5f7ee28-226f-805a-8006-f4d97c784e77" viewBox="0 0 186.017 325" xmlns:xlink="http://www.w3.org/1999/xlink" fill="none" version="1.1"><g id="shape-b5f7ee28-226f-805a-8006-f4d97c784e77" rx="0" ry="0"><g id="shape-71b04822-b0d5-8031-8006-f0d84291899a"><g class="fills" id="fills-71b04822-b0d5-8031-8006-f0d84291899a"><ellipse cx="74" cy="251" rx="74" ry="74" transform="matrix(1.000000, 0.000000, 0.000000, 1.000000, 0.000000, 0.000000)"/></g><g id="strokes-5122e6f7-fb45-80b5-8006-f4d995791a99-71b04822-b0d5-8031-8006-f0d84291899a" class="strokes"><g class="stroke-shape"><ellipse cx="74" cy="251" rx="74" ry="74" transform="matrix(1.000000, 0.000000, 0.000000, 1.000000, 0.000000, 0.000000)" style="fill: none; stroke-width: 10; stroke: rgb(0, 0, 0); stroke-opacity: 1; stroke-dasharray: 20, 20;"/></g></g></g><g id="shape-71b04822-b0d5-8031-8006-f0d9496e2e64"><g class="fills" id="fills-71b04822-b0d5-8031-8006-f0d9496e2e64"><ellipse cx="132" cy="37" rx="37" ry="37" transform="matrix(1.000000, 0.000000, 0.000000, 1.000000, 0.000000, 0.000000)"/></g><g id="strokes-5122e6f7-fb45-80b5-8006-f4d99579d66a-71b04822-b0d5-8031-8006-f0d9496e2e64" class="strokes"><g class="stroke-shape"><ellipse cx="132" cy="37" rx="37" ry="37" transform="matrix(1.000000, 0.000000, 0.000000, 1.000000, 0.000000, 0.000000)" style="fill: none; stroke-width: 10; stroke: rgb(0, 0, 0); stroke-opacity: 1;"/></g></g></g><g id="shape-71b04822-b0d5-8031-8006-f0d8e46f3975"><g class="fills" id="fills-71b04822-b0d5-8031-8006-f0d8e46f3975"><path d="M115.00006103515625,92.8385009765625C115.00006103515625,92.8385009765625,128.7369384765625,95.9390869140625,144.0167236328125,99.4891357421875C159.29644775390625,103.039306640625,186.0167236328125,116.4891357421875,186.0167236328125,116.4891357421875"/></g><g id="strokes-5122e6f7-fb45-80b5-8006-f4d9957a4ba7-71b04822-b0d5-8031-8006-f0d8e46f3975" class="strokes"><g class="stroke-shape"><defs><marker refX="2" fill-opacity="1" orient="auto-start-reverse" id="marker-render-4-line-arrow" viewBox="0 0 3 6" fill="#aa652b" refY="3" markerWidth="8.5" markerHeight="8.5"><path d="M 0.5 0.5 L 3 3 L 0.5 5.5 L 0 5 L 2 3 L 0 1 z"/></marker></defs><path d="M115.00006103515625,92.8385009765625C115.00006103515625,92.8385009765625,128.7369384765625,95.9390869140625,144.0167236328125,99.4891357421875C159.29644775390625,103.039306640625,186.0167236328125,116.4891357421875,186.0167236328125,116.4891357421875" style="fill: none; stroke-width: 10; stroke: rgb(170, 101, 43); stroke-opacity: 1; marker-end: url(&quot;#marker-render-4-line-arrow&quot;);"/></g></g></g></g></svg>