<svg width="34" xmlns="http://www.w3.org/2000/svg" height="29" id="screenshot-eba6a2a3-4eff-8064-8006-f0d1ed58d30a" viewBox="0 0 34 29" xmlns:xlink="http://www.w3.org/1999/xlink" fill="none" version="1.1"><g id="shape-eba6a2a3-4eff-8064-8006-f0d1ed58d30a" width="18" height="18" rx="0" ry="0" style="fill: rgb(0, 0, 0);"><g id="shape-eba6a2a3-4eff-8064-8006-f0d1ed5e7bdf"><g class="fills" id="fills-eba6a2a3-4eff-8064-8006-f0d1ed5e7bdf"><path d="M16.8839111328125,7.255126953125C16.029296875,7.25634765625,15.18182373046875,7.41015625,14.38140869140625,7.708740234375L23.67333984375,16.988525390625C23.97613525390625,16.1790771484375,24.1298828125,15.32177734375,24.1273193359375,14.457763671875C24.10992431640625,10.474853515625,20.8719482421875,7.255126953125,16.8839111328125,7.255126953125" class="clr-i-solid clr-i-solid-path-1" style="fill: rgb(78, 78, 78); fill-opacity: 1;"/></g></g><g id="shape-eba6a2a3-4eff-8064-8006-f0d1ed5fdb10"><g class="fills" id="fills-eba6a2a3-4eff-8064-8006-f0d1ed5fdb10"><path d="M33.69384765625,13.9622802734375C30.13543701171875,7.392333984375,23.89508056640625,3.416748046875,16.98944091796875,3.416748046875C15.1092529296875,3.4208984375,13.2415771484375,3.723388671875,11.45654296875,4.3128662109375L13.156494140625,6.0213623046875C14.40869140625,5.6986083984375,15.69622802734375,5.531982421875,16.98944091796875,5.52587890625C22.9342041015625,5.52587890625,28.34033203125,8.8369140625,31.5609130859375,14.41552734375C30.37841796875,16.4844970703125,28.8125,18.3095703125,26.94659423828125,19.7938232421875L28.4459228515625,21.291259765625C30.60699462890625,19.5511474609375,32.40142822265625,17.4005126953125,33.72540283203125,14.9639892578125L34,14.457763671875Z" class="clr-i-solid clr-i-solid-path-2" style="fill: rgb(78, 78, 78); fill-opacity: 1;"/></g></g><g id="shape-eba6a2a3-4eff-8064-8006-f0d1ed60a624"><g class="fills" id="fills-eba6a2a3-4eff-8064-8006-f0d1ed60a624"><path d="M2.62921142578125,1.5712890625L7.3385009765625,6.2745361328125C4.36126708984375,8.18798828125,1.92828369140625,10.835693359375,0.27459716796875,13.9622802734375L0,14.457763671875L0.27459716796875,14.9639892578125C3.83294677734375,21.53369140625,10.07330322265625,25.5093994140625,16.9788818359375,25.5093994140625C19.67437744140625,25.5098876953125,22.33489990234375,24.9007568359375,24.7608642578125,23.727294921875L30.04034423828125,29L31.88818359375,27.418212890625L4.43475341796875,0ZM11.3931884765625,10.3240966796875C9.35345458984375,13.19677734375,9.6854248046875,17.119873046875,12.1788330078125,19.6102294921875C14.67230224609375,22.100341796875,18.6004638671875,22.4320068359375,21.47698974609375,20.394775390625L23.1663818359375,22.0821533203125C21.2108154296875,22.9173583984375,19.10589599609375,23.3477783203125,16.9788818359375,23.347412109375C11.0341796875,23.347412109375,5.6279296875,20.036376953125,2.40753173828125,14.457763671875C3.95330810546875,11.724853515625,6.17919921875,9.4365234375,8.86962890625,7.8140869140625Z" class="clr-i-solid clr-i-solid-path-3" style="fill: rgb(78, 78, 78); fill-opacity: 1;"/></g></g></g></svg>