<svg width="43" xmlns="http://www.w3.org/2000/svg" height="31" id="screenshot-eba6a2a3-4eff-8064-8006-f0d155e4a2fb" viewBox="0 0 43 31" xmlns:xlink="http://www.w3.org/1999/xlink" fill="none" version="1.1"><g id="shape-eba6a2a3-4eff-8064-8006-f0d155e4a2fb" width="18" height="18" rx="0" ry="0" style="fill: rgb(0, 0, 0);"><g id="shape-eba6a2a3-4eff-8064-8006-f0d155ebb2aa"><g class="fills" id="fills-eba6a2a3-4eff-8064-8006-f0d155ebb2aa"><path d="M0,22.6539306640625L43,22.6539306640625L43,8.3460693359375L0,8.3460693359375ZM25.3818359375,12.7598876953125L26.6146240234375,14.4532470703125L28.6092529296875,13.8070068359375L27.37646484375,15.5L28.6092529296875,17.1929931640625L26.6146240234375,16.5467529296875L25.3818359375,18.2401123046875L25.3818359375,16.146240234375L23.38720703125,15.5L25.3818359375,14.8526611328125ZM21.5,11.625C22.5775146484375,11.625,23.5521240234375,12.0635986328125,24.2554931640625,12.770751953125C23.683349609375,12.3555908203125,22.9935302734375,12.132080078125,22.285888671875,12.1329345703125C20.824951171875,12.13037109375,19.5284423828125,13.0670166015625,19.0740966796875,14.452880859375C18.6201171875,15.839111328125,19.111083984375,17.3594970703125,20.2908935546875,18.2193603515625C21.47119140625,19.0792236328125,23.071533203125,19.0833740234375,24.2554931640625,18.229248046875C23.0167236328125,19.4757080078125,21.09326171875,19.73486328125,19.5677490234375,18.8609619140625C18.0421142578125,17.987060546875,17.2957763671875,16.1982421875,17.7490234375,14.5018310546875C18.2017822265625,12.805419921875,19.740966796875,11.625,21.5,11.625" style="fill: rgb(20, 20, 20);"/></g></g><g id="shape-eba6a2a3-4eff-8064-8006-f0d155ebed20"><g class="fills" id="fills-eba6a2a3-4eff-8064-8006-f0d155ebed20"><path d="M38.22216796875,0L4.77783203125,0C2.138916015625,0,0,2.1351318359375,0,4.769287109375L0,8.3460693359375L43,8.3460693359375L43,4.769287109375C43,2.1351318359375,40.861083984375,0,38.22216796875,0" style="fill: rgb(231, 0, 19);"/></g></g><g id="shape-eba6a2a3-4eff-8064-8006-f0d155ed25f9"><g class="fills" id="fills-eba6a2a3-4eff-8064-8006-f0d155ed25f9"><path d="M38.22216796875,31L4.77783203125,31C2.138916015625,31,0,28.8648681640625,0,26.230712890625L0,22.6539306640625L43,22.6539306640625L43,26.230712890625C43,28.8648681640625,40.861083984375,31,38.22216796875,31" style="fill: rgb(35, 158, 70);"/></g></g><g id="shape-eba6a2a3-4eff-8064-8006-f0d155ee25ad"><g class="fills" id="fills-eba6a2a3-4eff-8064-8006-f0d155ee25ad"><path d="M21.5,19.375C22.5775146484375,19.375,23.5521240234375,18.9364013671875,24.2554931640625,18.229248046875C23.683349609375,18.6444091796875,22.9935302734375,18.867919921875,22.285888671875,18.8670654296875C20.824951171875,18.86962890625,19.5284423828125,17.9329833984375,19.0740966796875,16.547119140625C18.6201171875,15.160888671875,19.111083984375,13.6405029296875,20.2908935546875,12.7806396484375C21.47119140625,11.9207763671875,23.071533203125,11.9166259765625,24.2554931640625,12.770751953125C23.0167236328125,11.5242919921875,21.09326171875,11.26513671875,19.5677490234375,12.1390380859375C18.0421142578125,13.012939453125,17.2957763671875,14.8017578125,17.7490234375,16.4981689453125C18.2017822265625,18.194580078125,19.740966796875,19.375,21.5,19.375" style="fill: rgb(255, 255, 255);"/></g></g><g id="shape-eba6a2a3-4eff-8064-8006-f0d155ee46d4"><g class="fills" id="fills-eba6a2a3-4eff-8064-8006-f0d155ee46d4"><path d="M25.3818359375,16.146240234375L25.3818359375,18.2401123046875L26.6146240234375,16.5467529296875L28.6092529296875,17.1929931640625L27.37646484375,15.5L28.6092529296875,13.8070068359375L26.6146240234375,14.4532470703125L25.3818359375,12.7598876953125L25.3818359375,14.8526611328125L23.38720703125,15.5Z" style="fill: rgb(255, 255, 255);"/></g></g></g></svg>