<svg width="131" xmlns="http://www.w3.org/2000/svg" height="146.424" id="screenshot-b5f7ee28-226f-805a-8006-f4ba902696f9" viewBox="-32 -32 131 146.424" xmlns:xlink="http://www.w3.org/1999/xlink" fill="none" version="1.1"><style>/* arabic */
@font-face {
  font-family: 'Cairo';
  font-style: normal;
  font-weight: 700;
  font-display: block;
  src: url(http://localhost:6080/internal/gfonts/font/cairo/v31/SLXgc1nY6HkvangtZmpQdkhzfH5lkSs2SgRjCAGMQ1z0hAc5a1biLD-H.woff2) format('woff2');
  unicode-range: U+0600-06FF, U+0750-077F, U+0870-088E, U+0890-0891, U+0897-08E1, U+08E3-08FF, U+200C-200E, U+2010-2011, U+204F, U+2E41, U+FB50-FDFF, U+FE70-FE74, U+FE76-FEFC, U+102E0-102FB, U+10E60-10E7E, U+10EC2-10EC4, U+10EFC-10EFF, U+1EE00-1EE03, U+1EE05-1EE1F, U+1EE21-1EE22, U+1EE24, U+1EE27, U+1EE29-1EE32, U+1EE34-1EE37, U+1EE39, U+1EE3B, U+1EE42, U+1EE47, U+1EE49, U+1EE4B, U+1EE4D-1EE4F, U+1EE51-1EE52, U+1EE54, U+1EE57, U+1EE59, U+1EE5B, U+1EE5D, U+1EE5F, U+1EE61-1EE62, U+1EE64, U+1EE67-1EE6A, U+1EE6C-1EE72, U+1EE74-1EE77, U+1EE79-1EE7C, U+1EE7E, U+1EE80-1EE89, U+1EE8B-1EE9B, U+1EEA1-1EEA3, U+1EEA5-1EEA9, U+1EEAB-1EEBB, U+1EEF0-1EEF1;
}
/* latin-ext */
@font-face {
  font-family: 'Cairo';
  font-style: normal;
  font-weight: 700;
  font-display: block;
  src: url(http://localhost:6080/internal/gfonts/font/cairo/v31/SLXgc1nY6HkvangtZmpQdkhzfH5lkSs2SgRjCAGMQ1z0hAc5a13iLD-H.woff2) format('woff2');
  unicode-range: U+0100-02BA, U+02BD-02C5, U+02C7-02CC, U+02CE-02D7, U+02DD-02FF, U+0304, U+0308, U+0329, U+1D00-1DBF, U+1E00-1E9F, U+1EF2-1EFF, U+2020, U+20A0-20AB, U+20AD-20C0, U+2113, U+2C60-2C7F, U+A720-A7FF;
}
/* latin */
@font-face {
  font-family: 'Cairo';
  font-style: normal;
  font-weight: 700;
  font-display: block;
  src: url(http://localhost:6080/internal/gfonts/font/cairo/v31/SLXgc1nY6HkvangtZmpQdkhzfH5lkSs2SgRjCAGMQ1z0hAc5a1PiLA.woff2) format('woff2');
  unicode-range: U+0000-00FF, U+0131, U+0152-0153, U+02BB-02BC, U+02C6, U+02DA, U+02DC, U+0304, U+0308, U+0329, U+2000-206F, U+20AC, U+2122, U+2191, U+2193, U+2212, U+2215, U+FEFF, U+FFFD;
}
</style><g id="shape-b5f7ee28-226f-805a-8006-f4ba902696f9" filter="url(#filter-render-1)" rx="0" ry="0"><defs><filter id="filter-render-1" x="-0.627906976744186" y="-0.46213505683084943" width="2.5348837209302326" height="2.1296634722531875" filterUnits="objectBoundingBox" color-interpolation-filters="sRGB"><feFlood flood-opacity="0" result="BackgroundImageFix"/><feColorMatrix in="SourceAlpha" type="matrix" values="0 0 0 0 0 0 0 0 0 0 0 0 0 0 0 0 0 0 127 0"/><feOffset dx="4" dy="4"/><feGaussianBlur stdDeviation="2"/><feColorMatrix type="matrix" values="0 0 0 0 0 0 0 0 0 0 0 0 0 0 0 0 0 0 0.2 0"/><feBlend mode="normal" in2="BackgroundImageFix" result="filter_b5f7ee28-226f-805a-8006-f4bae2bef138"/><feBlend mode="normal" in="SourceGraphic" in2="filter_b5f7ee28-226f-805a-8006-f4bae2bef138" result="shape"/></filter><filter id="filter-shadow-render-1" x="-0.627906976744186" y="-0.46213505683084943" width="2.5348837209302326" height="2.1296634722531875" filterUnits="objectBoundingBox" color-interpolation-filters="sRGB"><feFlood flood-opacity="0" result="BackgroundImageFix"/><feColorMatrix in="SourceAlpha" type="matrix" values="0 0 0 0 0 0 0 0 0 0 0 0 0 0 0 0 0 0 127 0"/><feOffset dx="4" dy="4"/><feGaussianBlur stdDeviation="2"/><feColorMatrix type="matrix" values="0 0 0 0 0 0 0 0 0 0 0 0 0 0 0 0 0 0 0.2 0"/><feBlend mode="normal" in2="BackgroundImageFix" result="filter_b5f7ee28-226f-805a-8006-f4bae2bef138"/><feBlend mode="normal" in="SourceGraphic" in2="filter_b5f7ee28-226f-805a-8006-f4bae2bef138" result="shape"/></filter></defs><g id="shape-b5f7ee28-226f-805a-8006-f4b96b6c15ab" width="16" height="16" rx="0" ry="0" style="fill: rgb(0, 0, 0);"><g id="shape-b5f7ee28-226f-805a-8006-f4b96b6e226c"><g class="fills" id="fills-b5f7ee28-226f-805a-8006-f4b96b6e226c"><path d="M19.67862892150879,17C19.67862892150879,18.00537109375,20.49405860900879,18.8212890625,21.50016212463379,18.8212890625C22.50626564025879,18.8212890625,23.32145118713379,18.00537109375,23.32145118713379,17C23.32145118713379,15.99462890625,22.50626564025879,15.1787109375,21.50016212463379,15.1787109375C20.49405860900879,15.1787109375,19.67862892150879,15.99462890625,19.67862892150879,17M27.26798439025879,17C27.26798439025879,18.00537109375,28.08316993713379,18.8212890625,29.08927345275879,18.8212890625C30.09562110900879,18.8212890625,30.91080665588379,18.00537109375,30.91080665588379,17C30.91080665588379,15.99462890625,30.09562110900879,15.1787109375,29.08927345275879,15.1787109375C28.08316993713379,15.1787109375,27.26798439025879,15.99462890625,27.26798439025879,17M12.089518547058105,17C12.089518547058105,18.00537109375,12.904704093933105,18.8212890625,13.911051750183105,18.8212890625C14.917155265808105,18.8212890625,15.732340812683105,18.00537109375,15.732340812683105,17C15.732340812683105,15.99462890625,14.917155265808105,15.1787109375,13.911051750183105,15.1787109375C12.904704093933105,15.1787109375,12.089518547058105,15.99462890625,12.089518547058105,17M37.17936325073242,10.41259765625C36.32145309448242,8.3740234375,35.09244918823242,6.5458984375,33.52555465698242,4.974609375C31.96915626525879,3.41259765625,30.12150001525879,2.17138671875,28.08732032775879,1.3212890625C26.00016212463379,0.443359375,23.78458595275879,-9.094947017729282e-13,21.50016212463379,-9.094947017729282e-13L21.42423439025879,-9.094947017729282e-13C19.12491798400879,0.01171875,16.89737892150879,0.46728515625,14.802653312683105,1.3623046875C12.786295890808105,2.22216796875,10.955973625183105,3.46484375,9.414469718933105,5.0244140625C7.861979007720947,6.5908203125,6.644205570220947,8.412109375,5.801920413970947,10.4423828125C4.929117679595947,12.544921875,4.488932132720947,14.7802734375,4.500406742095947,17.07958984375C4.513346195220947,19.7158203125,5.136637210845947,22.31103515625,6.321695804595947,24.6650390625L6.321695804595947,30.43310546875C6.321695804595947,31.39697265625,7.103189945220947,32.1787109375,8.067301750183105,32.1787109375L13.838541984558105,32.1787109375C16.19254493713379,33.36328125,18.78898048400879,33.98681640625,21.42423439025879,34L21.50358009338379,34C23.77701759338379,34,25.98136329650879,33.56005859375,28.05729103088379,32.69775390625C30.08072853088379,31.857421875,31.92179298400879,30.630859375,33.47550582885742,29.0859375C35.04337692260742,27.53369140625,36.27653121948242,25.720703125,37.13737106323242,23.69775390625C38.03336715698242,21.603515625,38.48868942260742,19.37548828125,38.49991989135742,17.07568359375C38.51139450073242,14.7646484375,38.06364059448242,12.5224609375,37.17936325073242,10.41259765625M31.44547462463379,27.033203125C28.78580665588379,29.6669921875,25.25675392150879,31.1162109375,21.50016212463379,31.1162109375L21.43570899963379,31.1162109375C19.14762306213379,31.10400390625,16.87418556213379,30.53515625,14.867350578308105,29.46533203125L14.548502922058105,29.29443359375L9.205729484558105,29.29443359375L9.205729484558105,23.951171875L9.034831047058105,23.6337890625C7.964762210845947,21.6259765625,7.395670413970947,19.3525390625,7.384195804595947,17.06396484375C7.368814945220947,13.28125,8.814860343933105,9.7294921875,11.466959953308105,7.05419921875C14.116129875183105,4.37890625,17.65616798400879,2.8994140625,21.43961524963379,2.8837890625L21.50358009338379,2.8837890625C23.40104103088379,2.8837890625,25.24137306213379,3.25146484375,26.97574806213379,3.98046875C28.66837501525879,4.68994140625,30.18619728088379,5.7109375,31.49137306213379,7.0166015625C32.79264450073242,8.3173828125,33.81705856323242,9.83984375,34.52701950073242,11.5322265625C35.26310348510742,13.28515625,35.63151168823242,15.14453125,35.62369918823242,17.06396484375C35.60050582885742,20.8447265625,34.11710739135742,24.38427734375,31.44547462463379,27.033203125" style="fill: rgb(255, 255, 255); fill-opacity: 1;"/></g></g></g><g id="shape-b5f7ee28-226f-805a-8006-f4ba380078f3"><g transform="matrix(1.000000, 0.000000, 0.000000, 1.000000, 0.000000, 0.000000)" class="text-container" x="0" y="38.42447916666606" width="43" height="20" rx="0" ry="0"><defs><pattern patternUnits="objectBoundingBox" width="42.703125" height="24" id="fill-0-render-4-0"><g><rect width="42.703125" height="24" style="fill: rgb(255, 255, 255); fill-opacity: 1;"/></g></pattern></defs><g class="fills" id="fills-b5f7ee28-226f-805a-8006-f4ba380078f3"><text x="42.703125" y="59.42447916666606" dominant-baseline="ideographic" textLength="42.703125" lengthAdjust="spacingAndGlyphs" style="text-transform: none; font-family: Cairo; letter-spacing: normal; font-style: normal; font-weight: 700; white-space: pre; font-size: 13px; text-decoration: rgb(255, 255, 255); direction: rtl; fill: rgb(255, 255, 255); fill-opacity: 1;">الرسائل</text></g></g></g></g></svg>