<svg width="201" xmlns="http://www.w3.org/2000/svg" height="154" id="screenshot-b5f7ee28-226f-805a-8006-f4b75a3dd1e0" viewBox="0 0 201 154" xmlns:xlink="http://www.w3.org/1999/xlink" fill="none" version="1.1"><style>/* arabic */
@font-face {
  font-family: 'Cairo';
  font-style: normal;
  font-weight: 500;
  font-display: block;
  src: url(http://localhost:6080/internal/gfonts/font/cairo/v31/SLXgc1nY6HkvangtZmpQdkhzfH5lkSs2SgRjCAGMQ1z0hNI-a1biLD-H.woff2) format('woff2');
  unicode-range: U+0600-06FF, U+0750-077F, U+0870-088E, U+0890-0891, U+0897-08E1, U+08E3-08FF, U+200C-200E, U+2010-2011, U+204F, U+2E41, U+FB50-FDFF, U+FE70-FE74, U+FE76-FEFC, U+102E0-102FB, U+10E60-10E7E, U+10EC2-10EC4, U+10EFC-10EFF, U+1EE00-1EE03, U+1EE05-1EE1F, U+1EE21-1EE22, U+1EE24, U+1EE27, U+1EE29-1EE32, U+1EE34-1EE37, U+1EE39, U+1EE3B, U+1EE42, U+1EE47, U+1EE49, U+1EE4B, U+1EE4D-1EE4F, U+1EE51-1EE52, U+1EE54, U+1EE57, U+1EE59, U+1EE5B, U+1EE5D, U+1EE5F, U+1EE61-1EE62, U+1EE64, U+1EE67-1EE6A, U+1EE6C-1EE72, U+1EE74-1EE77, U+1EE79-1EE7C, U+1EE7E, U+1EE80-1EE89, U+1EE8B-1EE9B, U+1EEA1-1EEA3, U+1EEA5-1EEA9, U+1EEAB-1EEBB, U+1EEF0-1EEF1;
}
/* latin-ext */
@font-face {
  font-family: 'Cairo';
  font-style: normal;
  font-weight: 500;
  font-display: block;
  src: url(http://localhost:6080/internal/gfonts/font/cairo/v31/SLXgc1nY6HkvangtZmpQdkhzfH5lkSs2SgRjCAGMQ1z0hNI-a13iLD-H.woff2) format('woff2');
  unicode-range: U+0100-02BA, U+02BD-02C5, U+02C7-02CC, U+02CE-02D7, U+02DD-02FF, U+0304, U+0308, U+0329, U+1D00-1DBF, U+1E00-1E9F, U+1EF2-1EFF, U+2020, U+20A0-20AB, U+20AD-20C0, U+2113, U+2C60-2C7F, U+A720-A7FF;
}
/* latin */
@font-face {
  font-family: 'Cairo';
  font-style: normal;
  font-weight: 500;
  font-display: block;
  src: url(http://localhost:6080/internal/gfonts/font/cairo/v31/SLXgc1nY6HkvangtZmpQdkhzfH5lkSs2SgRjCAGMQ1z0hNI-a1PiLA.woff2) format('woff2');
  unicode-range: U+0000-00FF, U+0131, U+0152-0153, U+02BB-02BC, U+02C6, U+02DA, U+02DC, U+0304, U+0308, U+0329, U+2000-206F, U+20AC, U+2122, U+2191, U+2193, U+2212, U+2215, U+FEFF, U+FFFD;
}
</style><g id="shape-b5f7ee28-226f-805a-8006-f4b75a3dd1e0" rx="0" ry="0"><g id="shape-b5f7ee28-226f-805a-8006-f4b2b7a15810"><g class="fills" id="fills-b5f7ee28-226f-805a-8006-f4b2b7a15810"><rect rx="15" ry="15" x="0" y="0" transform="matrix(1.000000, 0.000000, 0.000000, 1.000000, 0.000000, 0.000000)" width="201" height="154" style="fill: rgb(222, 222, 222); fill-opacity: 1;"/></g><g id="strokes-9684954b-8cfe-80e5-8006-fee6e1741c82-b5f7ee28-226f-805a-8006-f4b2b7a15810" class="strokes"><g class="inner-stroke-shape" transform="matrix(1.000000, 0.000000, 0.000000, 1.000000, 0.000000, 0.000000)"><defs><clipPath id="inner-stroke-render-2-b5f7ee28-226f-805a-8006-f4b2b7a15810-0"><use href="#stroke-shape-render-2-b5f7ee28-226f-805a-8006-f4b2b7a15810-0"/></clipPath><rect rx="15" ry="15" x="0" y="0" width="201" height="154" id="stroke-shape-render-2-b5f7ee28-226f-805a-8006-f4b2b7a15810-0" style="fill: none; stroke-width: 2; stroke: rgb(134, 134, 134); stroke-opacity: 1;"/></defs><use href="#stroke-shape-render-2-b5f7ee28-226f-805a-8006-f4b2b7a15810-0" clip-path="url('#inner-stroke-render-2-b5f7ee28-226f-805a-8006-f4b2b7a15810-0')"/></g></g></g><g id="shape-b5f7ee28-226f-805a-8006-f4b486899b7e" style="opacity: 0.7;"><g class="fills" id="fills-b5f7ee28-226f-805a-8006-f4b486899b7e"><rect rx="14" ry="14" x="143" y="120" transform="matrix(1.000000, 0.000000, 0.000000, 1.000000, 0.000000, 0.000000)" width="52" height="28" style="fill: rgb(0, 0, 0); fill-opacity: 1;"/></g><g id="strokes-9684954b-8cfe-80e5-8006-fee6e17550f0-b5f7ee28-226f-805a-8006-f4b486899b7e" class="strokes"><g class="inner-stroke-shape" transform="matrix(1.000000, 0.000000, 0.000000, 1.000000, 0.000000, 0.000000)"><defs><clipPath id="inner-stroke-render-3-b5f7ee28-226f-805a-8006-f4b486899b7e-0"><use href="#stroke-shape-render-3-b5f7ee28-226f-805a-8006-f4b486899b7e-0"/></clipPath><rect rx="14" ry="14" x="143" y="120" width="52" height="28" id="stroke-shape-render-3-b5f7ee28-226f-805a-8006-f4b486899b7e-0" style="fill: none; stroke-width: 2; stroke: rgb(134, 134, 134); stroke-opacity: 1;"/></defs><use href="#stroke-shape-render-3-b5f7ee28-226f-805a-8006-f4b486899b7e-0" clip-path="url('#inner-stroke-render-3-b5f7ee28-226f-805a-8006-f4b486899b7e-0')"/></g></g></g><g id="shape-b5f7ee28-226f-805a-8006-f4b41b36863e" rx="0" ry="0"><g id="shape-b5f7ee28-226f-805a-8006-f4b41b36863f"><g class="fills" id="fills-b5f7ee28-226f-805a-8006-f4b41b36863f"><path d="M134.44580078125,57.83154296875C129.8359375,57.83154296875,126.099853515625,61.55029296875,126.099853515625,66.13818359375C126.099853515625,70.7265625,129.8359375,74.44482421875,134.44580078125,74.44482421875C139.055419921875,74.44482421875,142.79150390625,70.7265625,142.79150390625,66.13818359375C142.79150390625,61.55029296875,139.055419921875,57.83154296875,134.44580078125,57.83154296875ZM134.44580078125,71.90380859375C131.2470703125,71.90380859375,128.6533203125,69.32177734375,128.6533203125,66.13818359375C128.6533203125,62.95458984375,131.2470703125,60.373046875,134.44580078125,60.373046875C137.644287109375,60.373046875,140.238037109375,62.95458984375,140.238037109375,66.13818359375C140.238037109375,69.32177734375,137.644287109375,71.90380859375,134.44580078125,71.90380859375Z" class="cls-2" style="fill: rgb(69, 69, 69); fill-opacity: 1;"/></g></g><g id="shape-b5f7ee28-226f-805a-8006-f4b41b368640"><g class="fills" id="fills-b5f7ee28-226f-805a-8006-f4b41b368640"><path d="M148.297119140625,57.17626953125C144.771728515625,53.6669921875,139.902099609375,51.5,134.5263671875,51.5C123.770263671875,51.5,115.052734375,60.1767578125,115.052734375,70.88232421875L115.052734375,83.11767578125C115.052734375,93.8232421875,123.770263671875,102.5,134.5263671875,102.5C145.2822265625,102.5,154,93.8232421875,154,83.11767578125L154,70.88232421875C154,65.52734375,151.818359375,60.68505859375,148.297119140625,57.17626953125ZM146.74267578125,94.857421875C146.052734375,95.56640625,145.295654296875,96.20849609375,144.493896484375,96.7880859375C143.7548828125,97.31884765625,142.96630859375,97.7958984375,142.14208984375,98.20166015625C139.852783203125,99.34326171875,137.26806640625,99.98095703125,134.53076171875,99.98095703125C131.793701171875,99.98095703125,129.020751953125,99.2939453125,126.668701171875,98.07666015625C125.82666015625,97.64013671875,125.024658203125,97.140625,124.276611328125,96.57421875C123.528564453125,96.01708984375,122.82958984375,95.39697265625,122.184326171875,94.7236328125C120.486572265625,92.95361328125,119.16943359375,90.822265625,118.36328125,88.4501953125C118.10791015625,87.6923828125,117.90185546875,86.912109375,117.75390625,86.11376953125C117.615234375,85.3779296875,117.525390625,84.6201171875,117.489501953125,83.853515625C117.4716796875,83.56787109375,117.46728515625,83.28271484375,117.46728515625,82.99267578125L117.46728515625,71.00732421875C117.46728515625,61.6259765625,125.10986328125,54.01904296875,134.53515625,54.01904296875C139.248046875,54.01904296875,143.5126953125,55.9189453125,146.60400390625,58.9951171875C149.6904296875,62.0673828125,151.603271484375,66.31689453125,151.603271484375,71.00732421875L151.603271484375,82.99267578125C151.603271484375,83.37158203125,151.58984375,83.74609375,151.5673828125,84.1162109375C151.518310546875,84.865234375,151.419677734375,85.60107421875,151.2763671875,86.31884765625C151.11962890625,87.10791015625,150.904541015625,87.87939453125,150.64013671875,88.6240234375C149.806884765625,90.98291015625,148.467529296875,93.10546875,146.747314453125,94.857421875Z" class="cls-1" style="fill: rgb(69, 69, 69); fill-opacity: 1;"/></g></g><g id="shape-b5f7ee28-226f-805a-8006-f4b41b368641"><g class="fills" id="fills-b5f7ee28-226f-805a-8006-f4b41b368641"><path d="M150.201171875,78.6318359375C150.68505859375,78.734375,151.146484375,78.85498046875,151.594482421875,78.98876953125L151.594482421875,76.28662109375C149.48876953125,75.88525390625,146.58154296875,75.58203125,143.163330078125,75.9697265625C139.27490234375,76.41162109375,136.237548828125,77.583984375,134.2890625,78.51171875C132.049072265625,77.3876953125,128.227783203125,75.849609375,123.29541015625,75.65771484375C122.95947265625,75.64453125,122.6279296875,75.64013671875,122.301025390625,75.64013671875C120.4775390625,75.64013671875,118.846923828125,75.83203125,117.458251953125,76.09033203125L117.458251953125,78.77001953125C119.425048828125,78.3330078125,122.1396484375,77.98974609375,125.3203125,78.35546875C128.097900390625,78.6767578125,130.35107421875,79.43896484375,131.950439453125,80.12109375C131.2470703125,80.73193359375,130.539306640625,81.3427734375,129.83154296875,81.94921875C128.380126953125,81.396484375,126.247802734375,80.76318359375,123.60009765625,80.6162109375C121.122802734375,80.47802734375,119.017333984375,80.8076171875,117.453857421875,81.19580078125L117.453857421875,82.99267578125C117.453857421875,83.28271484375,117.458251953125,83.56787109375,117.47607421875,83.853515625C118.761962890625,83.4873046875,120.379150390625,83.16650390625,122.2607421875,83.09521484375C124.581298828125,83.0107421875,126.5166015625,83.34033203125,127.896240234375,83.68359375C127.36767578125,84.36572265625,126.8388671875,85.04833984375,126.310302734375,85.73046875C124.4736328125,85.3515625,121.85302734375,85.0927734375,118.896240234375,85.79296875C118.4931640625,85.88623046875,118.10791015625,85.99365234375,117.740478515625,86.11376953125C117.888427734375,86.912109375,118.094482421875,87.6923828125,118.349609375,88.4501953125C119.44287109375,88.1962890625,120.70166015625,87.986328125,122.103759765625,87.90185546875C123.0849609375,87.84375,123.98974609375,87.85302734375,124.814208984375,87.90185546875C124.16455078125,89.0966796875,123.49267578125,90.537109375,122.914794921875,92.208984375C122.610107421875,93.08740234375,122.36376953125,93.93017578125,122.175537109375,94.71923828125C122.820556640625,95.392578125,123.51953125,96.0126953125,124.267578125,96.56982421875C124.52294921875,95.1650390625,124.9619140625,93.515625,125.718994140625,91.7451171875C126.23876953125,90.52783203125,126.81201171875,89.4755859375,127.36767578125,88.583984375C128.08447265625,88.98095703125,128.80126953125,89.3779296875,129.517822265625,89.7744140625C128.850341796875,90.76416015625,128.030517578125,92.208984375,127.430419921875,94.07275390625C126.942138671875,95.58447265625,126.736083984375,96.9619140625,126.659912109375,98.07666015625C129.01171875,99.2939453125,131.68603515625,99.98095703125,134.521728515625,99.98095703125C137.357666015625,99.98095703125,139.83935546875,99.34326171875,142.133056640625,98.20166015625C142.025390625,96.51171875,141.640380859375,94.3046875,140.51123046875,91.9951171875C140.130615234375,91.21484375,139.7138671875,90.5234375,139.29736328125,89.9169921875C139.5615234375,89.6943359375,139.902099609375,89.43994140625,140.3232421875,89.20361328125C140.775634765625,88.94970703125,141.1923828125,88.78466796875,141.537109375,88.677734375C141.577392578125,88.74462890625,142.3837890625,90.255859375,142.970703125,91.65185546875C143.73681640625,93.4755859375,144.099853515625,95.01806640625,144.27880859375,95.80712890625C144.359375,96.15966796875,144.4267578125,96.48486328125,144.48486328125,96.7880859375C145.291259765625,96.20849609375,146.0439453125,95.56640625,146.73388671875,94.857421875C146.48291015625,93.8720703125,146.137939453125,92.7666015625,145.649658203125,91.58935546875C145.058349609375,90.16259765625,144.395263671875,88.962890625,143.78173828125,87.99560546875C144.699951171875,87.83056640625,145.981201171875,87.70556640625,147.486328125,87.87060546875C148.722900390625,88.0087890625,149.780029296875,88.3076171875,150.626708984375,88.62841796875C150.890869140625,87.8837890625,151.1015625,87.11279296875,151.262939453125,86.3232421875C150.00390625,85.88623046875,148.364501953125,85.48046875,146.42919921875,85.39599609375C144.910400390625,85.3291015625,143.5888671875,85.47607421875,142.5361328125,85.6767578125C142.365966796875,85.40478515625,142.137451171875,85.08837890625,141.832763671875,84.76708984375C141.465576171875,84.375,141.09814453125,84.0849609375,140.7890625,83.8798828125C142.8720703125,83.2734375,144.650634765625,83.1220703125,145.89599609375,83.10400390625C147.065185546875,83.08642578125,148.498779296875,83.07763671875,150.2548828125,83.63037109375C150.74755859375,83.7861328125,151.18212890625,83.96044921875,151.545166015625,84.12060546875C151.572021484375,83.7509765625,151.580810546875,83.3759765625,151.580810546875,82.9970703125L151.580810546875,81.5478515625C149.51123046875,80.892578125,146.22314453125,80.21923828125,142.437744140625,81.0263671875C141.1923828125,81.28955078125,140.09912109375,81.6728515625,139.16748046875,82.07861328125C138.37890625,81.458984375,137.590576171875,80.8388671875,136.802001953125,80.21923828125C139.032958984375,79.220703125,144.12646484375,77.3251953125,150.192138671875,78.640625ZM134.548583984375,81.42333984375C135.24755859375,81.93603515625,135.946533203125,82.4443359375,136.645263671875,82.95703125C135.897216796875,83.4697265625,135.14892578125,83.97802734375,134.4052734375,84.49072265625C133.742431640625,83.96484375,133.074951171875,83.4384765625,132.411865234375,82.91259765625C133.124267578125,82.41748046875,133.83642578125,81.91796875,134.548583984375,81.42333984375ZM131.0185546875,87.80810546875C130.261474609375,87.4560546875,129.50439453125,87.10791015625,128.74755859375,86.755859375C129.32080078125,86.06494140625,129.8896484375,85.37353515625,130.458740234375,84.67822265625C131.2470703125,85.1015625,132.03564453125,85.525390625,132.823974609375,85.94873046875C132.2236328125,86.568359375,131.618896484375,87.1884765625,131.0185546875,87.80810546875ZM134.593505859375,91.18798828125C134.024658203125,90.5771484375,133.460205078125,89.96630859375,132.895751953125,89.35986328125C133.415283203125,88.7490234375,133.9306640625,88.13818359375,134.4501953125,87.53173828125C135.023681640625,88.05810546875,135.592529296875,88.583984375,136.161376953125,89.1103515625C135.641845703125,89.80126953125,135.11767578125,90.49267578125,134.593505859375,91.18798828125ZM138.593994140625,84.67822265625C139.162841796875,85.369140625,139.736328125,86.060546875,140.30517578125,86.755859375C139.548095703125,87.10791015625,138.791015625,87.46044921875,138.033935546875,87.80810546875C137.42919921875,87.1884765625,136.828857421875,86.568359375,136.228759765625,85.94873046875C137.01708984375,85.525390625,137.8056640625,85.1015625,138.593994140625,84.67822265625Z" class="cls-2" style="fill: rgb(69, 69, 69); fill-opacity: 1;"/></g></g><g id="shape-b5f7ee28-226f-805a-8006-f4b41b368642"><g class="fills" id="fills-b5f7ee28-226f-805a-8006-f4b41b368642"><rect width="5.129369602507268" height="3.865798051443562" class="cls-2" x="76.83546000806382" transform="matrix(1.000000, 0.000000, 0.000000, 1.000000, 0.000000, 0.000000)" style="fill: rgb(69, 69, 69); fill-opacity: 1;" ry="0" rx="0" y="60.01189091580454"/></g></g><g id="shape-b5f7ee28-226f-805a-8006-f4b41b368643"><g class="fills" id="fills-b5f7ee28-226f-805a-8006-f4b41b368643"><path d="M94.593505859375,76.951171875L88.30810546875,76.951171875L88.30810546875,74.146484375C88.30810546875,72.5546875,87.91845703125,71.18115234375,87.138916015625,70.03076171875C86.359619140625,68.88037109375,85.30224609375,67.98876953125,83.96728515625,67.35986328125C82.63232421875,66.7314453125,81.113525390625,66.4150390625,79.415771484375,66.4150390625C78.60498046875,66.4150390625,77.78955078125,66.47705078125,76.969970703125,66.6064453125C76.150146484375,66.73583984375,75.3125,66.896484375,74.465576171875,67.0927734375L74.9091796875,71.07861328125C75.738037109375,70.962890625,76.490478515625,70.8779296875,77.16259765625,70.8291015625C77.83447265625,70.77978515625,78.36767578125,70.75341796875,78.76171875,70.75341796875C80.34326171875,70.75341796875,81.48095703125,71.04296875,82.1708984375,71.62255859375C82.86083984375,72.2021484375,83.210205078125,73.044921875,83.210205078125,74.146484375L83.210205078125,76.951171875L69.39453125,76.951171875L69.39453125,74.76611328125C69.39453125,73.58447265625,69.23779296875,72.48779296875,68.919677734375,71.4755859375C68.6015625,70.46337890625,68.126953125,69.576171875,67.4951171875,68.818359375C66.86328125,68.06005859375,66.070556640625,67.4716796875,65.12060546875,67.0478515625C64.171142578125,66.62451171875,63.07373046875,66.4150390625,61.828125,66.4150390625C60.582763671875,66.4150390625,59.49853515625,66.59326171875,58.580322265625,66.9453125C57.661865234375,67.2978515625,56.815185546875,67.8193359375,56.044921875,68.51025390625C55.448974609375,69.041015625,54.857421875,69.66064453125,54.26611328125,70.365234375L54.26611328125,60.6005859375L49.168212890625,60.6005859375L49.168212890625,76.951171875L47.062744140625,76.951171875L47.062744140625,81.25830078125L99.69140625,81.25830078125L99.69140625,60.6005859375L94.593505859375,60.6005859375L94.593505859375,76.951171875ZM54.270751953125,75.03369140625C54.40966796875,74.86865234375,54.552978515625,74.69921875,54.70068359375,74.52978515625C55.26513671875,73.87890625,55.883544921875,73.2724609375,56.555419921875,72.70166015625C57.2275390625,72.130859375,57.94873046875,71.658203125,58.71923828125,71.28369140625C59.48974609375,70.9091796875,60.29150390625,70.72216796875,61.120361328125,70.72216796875C61.751953125,70.72216796875,62.3076171875,70.8515625,62.7822265625,71.10546875C63.25732421875,71.359375,63.62890625,71.77880859375,63.893310546875,72.3583984375C64.162109375,72.93798828125,64.2919921875,73.74072265625,64.2919921875,74.76171875L64.2919921875,76.9462890625L54.270751953125,76.9462890625L54.270751953125,75.029296875Z" class="cls-2" style="fill: rgb(69, 69, 69); fill-opacity: 1;"/></g></g><g id="shape-b5f7ee28-226f-805a-8006-f4b41b368644"><g class="fills" id="fills-b5f7ee28-226f-805a-8006-f4b41b368644"><rect width="5.071132218373805" height="20.65771899923311" class="cls-2" x="104.20255075192108" transform="matrix(1.000000, 0.000000, 0.000000, 1.000000, 0.000000, 0.000000)" style="fill: rgb(69, 69, 69); fill-opacity: 1;" ry="0" rx="0" y="60.60045532502045"/></g></g><g id="shape-b5f7ee28-226f-805a-8006-f4b41b368645"><g class="fills" id="fills-b5f7ee28-226f-805a-8006-f4b41b368645"><path d="M49.638671875,93.98828125L49.638671875,85.921875L47,85.921875L47,84.25439453125L54.1630859375,84.25439453125L54.1630859375,85.921875L51.6142578125,85.921875L51.6142578125,93.98828125L49.638671875,93.98828125Z" class="cls-1" style="fill: rgb(69, 69, 69); fill-opacity: 1;"/></g></g><g id="shape-b5f7ee28-226f-805a-8006-f4b41b368646"><g class="fills" id="fills-b5f7ee28-226f-805a-8006-f4b41b368646"><path d="M55.23828125,93.98828125L55.23828125,84.25439453125L57.2138671875,84.25439453125L57.2138671875,88.31640625L61.00830078125,88.31640625L61.00830078125,84.25439453125L62.98388671875,84.25439453125L62.98388671875,93.98828125L61.00830078125,93.98828125L61.00830078125,89.970703125L57.2138671875,89.970703125L57.2138671875,93.98828125L55.23828125,93.98828125Z" class="cls-1" style="fill: rgb(69, 69, 69); fill-opacity: 1;"/></g></g><g id="shape-b5f7ee28-226f-805a-8006-f4b41b368647"><g class="fills" id="fills-b5f7ee28-226f-805a-8006-f4b41b368647"><path d="M64.789306640625,93.98828125L64.789306640625,84.25439453125L71.28955078125,84.25439453125L71.28955078125,85.89111328125L66.764892578125,85.89111328125L66.764892578125,88.25830078125L70.42919921875,88.25830078125L70.42919921875,89.8681640625L66.764892578125,89.8681640625L66.764892578125,92.3515625L71.28955078125,92.3515625L71.28955078125,93.98828125L64.789306640625,93.98828125Z" class="cls-1" style="fill: rgb(69, 69, 69); fill-opacity: 1;"/></g></g><g id="shape-b5f7ee28-226f-805a-8006-f4b41b368648"><g class="fills" id="fills-b5f7ee28-226f-805a-8006-f4b41b368648"><path d="M72.67822265625,93.98828125L72.67822265625,84.25439453125L74.65380859375,84.25439453125L74.65380859375,92.3203125L78.519775390625,92.3203125L78.519775390625,93.98828125L72.67822265625,93.98828125Z" class="cls-1" style="fill: rgb(69, 69, 69); fill-opacity: 1;"/></g></g><g id="shape-b5f7ee28-226f-805a-8006-f4b41b368649"><g class="fills" id="fills-b5f7ee28-226f-805a-8006-f4b41b368649"><rect width="1.9755912617515605" height="9.733606858477287" class="cls-1" x="79.5815766598871" transform="matrix(1.000000, 0.000000, 0.000000, 1.000000, 0.000000, 0.000000)" style="fill: rgb(69, 69, 69); fill-opacity: 1;" ry="0" rx="0" y="84.25450222571817"/></g></g><g id="shape-b5f7ee28-226f-805a-8006-f4b41b36864a"><g class="fills" id="fills-b5f7ee28-226f-805a-8006-f4b41b36864a"><path d="M83.3759765625,93.98828125L83.3759765625,84.25439453125L85.951904296875,84.25439453125L89.09228515625,91.09423828125L89.34765625,91.09423828125L89.34765625,84.25439453125L91.3232421875,84.25439453125L91.3232421875,93.98828125L88.774169921875,93.98828125L85.611328125,87.0322265625L85.3515625,87.0322265625L85.3515625,93.98828125L83.3759765625,93.98828125Z" class="cls-1" style="fill: rgb(69, 69, 69); fill-opacity: 1;"/></g></g><g id="shape-b5f7ee28-226f-805a-8006-f4b41b36864b"><g class="fills" id="fills-b5f7ee28-226f-805a-8006-f4b41b36864b"><path d="M93.12841796875,93.98828125L93.12841796875,84.25439453125L99.628662109375,84.25439453125L99.628662109375,85.89111328125L95.10400390625,85.89111328125L95.10400390625,88.25830078125L98.773193359375,88.25830078125L98.773193359375,89.8681640625L95.10400390625,89.8681640625L95.10400390625,92.3515625L99.628662109375,92.3515625L99.628662109375,93.98828125L93.12841796875,93.98828125Z" class="cls-1" style="fill: rgb(69, 69, 69); fill-opacity: 1;"/></g></g><g id="shape-b5f7ee28-226f-805a-8006-f4b41b36864c"><g class="fills" id="fills-b5f7ee28-226f-805a-8006-f4b41b36864c"><path d="M102.4912109375,93.98828125L102.4912109375,91.44677734375L101.66259765625,91.44677734375L101.66259765625,90.92041015625L103.915771484375,90.92041015625L103.915771484375,91.44677734375L103.114013671875,91.44677734375L103.114013671875,93.98828125L102.4912109375,93.98828125Z" class="cls-1" style="fill: rgb(69, 69, 69); fill-opacity: 1;"/></g></g><g id="shape-b5f7ee28-226f-805a-8006-f4b41b36864d"><g class="fills" id="fills-b5f7ee28-226f-805a-8006-f4b41b36864d"><path d="M104.25634765625,93.98828125L104.25634765625,90.92041015625L105.25537109375,90.92041015625L105.8779296875,92.966796875L106.4873046875,90.92041015625L107.504150390625,90.92041015625L107.504150390625,93.98828125L106.881591796875,93.98828125L106.881591796875,91.71435546875L106.818603515625,91.71435546875L106.173583984375,93.90771484375L105.586669921875,93.90771484375L104.941650390625,91.71435546875L104.879150390625,91.71435546875L104.879150390625,93.98828125L104.25634765625,93.98828125Z" class="cls-1" style="fill: rgb(69, 69, 69); fill-opacity: 1;"/></g></g></g><g id="shape-b5f7ee28-226f-805a-8006-f4b49f86018a" width="16" height="16" rx="0" ry="0" style="fill: rgb(0, 0, 0);"><g id="shape-b5f7ee28-226f-805a-8006-f4b49f8c3842"><g class="fills" id="fills-b5f7ee28-226f-805a-8006-f4b49f8c3842"><path d="M183.5,129L176.5,129C175.671630859375,129,175,129.67138671875,175,130.5L175,135.52685546875L175.9619140625,134.8271484375C176.58349609375,134.37548828125,177.426513671875,134.3818359375,178.041015625,134.8427734375L178.968994140625,135.5390625L181.3369140625,133.5087890625C182.0107421875,132.93212890625,183.010009765625,132.9501953125,183.662109375,133.5517578125L185,134.787109375L185,130.5C185,129.67138671875,184.328369140625,129,183.5,129M186.5,136.498046875L186.5,130.5C186.5,128.84326171875,185.15673828125,127.5,183.5,127.5L176.5,127.5C174.84326171875,127.5,173.5,128.84326171875,173.5,130.5L173.5,137.5C173.5,139.15673828125,174.84326171875,140.5,176.5,140.5L183.5,140.5C185.15673828125,140.5,186.5,139.15673828125,186.5,137.5ZM185,136.828125L182.64501953125,134.65380859375C182.5517578125,134.568359375,182.4091796875,134.5654296875,182.31298828125,134.64794921875L179.488037109375,137.06982421875L179.031005859375,137.4619140625L178.550048828125,137.10107421875L177.139892578125,136.0439453125C177.052490234375,135.978515625,176.9326171875,135.97802734375,176.843994140625,136.0419921875L175,137.380859375L175,137.5C175,138.32861328125,175.671630859375,139,176.5,139L183.5,139C184.328369140625,139,185,138.32861328125,185,137.5ZM179.5,132C179.5,132.82861328125,178.828369140625,133.5,178,133.5C177.171630859375,133.5,176.5,132.82861328125,176.5,132C176.5,131.17138671875,177.171630859375,130.5,178,130.5C178.828369140625,130.5,179.5,131.17138671875,179.5,132" fill-rule="evenodd" clip-rule="evenodd" style="fill: rgb(255, 255, 255); fill-opacity: 1;"/></g></g></g><g id="shape-b5f7ee28-226f-805a-8006-f4b4c4eefe12"><g transform="matrix(1.000000, 0.000000, 0.000000, 1.000000, 0.000000, 0.000000)" class="text-container" x="144.5" y="122.5" width="25" height="23" rx="0" ry="0"><defs><pattern patternUnits="objectBoundingBox" width="8.390625" height="29" id="fill-0-render-22-0"><g><rect width="8.390625" height="29" style="fill: rgb(255, 255, 255); fill-opacity: 1;"/></g></pattern></defs><g class="fills" id="fills-b5f7ee28-226f-805a-8006-f4b4c4eefe12"><text x="169.5" y="147.5" dominant-baseline="ideographic" textLength="8.390625" lengthAdjust="spacingAndGlyphs" style="text-transform: none; font-family: Cairo; letter-spacing: normal; font-style: normal; font-weight: 500; white-space: pre; font-size: 15px; text-decoration: rgb(255, 255, 255); direction: rtl; fill: rgb(255, 255, 255); fill-opacity: 1;">0</text></g></g></g></g></svg>