<svg width="139.296" xmlns="http://www.w3.org/2000/svg" height="139" id="screenshot-329950f3-4367-803f-8006-f260c809bc55" viewBox="-27 -27 139.296 139" xmlns:xlink="http://www.w3.org/1999/xlink" fill="none" version="1.1"><g id="shape-329950f3-4367-803f-8006-f260c809bc55" width="20" height="20" rx="0" ry="0" style="fill: rgb(0, 0, 0);"><g id="shape-329950f3-4367-803f-8006-f260c809bc56"><defs><filter id="filter-render-2" x="-0.36836769591557716" y="-0.3698630136986301" width="1.9004543677936332" height="1.904109589041096" filterUnits="objectBoundingBox" color-interpolation-filters="sRGB"><feFlood flood-opacity="0" result="BackgroundImageFix"/><feColorMatrix in="SourceAlpha" type="matrix" values="0 0 0 0 0 0 0 0 0 0 0 0 0 0 0 0 0 0 127 0"/><feOffset dx="4" dy="4"/><feGaussianBlur stdDeviation="2"/><feColorMatrix type="matrix" values="0 0 0 0 0 0 0 0 0 0 0 0 0 0 0 0 0 0 0.2 0"/><feBlend mode="normal" in2="BackgroundImageFix" result="filter_329950f3-4367-803f-8006-f260ba480a10"/><feBlend mode="normal" in="SourceGraphic" in2="filter_329950f3-4367-803f-8006-f260ba480a10" result="shape"/></filter><filter id="filter-shadow-render-2" x="-0.36836769591557716" y="-0.3698630136986301" width="1.9004543677936332" height="1.904109589041096" filterUnits="objectBoundingBox" color-interpolation-filters="sRGB"><feFlood flood-opacity="0" result="BackgroundImageFix"/><feColorMatrix in="SourceAlpha" type="matrix" values="0 0 0 0 0 0 0 0 0 0 0 0 0 0 0 0 0 0 127 0"/><feOffset dx="4" dy="4"/><feGaussianBlur stdDeviation="2"/><feColorMatrix type="matrix" values="0 0 0 0 0 0 0 0 0 0 0 0 0 0 0 0 0 0 0.2 0"/><feBlend mode="normal" in2="BackgroundImageFix" result="filter_329950f3-4367-803f-8006-f260ba480a10"/><feBlend mode="normal" in="SourceGraphic" in2="filter_329950f3-4367-803f-8006-f260ba480a10" result="shape"/></filter></defs><g class="fills" id="fills-329950f3-4367-803f-8006-f260c809bc56"><path d="M27.486026763916016,45.625C27.486026763916016,48.14501953125,25.435001373291016,50.18798828125,22.905216217041016,50.18798828125C20.375186920166016,50.18798828125,18.323917388916016,48.14501953125,18.323917388916016,45.625C18.323917388916016,43.10546875,20.375186920166016,41.0625,22.905216217041016,41.0625C25.435001373291016,41.0625,27.486026763916016,43.10546875,27.486026763916016,45.625M50.391056060791016,50.18798828125C52.921085357666016,50.18798828125,54.972354888916016,48.14501953125,54.972354888916016,45.625C54.972354888916016,43.10546875,52.921085357666016,41.0625,50.391056060791016,41.0625C47.861270904541016,41.0625,45.810245513916016,43.10546875,45.810245513916016,45.625C45.810245513916016,48.14501953125,47.861270904541016,50.18798828125,50.391056060791016,50.18798828125M27.486026763916016,52.46875C27.486026763916016,51.2080078125,28.511661529541016,50.18798828125,29.776554107666016,50.18798828125L43.519718170166016,50.18798828125C44.784610748291016,50.18798828125,45.810245513916016,51.2080078125,45.810245513916016,52.46875C45.810245513916016,53.72998046875,44.784610748291016,54.75048828125,43.519718170166016,54.75048828125L29.776554107666016,54.75048828125C28.511661529541016,54.75048828125,27.486026763916016,53.72998046875,27.486026763916016,52.46875M9.162052154541016,0C4.102237701416016,0,0.00018687576812226325,4.0859375,0.00018687576812226325,9.12548828125L0.00018687576812226325,57.03125C0.00018687576812226325,60.81201171875,3.0766029357910156,63.875,6.871280670166016,63.875L9.162052154541016,63.875L9.162052154541016,66.15673828125C9.162052154541016,69.9375,12.238712310791016,73.00048828125,16.033390045166016,73.00048828125L20.614688873291016,73.00048828125C24.409366607666016,73.00048828125,27.486026763916016,69.9375,27.486026763916016,66.15673828125L27.486026763916016,63.875L45.810245513916016,63.875L45.810245513916016,66.15673828125C45.810245513916016,69.9375,48.886905670166016,73.00048828125,52.681583404541016,73.00048828125L57.262882232666016,73.00048828125C61.057559967041016,73.00048828125,64.13421630859375,69.9375,64.13421630859375,66.15673828125L64.13421630859375,63.875L66.42498779296875,63.875C70.21966552734375,63.875,73.29632568359375,60.81201171875,73.29632568359375,57.03125L73.29632568359375,9.12548828125C73.29632568359375,4.0859375,69.19403076171875,0,64.13421630859375,0ZM50.391056060791016,66.15673828125L50.391056060791016,63.875L59.553165435791016,63.875L59.553165435791016,66.15673828125C59.553165435791016,67.41748046875,58.527530670166016,68.4375,57.262882232666016,68.4375L52.681583404541016,68.4375C51.416690826416016,68.4375,50.391056060791016,67.41748046875,50.391056060791016,66.15673828125M22.905216217041016,63.875L22.905216217041016,66.15673828125C22.905216217041016,67.41748046875,21.879581451416016,68.4375,20.614688873291016,68.4375L16.033390045166016,68.4375C14.768741607666016,68.4375,13.743106842041016,67.41748046875,13.743106842041016,66.15673828125L13.743106842041016,63.875ZM4.580997467041016,9.12548828125C4.580997467041016,6.60546875,6.632266998291016,4.56298828125,9.162052154541016,4.56298828125L64.13421630859375,4.56298828125C66.66400146484375,4.56298828125,68.71527099609375,6.60546875,68.71527099609375,9.12548828125L68.71527099609375,57.03125C68.71527099609375,58.29248046875,67.68963623046875,59.31298828125,66.42498779296875,59.31298828125L64.13421630859375,59.31298828125L64.13421630859375,35.341796875C64.13421630859375,34.408203125,64.02044677734375,33.486328125,63.790958404541016,32.57763671875L60.355167388916016,18.8720703125C59.589054107666016,15.82177734375,56.836612701416016,13.68310546875,53.680606842041016,13.68798828125L19.611515045166016,13.68798828125C16.458438873291016,13.68798828125,13.710391998291016,15.82470703125,12.945743560791016,18.8720703125L9.505313873291016,32.57763671875C9.278263092041016,33.4814453125,9.163272857666016,34.408203125,9.162052154541016,35.341796875L9.162052154541016,59.31298828125L6.871280670166016,59.31298828125C5.606632232666016,59.31298828125,4.580997467041016,58.29248046875,4.580997467041016,57.03125ZM13.743106842041016,59.31298828125L13.743106842041016,36.50048828125L59.553165435791016,36.50048828125L59.553165435791016,59.31298828125ZM14.383731842041016,31.93798828125L17.389102935791016,19.9794921875C17.643985748291016,18.9658203125,18.556827545166016,18.2529296875,19.606876373291016,18.25L53.680606842041016,18.25C54.731876373291016,18.25,55.647647857666016,18.962890625,55.901554107666016,19.9794921875L58.912540435791016,31.93798828125Z" filter="url(#filter-render-2)" style="fill: rgb(255, 255, 255); fill-opacity: 1;"/></g></g></g></svg>