<svg width="139.296" xmlns="http://www.w3.org/2000/svg" height="139" id="screenshot-329950f3-4367-803f-8006-f2605a99d655" viewBox="-27 -27 139.296 139" xmlns:xlink="http://www.w3.org/1999/xlink" fill="none" version="1.1"><g id="shape-329950f3-4367-803f-8006-f2605a99d655" width="20" height="20" rx="0" ry="0" style="fill: rgb(0, 0, 0);"><g id="shape-329950f3-4367-803f-8006-f2605a9d159b"><defs><filter id="filter-render-2" x="-0.36836769591557716" y="-0.3698630136986301" width="1.9004543677936332" height="1.904109589041096" filterUnits="objectBoundingBox" color-interpolation-filters="sRGB"><feFlood flood-opacity="0" result="BackgroundImageFix"/><feColorMatrix in="SourceAlpha" type="matrix" values="0 0 0 0 0 0 0 0 0 0 0 0 0 0 0 0 0 0 127 0"/><feOffset dx="4" dy="4"/><feGaussianBlur stdDeviation="2"/><feColorMatrix type="matrix" values="0 0 0 0 0 0 0 0 0 0 0 0 0 0 0 0 0 0 0.2 0"/><feBlend mode="normal" in2="BackgroundImageFix" result="filter_329950f3-4367-803f-8006-f260ba480a10"/><feBlend mode="normal" in="SourceGraphic" in2="filter_329950f3-4367-803f-8006-f260ba480a10" result="shape"/></filter><filter id="filter-shadow-render-2" x="-0.36836769591557716" y="-0.3698630136986301" width="1.9004543677936332" height="1.904109589041096" filterUnits="objectBoundingBox" color-interpolation-filters="sRGB"><feFlood flood-opacity="0" result="BackgroundImageFix"/><feColorMatrix in="SourceAlpha" type="matrix" values="0 0 0 0 0 0 0 0 0 0 0 0 0 0 0 0 0 0 127 0"/><feOffset dx="4" dy="4"/><feGaussianBlur stdDeviation="2"/><feColorMatrix type="matrix" values="0 0 0 0 0 0 0 0 0 0 0 0 0 0 0 0 0 0 0.2 0"/><feBlend mode="normal" in2="BackgroundImageFix" result="filter_329950f3-4367-803f-8006-f260ba480a10"/><feBlend mode="normal" in="SourceGraphic" in2="filter_329950f3-4367-803f-8006-f260ba480a10" result="shape"/></filter></defs><g class="fills" id="fills-329950f3-4367-803f-8006-f2605a9d159b"><path d="M27.486083984375,45.625C27.486083984375,48.14501953125,25.43505859375,50.18798828125,22.9052734375,50.18798828125C20.375244140625,50.18798828125,18.323974609375,48.14501953125,18.323974609375,45.625C18.323974609375,43.10546875,20.375244140625,41.0625,22.9052734375,41.0625C25.43505859375,41.0625,27.486083984375,43.10546875,27.486083984375,45.625M50.39111328125,50.18798828125C52.921142578125,50.18798828125,54.972412109375,48.14501953125,54.972412109375,45.625C54.972412109375,43.10546875,52.921142578125,41.0625,50.39111328125,41.0625C47.861328125,41.0625,45.810302734375,43.10546875,45.810302734375,45.625C45.810302734375,48.14501953125,47.861328125,50.18798828125,50.39111328125,50.18798828125M27.486083984375,52.46875C27.486083984375,51.2080078125,28.51171875,50.18798828125,29.776611328125,50.18798828125L43.519775390625,50.18798828125C44.78466796875,50.18798828125,45.810302734375,51.2080078125,45.810302734375,52.46875C45.810302734375,53.72998046875,44.78466796875,54.75048828125,43.519775390625,54.75048828125L29.776611328125,54.75048828125C28.51171875,54.75048828125,27.486083984375,53.72998046875,27.486083984375,52.46875M9.162109375,0C4.102294921875,0,0,4.0859375,0,9.12548828125L0,57.03125C0,60.81201171875,3.07666015625,63.875,6.871337890625,63.875L9.162109375,63.875L9.162109375,66.15673828125C9.162109375,69.9375,12.23876953125,73.00048828125,16.033447265625,73.00048828125L20.61474609375,73.00048828125C24.409423828125,73.00048828125,27.486083984375,69.9375,27.486083984375,66.15673828125L27.486083984375,63.875L45.810302734375,63.875L45.810302734375,66.15673828125C45.810302734375,69.9375,48.886962890625,73.00048828125,52.681640625,73.00048828125L57.262939453125,73.00048828125C61.0576171875,73.00048828125,64.13427734375,69.9375,64.13427734375,66.15673828125L64.13427734375,63.875L66.425048828125,63.875C70.2197265625,63.875,73.296142578125,60.81201171875,73.296142578125,57.03125L73.296142578125,9.12548828125C73.296142578125,4.0859375,69.194091796875,0,64.13427734375,0ZM50.39111328125,66.15673828125L50.39111328125,63.875L59.55322265625,63.875L59.55322265625,66.15673828125C59.55322265625,67.41748046875,58.527587890625,68.4375,57.262939453125,68.4375L52.681640625,68.4375C51.416748046875,68.4375,50.39111328125,67.41748046875,50.39111328125,66.15673828125M22.9052734375,63.875L22.9052734375,66.15673828125C22.9052734375,67.41748046875,21.879638671875,68.4375,20.61474609375,68.4375L16.033447265625,68.4375C14.768798828125,68.4375,13.7431640625,67.41748046875,13.7431640625,66.15673828125L13.7431640625,63.875ZM4.5810546875,9.12548828125C4.5810546875,6.60546875,6.63232421875,4.56298828125,9.162109375,4.56298828125L64.13427734375,4.56298828125C66.6640625,4.56298828125,68.71533203125,6.60546875,68.71533203125,9.12548828125L68.71533203125,57.03125C68.71533203125,58.29248046875,67.689697265625,59.31298828125,66.425048828125,59.31298828125L64.13427734375,59.31298828125L64.13427734375,35.341796875C64.13427734375,34.408203125,64.020263671875,33.486328125,63.791015625,32.57763671875L60.355224609375,18.8720703125C59.589111328125,15.82177734375,56.83642578125,13.68310546875,53.6806640625,13.68798828125L19.611328125,13.68798828125C16.45849609375,13.68798828125,13.71044921875,15.82470703125,12.94580078125,18.8720703125L9.50537109375,32.57763671875C9.2783203125,33.4814453125,9.1630859375,34.408203125,9.162109375,35.341796875L9.162109375,59.31298828125L6.871337890625,59.31298828125C5.606689453125,59.31298828125,4.5810546875,58.29248046875,4.5810546875,57.03125ZM13.7431640625,59.31298828125L13.7431640625,36.50048828125L59.55322265625,36.50048828125L59.55322265625,59.31298828125ZM14.3837890625,31.93798828125L17.38916015625,19.9794921875C17.64404296875,18.9658203125,18.556884765625,18.2529296875,19.60693359375,18.25L53.6806640625,18.25C54.73193359375,18.25,55.647705078125,18.962890625,55.901611328125,19.9794921875L58.91259765625,31.93798828125Z" filter="url(#filter-render-2)" style="fill: rgb(255, 255, 255); fill-opacity: 1;"/></g></g></g></svg>