<svg width="176.5" xmlns="http://www.w3.org/2000/svg" height="181.417" id="screenshot-329950f3-4367-803f-8006-f26058cb1d2e" viewBox="-32 -32 176.5 181.417" xmlns:xlink="http://www.w3.org/1999/xlink" fill="none" version="1.1"><g id="shape-329950f3-4367-803f-8006-f26058cb1d2e" filter="url(#filter-render-1)" width="24" height="24" rx="0" ry="0" style="fill: rgb(0, 0, 0);"><defs><filter id="filter-render-1" x="-0.3050847457627119" y="-0.28902765388047136" width="1.7457627118644068" height="1.70651204281893" filterUnits="objectBoundingBox" color-interpolation-filters="sRGB"><feFlood flood-opacity="0" result="BackgroundImageFix"/><feColorMatrix in="SourceAlpha" type="matrix" values="0 0 0 0 0 0 0 0 0 0 0 0 0 0 0 0 0 0 127 0"/><feOffset dx="4" dy="4"/><feGaussianBlur stdDeviation="2"/><feColorMatrix type="matrix" values="0 0 0 0 0 0 0 0 0 0 0 0 0 0 0 0 0 0 0.2 0"/><feBlend mode="normal" in2="BackgroundImageFix" result="filter_329950f3-4367-803f-8006-f260af55fbea"/><feBlend mode="normal" in="SourceGraphic" in2="filter_329950f3-4367-803f-8006-f260af55fbea" result="shape"/></filter><filter id="filter-shadow-render-1" x="-0.3050847457627119" y="-0.28902765388047136" width="1.7457627118644068" height="1.70651204281893" filterUnits="objectBoundingBox" color-interpolation-filters="sRGB"><feFlood flood-opacity="0" result="BackgroundImageFix"/><feColorMatrix in="SourceAlpha" type="matrix" values="0 0 0 0 0 0 0 0 0 0 0 0 0 0 0 0 0 0 127 0"/><feOffset dx="4" dy="4"/><feGaussianBlur stdDeviation="2"/><feColorMatrix type="matrix" values="0 0 0 0 0 0 0 0 0 0 0 0 0 0 0 0 0 0 0.2 0"/><feBlend mode="normal" in2="BackgroundImageFix" result="filter_329950f3-4367-803f-8006-f260af55fbea"/><feBlend mode="normal" in="SourceGraphic" in2="filter_329950f3-4367-803f-8006-f260af55fbea" result="shape"/></filter></defs><g id="shape-329950f3-4367-803f-8006-f26058d02963"><g class="fills" id="fills-329950f3-4367-803f-8006-f26058d02963"><path d="M0,11.0625C0,4.95263671875,4.952880859375,0,11.0625,0L77.4375,0C83.547119140625,0,88.5,4.95263671875,88.5,11.0625L88.5,77.4375C88.5,79.47314453125,86.849365234375,81.125,84.8125,81.125L79.895751953125,81.125L79.895751953125,40.5625C79.895751953125,40.0224609375,79.837158203125,39.4892578125,79.71923828125,38.9638671875L76.085693359375,22.6123046875C74.58544921875,15.86376953125,68.601806640625,11.0625,61.68994140625,11.0625L26.81005859375,11.0625C19.897216796875,11.06494140625,13.912353515625,15.8662109375,12.414306640625,22.6171875L8.77587890625,38.9638671875C8.66064453125,39.4892578125,8.60302734375,40.02490234375,8.604248046875,40.5625L8.604248046875,81.125L3.6875,81.125C1.650634765625,81.125,0,79.47314453125,0,77.4375ZM26.81005859375,14.75C21.625732421875,14.75,17.137451171875,18.35107421875,16.013916015625,23.4140625L12.37548828125,39.76025390625C12.3251953125,40.02490234375,12.297607421875,40.29345703125,12.291748046875,40.5625L12.291748046875,84.8125C12.291748046875,89.5615234375,16.14599609375,93.41650390625,20.895751953125,93.41650390625L28.270751953125,93.41650390625C33.023193359375,93.41650390625,36.875,89.5634765625,36.875,84.8125L36.875,81.125L51.625,81.125L51.625,84.8125C51.625,89.5615234375,55.4794921875,93.41650390625,60.229248046875,93.41650390625L67.604248046875,93.41650390625C72.3564453125,93.41650390625,76.208251953125,89.5634765625,76.208251953125,84.8125L76.208251953125,40.5625C76.200927734375,40.29345703125,76.171142578125,40.02490234375,76.11962890625,39.76025390625L72.486083984375,23.4140625C71.362548828125,18.35107421875,66.874267578125,14.75,61.68994140625,14.75ZM23.211181640625,25.01025390625C23.5869140625,23.3251953125,25.082763671875,22.125,26.81005859375,22.125L61.68994140625,22.125C63.417236328125,22.125,64.9130859375,23.3251953125,65.288818359375,25.01025390625L67.92333984375,36.875L20.57666015625,36.875ZM19.666748046875,84.8125L19.666748046875,81.125L29.5,81.125L29.5,84.8125C29.5,85.4921875,28.950439453125,86.04150390625,28.270751953125,86.04150390625L20.895751953125,86.04150390625C20.21630859375,86.04150390625,19.666748046875,85.4921875,19.666748046875,84.8125M68.833251953125,81.125L68.833251953125,84.8125C68.833251953125,85.4921875,68.28369140625,86.04150390625,67.604248046875,86.04150390625L60.229248046875,86.04150390625C59.549560546875,86.04150390625,59,85.4921875,59,84.8125L59,81.125ZM38.104248046875,66.375L50.395751953125,66.375C52.432861328125,66.375,54.083251953125,68.02685546875,54.083251953125,70.0625C54.083251953125,72.09814453125,52.432861328125,73.75,50.395751953125,73.75L38.104248046875,73.75C36.067138671875,73.75,34.416748046875,72.09814453125,34.416748046875,70.0625C34.416748046875,68.02685546875,36.067138671875,66.375,38.104248046875,66.375M34.440673828125,54.08349609375C34.440673828125,56.798828125,32.240478515625,59,29.52392578125,59C26.80859375,59,24.607421875,56.798828125,24.607421875,54.08349609375C24.607421875,51.3681640625,26.80859375,49.16650390625,29.52392578125,49.16650390625C32.240478515625,49.16650390625,34.440673828125,51.3681640625,34.440673828125,54.08349609375M59,59C56.28466796875,59,54.083251953125,56.798828125,54.083251953125,54.08349609375C54.083251953125,51.3681640625,56.28466796875,49.16650390625,59,49.16650390625C61.71533203125,49.16650390625,63.916748046875,51.3681640625,63.916748046875,54.08349609375C63.916748046875,56.798828125,61.71533203125,59,59,59" style="fill: rgb(255, 255, 255); fill-opacity: 1;"/></g></g></g></svg>