<svg width="42" xmlns="http://www.w3.org/2000/svg" height="41" id="screenshot-329950f3-4367-803f-8006-f25ebcc5cef6" viewBox="0 0 42 41" xmlns:xlink="http://www.w3.org/1999/xlink" fill="none" version="1.1"><g id="shape-329950f3-4367-803f-8006-f25ebcc5cef6" width="24" height="24" rx="0" ry="0" style="fill: rgb(0, 0, 0);"><g id="shape-329950f3-4367-803f-8006-f25ebcc5cf06"><g class="fills" id="fills-329950f3-4367-803f-8006-f25ebcc5cf06"><path d="M2.6953125,17.8125L32.802490234375,17.8125L19.649169921875,4.626953125C18.59814453125,3.5732421875,18.59814453125,1.84375,19.649169921875,0.7900390625C20.15283203125,0.2841796875,20.83642578125,0,21.54931640625,0C22.26220703125,0,22.9462890625,0.2841796875,23.449462890625,0.7900390625L41.2119140625,18.595703125C41.71630859375,19.1005859375,42,19.78564453125,42,20.50048828125C42,21.21533203125,41.71630859375,21.900390625,41.2119140625,22.4052734375L23.449462890625,40.2109375C22.400390625,41.2626953125,20.69873046875,41.2626953125,19.649169921875,40.2109375C18.599609375,39.1591796875,18.599609375,37.45361328125,19.649169921875,36.4013671875L32.802490234375,23.2158203125L2.6953125,23.2158203125C1.212890625,23.2158203125,-4.547473508864641e-13,22,-4.547473508864641e-13,20.51416015625C-4.547473508864641e-13,19.02783203125,1.212890625,17.8125,2.6953125,17.8125" style="fill: rgb(255, 255, 255); fill-opacity: 1;"/></g></g></g></svg>