<svg width="162" xmlns="http://www.w3.org/2000/svg" height="162" id="screenshot-b5f7ee28-226f-805a-8006-f4ce08c38f8d" viewBox="-32 -32 162 162" xmlns:xlink="http://www.w3.org/1999/xlink" fill="none" version="1.1"><g id="shape-b5f7ee28-226f-805a-8006-f4ce08c38f8d" filter="url(#filter-render-1)" rx="0" ry="0"><defs><filter id="filter-render-1" x="-0.36486486486486486" y="-0.36486486486486486" width="1.8918918918918919" height="1.8918918918918919" filterUnits="objectBoundingBox" color-interpolation-filters="sRGB"><feFlood flood-opacity="0" result="BackgroundImageFix"/><feColorMatrix in="SourceAlpha" type="matrix" values="0 0 0 0 0 0 0 0 0 0 0 0 0 0 0 0 0 0 127 0"/><feOffset dx="4" dy="4"/><feGaussianBlur stdDeviation="2"/><feColorMatrix type="matrix" values="0 0 0 0 0 0 0 0 0 0 0 0 0 0 0 0 0 0 0.2 0"/><feBlend mode="normal" in2="BackgroundImageFix" result="filter_b5f7ee28-226f-805a-8006-f4ce09e45b69"/><feBlend mode="normal" in="SourceGraphic" in2="filter_b5f7ee28-226f-805a-8006-f4ce09e45b69" result="shape"/></filter><filter id="filter-shadow-render-1" x="-0.36486486486486486" y="-0.36486486486486486" width="1.8918918918918919" height="1.8918918918918919" filterUnits="objectBoundingBox" color-interpolation-filters="sRGB"><feFlood flood-opacity="0" result="BackgroundImageFix"/><feColorMatrix in="SourceAlpha" type="matrix" values="0 0 0 0 0 0 0 0 0 0 0 0 0 0 0 0 0 0 127 0"/><feOffset dx="4" dy="4"/><feGaussianBlur stdDeviation="2"/><feColorMatrix type="matrix" values="0 0 0 0 0 0 0 0 0 0 0 0 0 0 0 0 0 0 0.2 0"/><feBlend mode="normal" in2="BackgroundImageFix" result="filter_b5f7ee28-226f-805a-8006-f4ce09e45b69"/><feBlend mode="normal" in="SourceGraphic" in2="filter_b5f7ee28-226f-805a-8006-f4ce09e45b69" result="shape"/></filter></defs><g id="shape-b5f7ee28-226f-805a-8006-f4cdd5a7fd32"><g class="fills" id="fills-b5f7ee28-226f-805a-8006-f4cdd5a7fd32"><ellipse cx="37" cy="37" rx="37" ry="37" transform="matrix(1.000000, 0.000000, 0.000000, 1.000000, 0.000000, 0.000000)" style="fill: rgb(255, 255, 255); fill-opacity: 1;"/></g></g><g id="shape-b5f7ee28-226f-805a-8006-f4cdf117c2b6" width="24" height="24" rx="0" ry="0" style="fill: rgb(0, 0, 0);"><g id="shape-b5f7ee28-226f-805a-8006-f4cdf117c2b7"><defs><linearGradient id="fill-color-gradient-render-4-0" x1="0.5" y1="1" x2="0.4999999999999999" y2="3.0616169978683836e-17" gradientTransform=""><stop offset="0" stop-color="#592901" stop-opacity="1"/><stop offset="1" stop-color="#b06b31" stop-opacity="1"/></linearGradient><pattern patternUnits="userSpaceOnUse" x="15.977272727271156" y="16.818181818181984" width="42.04545454545496" height="40.36363636363694" patternTransform="matrix(-1.000000, 0.000000, 0.000000, 1.000000, 74.000000, 0.000000)" id="fill-0-render-4"><g><rect width="42.04545454545496" height="40.36363636363694" style="fill: url(&quot;#fill-color-gradient-render-4-0&quot;);"/></g></pattern></defs><g class="fills" id="fills-b5f7ee28-226f-805a-8006-f4cdf117c2b7"><path d="M18.67529296875,34.35400390625L48.8154296875,34.35400390625L35.6474609375,21.373046875C34.595703125,20.33642578125,34.595703125,18.6328125,35.6474609375,17.59619140625C36.15234375,17.09814453125,36.8359375,16.81787109375,37.5498046875,16.81787109375C38.26318359375,16.81787109375,38.94873046875,17.09814453125,39.45166015625,17.59619140625L57.234375,35.125C57.73876953125,35.62158203125,58.02294921875,36.29736328125,58.02294921875,37.00048828125C58.02294921875,37.70458984375,57.73876953125,38.37890625,57.234375,38.87548828125L39.45166015625,56.4052734375C38.4013671875,57.4404296875,36.6982421875,57.4404296875,35.6474609375,56.4052734375C34.59716796875,55.36962890625,34.59716796875,53.68994140625,35.6474609375,52.654296875L48.8154296875,39.673828125L18.67529296875,39.673828125C17.19140625,39.673828125,15.97705078125,38.47607421875,15.97705078125,37.01416015625C15.97705078125,35.55078125,17.19140625,34.35400390625,18.67529296875,34.35400390625" fill="url(#fill-0-render-4)"/></g></g></g></g></svg>