<svg width="152" xmlns="http://www.w3.org/2000/svg" height="152" id="screenshot-b5f7ee28-226f-805a-8006-f4d0890a2eca" viewBox="-32 -32 152 152" xmlns:xlink="http://www.w3.org/1999/xlink" fill="none" version="1.1"><g id="shape-b5f7ee28-226f-805a-8006-f4d0890a2eca" filter="url(#filter-render-1)" rx="0" ry="0"><defs><filter id="filter-render-1" x="-0.421875" y="-0.421875" width="2.03125" height="2.03125" filterUnits="objectBoundingBox" color-interpolation-filters="sRGB"><feFlood flood-opacity="0" result="BackgroundImageFix"/><feColorMatrix in="SourceAlpha" type="matrix" values="0 0 0 0 0 0 0 0 0 0 0 0 0 0 0 0 0 0 127 0"/><feOffset dx="4" dy="4"/><feGaussianBlur stdDeviation="2"/><feColorMatrix type="matrix" values="0 0 0 0 0 0 0 0 0 0 0 0 0 0 0 0 0 0 0.2 0"/><feBlend mode="normal" in2="BackgroundImageFix" result="filter_b5f7ee28-226f-805a-8006-f4ce09e45b69"/><feBlend mode="normal" in="SourceGraphic" in2="filter_b5f7ee28-226f-805a-8006-f4ce09e45b69" result="shape"/></filter><filter id="filter-shadow-render-1" x="-0.421875" y="-0.421875" width="2.03125" height="2.03125" filterUnits="objectBoundingBox" color-interpolation-filters="sRGB"><feFlood flood-opacity="0" result="BackgroundImageFix"/><feColorMatrix in="SourceAlpha" type="matrix" values="0 0 0 0 0 0 0 0 0 0 0 0 0 0 0 0 0 0 127 0"/><feOffset dx="4" dy="4"/><feGaussianBlur stdDeviation="2"/><feColorMatrix type="matrix" values="0 0 0 0 0 0 0 0 0 0 0 0 0 0 0 0 0 0 0.2 0"/><feBlend mode="normal" in2="BackgroundImageFix" result="filter_b5f7ee28-226f-805a-8006-f4ce09e45b69"/><feBlend mode="normal" in="SourceGraphic" in2="filter_b5f7ee28-226f-805a-8006-f4ce09e45b69" result="shape"/></filter></defs><g id="shape-b5f7ee28-226f-805a-8006-f4d0890a2ecb"><g class="fills" id="fills-b5f7ee28-226f-805a-8006-f4d0890a2ecb"><ellipse cx="32" cy="32" rx="32" ry="32" transform="matrix(-1.000000, 0.000000, 0.000000, -1.000000, 64.000000, 64.000000)" style="fill: rgb(255, 255, 255); fill-opacity: 1;"/></g></g><g id="shape-b5f7ee28-226f-805a-8006-f4d0890a2ecc" width="24" height="24" rx="0" ry="0" style="fill: rgb(0, 0, 0);"><g id="shape-b5f7ee28-226f-805a-8006-f4d0890a2ecd"><defs><linearGradient id="fill-color-gradient-render-4-0" x1="0.5" y1="1" x2="0.4999999999999999" y2="3.0616169978683836e-17" gradientTransform=""><stop offset="0" stop-color="#592901" stop-opacity="1"/><stop offset="1" stop-color="#b06b31" stop-opacity="1"/></linearGradient><pattern patternUnits="userSpaceOnUse" x="13.818181818181984" y="14.545454545454959" width="36.36363636363694" height="34.9090909090919" patternTransform="matrix(1.000000, 0.000000, 0.000000, -1.000000, -0.000000, 64.000000)" id="fill-0-render-4"><g><rect width="36.36363636363694" height="34.9090909090919" style="fill: url(&quot;#fill-color-gradient-render-4-0&quot;);"/></g></pattern></defs><g class="fills" id="fills-b5f7ee28-226f-805a-8006-f4d0890a2ecd"><path d="M47.8486328125,34.2880859375L21.781494140625,34.2880859375L33.169921875,45.5146484375C34.07958984375,46.4111328125,34.07958984375,47.884765625,33.169921875,48.78125C32.7333984375,49.2119140625,32.14208984375,49.45458984375,31.524658203125,49.45458984375C30.90771484375,49.45458984375,30.31494140625,49.2119140625,29.8798828125,48.78125L14.500244140625,33.62109375C14.06396484375,33.19189453125,13.818115234375,32.607421875,13.818115234375,31.9990234375C13.818115234375,31.39013671875,14.06396484375,30.80712890625,14.500244140625,30.37744140625L29.8798828125,15.216796875C30.788330078125,14.3212890625,32.26123046875,14.3212890625,33.169921875,15.216796875C34.078369140625,16.1123046875,34.078369140625,17.56494140625,33.169921875,18.4609375L21.781494140625,29.68701171875L47.8486328125,29.68701171875C49.132080078125,29.68701171875,50.18212890625,30.72314453125,50.18212890625,31.9873046875C50.18212890625,33.2529296875,49.132080078125,34.2880859375,47.8486328125,34.2880859375" fill="url(#fill-0-render-4)"/></g></g></g></g></svg>