<svg width="49" xmlns="http://www.w3.org/2000/svg" height="49" id="screenshot-aff1dc01-b814-802f-8006-feee4ac72fc3" viewBox="0 0 49 49" xmlns:xlink="http://www.w3.org/1999/xlink" fill="none" version="1.1"><g id="shape-aff1dc01-b814-802f-8006-feee4ac72fc3" rx="0" ry="0"><g id="shape-aff1dc01-b814-802f-8006-feee4ac72fc4"><g class="fills" id="fills-aff1dc01-b814-802f-8006-feee4ac72fc4"><ellipse cx="24.5" cy="24.5" rx="24.5" ry="24.5" transform="matrix(1.000000, 0.000000, 0.000000, 1.000000, 0.000000, 0.000000)" style="fill: rgb(255, 255, 255); fill-opacity: 1;"/></g></g><g id="shape-aff1dc01-b814-802f-8006-feee4ac72fc5" width="25" height="25" rx="0" ry="0" style="fill: rgb(0, 0, 0);"><g id="shape-aff1dc01-b814-802f-8006-feee4ac72fc6"><defs><linearGradient id="fill-color-gradient-render-4-0" x1="0.5" y1="1" x2="0.4999999999999999" y2="3.0616169978683836e-17" gradientTransform=""><stop offset="0" stop-color="#482100" stop-opacity="1"/><stop offset="1" stop-color="#aa652b" stop-opacity="1"/></linearGradient><pattern patternUnits="userSpaceOnUse" x="11" y="11" width="27" height="27" patternTransform="matrix(1.000000, 0.000000, 0.000000, 1.000000, 0.000000, 0.000000)" id="fill-0-render-4"><g><rect width="27" height="27" style="fill: url(&quot;#fill-color-gradient-render-4-0&quot;);"/></g></pattern></defs><g class="fills" id="fills-aff1dc01-b814-802f-8006-feee4ac72fc6"><path d="M36.67236328125,11L12.32763671875,11C11.9755859375,11,11.637939453125,11.13818359375,11.38916015625,11.38671875C11.1396484375,11.6337890625,11,11.96875,11,12.31884765625L11,13.5361328125C11,14.26513671875,11.594482421875,14.85595703125,12.32763671875,14.85595703125L36.67236328125,14.85595703125C37.405517578125,14.85595703125,38,14.26513671875,38,13.5361328125L38,12.31884765625C38,11.5908203125,37.405517578125,11,36.67236328125,11M36.67236328125,34.14404296875L12.32763671875,34.14404296875C11.594482421875,34.14404296875,11,34.73486328125,11,35.4638671875L11,36.68115234375C11,37.4091796875,11.594482421875,38,12.32763671875,38L36.67236328125,38C37.405517578125,38,38,37.4091796875,38,36.68115234375L38,35.4638671875C37.99951171875,34.73583984375,37.405517578125,34.14501953125,36.67236328125,34.14404296875M38,27.74951171875C38,27.02001953125,37.405517578125,26.4296875,36.67236328125,26.4296875L12.57373046875,26.4296875C12.2216796875,26.4296875,11.8837890625,26.56884765625,11.634765625,26.81591796875C11.3857421875,27.0634765625,11.245849609375,27.39892578125,11.245849609375,27.74951171875L11.245849609375,28.96630859375C11.245849609375,29.31591796875,11.3857421875,29.65185546875,11.634765625,29.89892578125C11.8837890625,30.146484375,12.2216796875,30.28564453125,12.57373046875,30.28564453125L36.67236328125,30.28564453125C37.405517578125,30.28564453125,38,29.6943359375,38,28.96630859375L38,27.74951171875M38,20.076171875C38,19.34765625,37.405517578125,18.75732421875,36.67236328125,18.75732421875L12.57373046875,18.75732421875C12.2216796875,18.75732421875,11.8837890625,18.896484375,11.634765625,19.1435546875C11.3857421875,19.39111328125,11.245849609375,19.7265625,11.245849609375,20.076171875L11.245849609375,21.2939453125C11.245849609375,21.6435546875,11.3857421875,21.9794921875,11.634765625,22.2265625C11.8837890625,22.47412109375,12.2216796875,22.61328125,12.57373046875,22.61328125L36.67236328125,22.61328125C37.405517578125,22.61328125,38,22.02197265625,38,21.2939453125L38,20.076171875" fill="url(#fill-0-render-4)"/></g></g></g></g></svg>