<svg width="115" xmlns="http://www.w3.org/2000/svg" height="115" id="screenshot-aff1dc01-b814-802f-8006-feee4ac6d0f4" viewBox="-27 -27 115 115" xmlns:xlink="http://www.w3.org/1999/xlink" fill="none" version="1.1"><g id="shape-aff1dc01-b814-802f-8006-feee4ac6d0f4" rx="0" ry="0"><g id="shape-aff1dc01-b814-802f-8006-feee4ac72fc0"><defs><filter id="filter-render-2" x="-0.5510204081632653" y="-0.5510204081632653" width="2.3469387755102042" height="2.3469387755102042" filterUnits="objectBoundingBox" color-interpolation-filters="sRGB"><feFlood flood-opacity="0" result="BackgroundImageFix"/><feColorMatrix in="SourceAlpha" type="matrix" values="0 0 0 0 0 0 0 0 0 0 0 0 0 0 0 0 0 0 127 0"/><feOffset dx="4" dy="4"/><feGaussianBlur stdDeviation="2"/><feColorMatrix type="matrix" values="0 0 0 0 0 0 0 0 0 0 0 0 0 0 0 0 0 0 0.2 0"/><feBlend mode="normal" in2="BackgroundImageFix" result="filter_b5f7ee28-226f-805a-8006-f4b0694311dd"/><feBlend mode="normal" in="SourceGraphic" in2="filter_b5f7ee28-226f-805a-8006-f4b0694311dd" result="shape"/></filter><filter id="filter-shadow-render-2" x="-0.5510204081632653" y="-0.5510204081632653" width="2.3469387755102042" height="2.3469387755102042" filterUnits="objectBoundingBox" color-interpolation-filters="sRGB"><feFlood flood-opacity="0" result="BackgroundImageFix"/><feColorMatrix in="SourceAlpha" type="matrix" values="0 0 0 0 0 0 0 0 0 0 0 0 0 0 0 0 0 0 127 0"/><feOffset dx="4" dy="4"/><feGaussianBlur stdDeviation="2"/><feColorMatrix type="matrix" values="0 0 0 0 0 0 0 0 0 0 0 0 0 0 0 0 0 0 0.2 0"/><feBlend mode="normal" in2="BackgroundImageFix" result="filter_b5f7ee28-226f-805a-8006-f4b0694311dd"/><feBlend mode="normal" in="SourceGraphic" in2="filter_b5f7ee28-226f-805a-8006-f4b0694311dd" result="shape"/></filter></defs><g class="fills" id="fills-aff1dc01-b814-802f-8006-feee4ac72fc0"><ellipse cx="24.5" cy="24.5" rx="24.5" ry="24.5" transform="matrix(1.000000, 0.000000, 0.000000, 1.000000, 0.000000, 0.000000)" filter="url(#filter-render-2)" style="fill: rgb(255, 255, 255); fill-opacity: 1;"/></g></g><g id="shape-aff1dc01-b814-802f-8006-feee4ac72fc1" width="16" height="16" rx="0" ry="0" style="fill: rgb(0, 0, 0);"><g id="shape-aff1dc01-b814-802f-8006-feee4ac72fc2"><defs><linearGradient id="fill-color-gradient-render-4-0" x1="0.5" y1="1" x2="0.4999999999999999" y2="3.0616169978683836e-17" gradientTransform=""><stop offset="0" stop-color="#482100" stop-opacity="1"/><stop offset="1" stop-color="#aa652b" stop-opacity="1"/></linearGradient><pattern patternUnits="userSpaceOnUse" x="12" y="10" width="25" height="29.00000000000182" patternTransform="matrix(1.000000, 0.000000, 0.000000, 1.000000, 0.000000, 0.000000)" id="fill-0-render-4"><g><rect width="25" height="29.00000000000182" style="fill: url(&quot;#fill-color-gradient-render-4-0&quot;);"/></g></pattern></defs><g class="fills" id="fills-aff1dc01-b814-802f-8006-feee4ac72fc2"><path d="M36.474609375,30.0224609375C36.3662109375,29.89306640625,36.2607421875,29.763671875,36.15625,29.63818359375C34.72509765625,27.916015625,33.859375,26.8759765625,33.859375,21.99951171875C33.859375,19.47509765625,33.251953125,17.40380859375,32.0556640625,15.85009765625C31.17431640625,14.70361328125,29.98193359375,13.83251953125,28.41015625,13.189453125C28.3896484375,13.177734375,28.3720703125,13.16259765625,28.35693359375,13.1455078125C27.7919921875,11.26123046875,26.2451171875,10,24.5,10C22.75537109375,10,21.208984375,11.26123046875,20.64404296875,13.1435546875C20.62890625,13.1611328125,20.611328125,13.1748046875,20.5908203125,13.18505859375C16.923828125,14.68798828125,15.1416015625,17.57080078125,15.1416015625,21.99755859375C15.1416015625,26.8759765625,14.27734375,27.916015625,12.8447265625,29.6357421875C12.740234375,29.76171875,12.634765625,29.8876953125,12.5263671875,30.0205078125C11.95703125,30.7041015625,11.8388671875,31.6552734375,12.22412109375,32.4560546875C12.6259765625,33.2978515625,13.48095703125,33.8193359375,14.45703125,33.8193359375L34.55029296875,33.8193359375C35.52197265625,33.8193359375,36.37158203125,33.2978515625,36.7744140625,32.4599609375C37.16162109375,31.65869140625,37.0439453125,30.70751953125,36.474609375,30.0224609375M24.5,39C26.4150390625,38.99755859375,28.1748046875,37.951171875,29.08203125,36.27294921875C29.125,36.1923828125,29.1220703125,36.09619140625,29.0751953125,36.01806640625C29.02783203125,35.9404296875,28.943359375,35.89306640625,28.8515625,35.89306640625L20.1494140625,35.89306640625C20.05859375,35.89306640625,19.97314453125,35.9404296875,19.92578125,36.01806640625C19.87890625,36.09521484375,19.8759765625,36.1923828125,19.9189453125,36.27294921875C20.826171875,37.951171875,22.5849609375,38.99755859375,24.5,39" fill="url(#fill-0-render-4)"/></g></g></g></g></svg>