<svg width="152" xmlns="http://www.w3.org/2000/svg" height="152" id="screenshot-b5f7ee28-226f-805a-8006-f4d10b4ca6c3" viewBox="-32 -32 152 152" xmlns:xlink="http://www.w3.org/1999/xlink" fill="none" version="1.1"><g id="shape-b5f7ee28-226f-805a-8006-f4d10b4ca6c3" filter="url(#filter-render-1)" rx="0" ry="0"><defs><filter id="filter-render-1" x="-0.421875" y="-0.421875" width="2.03125" height="2.03125" filterUnits="objectBoundingBox" color-interpolation-filters="sRGB"><feFlood flood-opacity="0" result="BackgroundImageFix"/><feColorMatrix in="SourceAlpha" type="matrix" values="0 0 0 0 0 0 0 0 0 0 0 0 0 0 0 0 0 0 127 0"/><feOffset dx="4" dy="4"/><feGaussianBlur stdDeviation="2"/><feColorMatrix type="matrix" values="0 0 0 0 0 0 0 0 0 0 0 0 0 0 0 0 0 0 0.2 0"/><feBlend mode="normal" in2="BackgroundImageFix" result="filter_b5f7ee28-226f-805a-8006-f4d10c8c2a7e"/><feBlend mode="normal" in="SourceGraphic" in2="filter_b5f7ee28-226f-805a-8006-f4d10c8c2a7e" result="shape"/></filter><filter id="filter-shadow-render-1" x="-0.421875" y="-0.421875" width="2.03125" height="2.03125" filterUnits="objectBoundingBox" color-interpolation-filters="sRGB"><feFlood flood-opacity="0" result="BackgroundImageFix"/><feColorMatrix in="SourceAlpha" type="matrix" values="0 0 0 0 0 0 0 0 0 0 0 0 0 0 0 0 0 0 127 0"/><feOffset dx="4" dy="4"/><feGaussianBlur stdDeviation="2"/><feColorMatrix type="matrix" values="0 0 0 0 0 0 0 0 0 0 0 0 0 0 0 0 0 0 0.2 0"/><feBlend mode="normal" in2="BackgroundImageFix" result="filter_b5f7ee28-226f-805a-8006-f4d10c8c2a7e"/><feBlend mode="normal" in="SourceGraphic" in2="filter_b5f7ee28-226f-805a-8006-f4d10c8c2a7e" result="shape"/></filter></defs><g id="shape-b5f7ee28-226f-805a-8006-f4d0c17dcdb4"><defs><linearGradient id="fill-color-gradient-render-2-0" x1="0.5" y1="1" x2="0.4999999999999999" y2="3.0616169978683836e-17" gradientTransform=""><stop offset="0" stop-color="#592901" stop-opacity="1"/><stop offset="1" stop-color="#b06b31" stop-opacity="1"/></linearGradient><pattern patternUnits="userSpaceOnUse" x="0" y="0" width="64" height="64" id="fill-0-render-2"><g><rect width="64" height="64" style="fill: url(&quot;#fill-color-gradient-render-2-0&quot;);"/></g></pattern></defs><g class="fills" id="fills-b5f7ee28-226f-805a-8006-f4d0c17dcdb4"><ellipse cx="32" cy="32" rx="32" ry="32" transform="matrix(-1.000000, 0.000000, 0.000000, -1.000000, 64.000000, 64.000000)" fill="url(#fill-0-render-2)"/></g></g><g id="shape-b5f7ee28-226f-805a-8006-f4d0d55daa34" width="24" height="24" rx="0" ry="0" style="fill: rgb(0, 0, 0);"><g id="shape-b5f7ee28-226f-805a-8006-f4d0d563939f"><g class="fills" id="fills-b5f7ee28-226f-805a-8006-f4d0d563939f"><path d="M24.888671875,16C24.41748046875,16,23.96533203125,16.1875,23.6318359375,16.52099609375L16.52099609375,23.6318359375C16.20654296875,23.9453125,16.02099609375,24.36474609375,16,24.80712890625M16,24.90283203125L16,42.66650390625C16,45.61181640625,18.38818359375,48,21.33349609375,48L42.66650390625,48C45.61181640625,48,48,45.61181640625,48,42.66650390625L48,24.90283203125L47.998046875,24.80712890625C47.9775390625,24.36474609375,47.79248046875,23.9453125,47.47900390625,23.6318359375L40.3681640625,16.52099609375C40.03466796875,16.1875,39.58251953125,16,39.111328125,16L24.888671875,16M41.9306640625,23.111328125L38.375,19.5556640625L25.625,19.5556640625L22.0693359375,23.111328125ZM23.111328125,32C23.111328125,31.01806640625,23.9072265625,30.22216796875,24.888671875,30.22216796875L32,30.22216796875C32.98193359375,30.22216796875,33.77783203125,31.01806640625,33.77783203125,32C33.77783203125,32.98193359375,32.98193359375,33.77783203125,32,33.77783203125L24.888671875,33.77783203125C23.9072265625,33.77783203125,23.111328125,32.98193359375,23.111328125,32" fill-rule="evenodd" clip-rule="evenodd" style="fill: rgb(255, 255, 255); fill-opacity: 1;"/></g></g></g></g></svg>