<svg width="222" xmlns="http://www.w3.org/2000/svg" height="172" id="screenshot-329950f3-4367-803f-8006-f25bb58c3485" viewBox="-32 -32 222 172" xmlns:xlink="http://www.w3.org/1999/xlink" fill="none" version="1.1"><g id="shape-329950f3-4367-803f-8006-f25bb58c3485" filter="url(#filter-render-1)" width="16" height="16" rx="0" ry="0" style="fill: rgb(0, 0, 0);"><defs><filter id="filter-render-1" x="-0.20149253731343283" y="-0.32142857142857145" width="1.492537313432836" height="1.7857142857142858" filterUnits="objectBoundingBox" color-interpolation-filters="sRGB"><feFlood flood-opacity="0" result="BackgroundImageFix"/><feColorMatrix in="SourceAlpha" type="matrix" values="0 0 0 0 0 0 0 0 0 0 0 0 0 0 0 0 0 0 127 0"/><feOffset dx="4" dy="4"/><feGaussianBlur stdDeviation="2"/><feColorMatrix type="matrix" values="0 0 0 0 0 0 0 0 0 0 0 0 0 0 0 0 0 0 0.2 0"/><feBlend mode="normal" in2="BackgroundImageFix" result="filter_329950f3-4367-803f-8006-f25bc5f08b53"/><feBlend mode="normal" in="SourceGraphic" in2="filter_329950f3-4367-803f-8006-f25bc5f08b53" result="shape"/></filter><filter id="filter-shadow-render-1" x="-0.20149253731343283" y="-0.32142857142857145" width="1.492537313432836" height="1.7857142857142858" filterUnits="objectBoundingBox" color-interpolation-filters="sRGB"><feFlood flood-opacity="0" result="BackgroundImageFix"/><feColorMatrix in="SourceAlpha" type="matrix" values="0 0 0 0 0 0 0 0 0 0 0 0 0 0 0 0 0 0 127 0"/><feOffset dx="4" dy="4"/><feGaussianBlur stdDeviation="2"/><feColorMatrix type="matrix" values="0 0 0 0 0 0 0 0 0 0 0 0 0 0 0 0 0 0 0.2 0"/><feBlend mode="normal" in2="BackgroundImageFix" result="filter_329950f3-4367-803f-8006-f25bc5f08b53"/><feBlend mode="normal" in="SourceGraphic" in2="filter_329950f3-4367-803f-8006-f25bc5f08b53" result="shape"/></filter></defs><g id="shape-329950f3-4367-803f-8006-f25bb593312b"><g class="fills" id="fills-329950f3-4367-803f-8006-f25bb593312b"><path d="M96.3125,0C98.625,0,100.5,1.87841796875,100.5,4.2001953125L100.5,8.39990234375L109.04248046875,8.39990234375C112.85595703125,8.40380859375,116.458740234375,10.14306640625,118.840576171875,13.12890625L131.243896484375,28.669921875C133.02880859375,30.9052734375,134.001953125,33.6865234375,134,36.54931640625L134,54.60009765625C134,61.56005859375,128.375,67.2001953125,121.4375,67.2001953125L117.25,67.2001953125C117.25,76.47802734375,109.750244140625,84,100.5,84C91.249755859375,84,83.75,76.47802734375,83.75,67.2001953125L41.875,67.2001953125C41.875,76.47802734375,34.375244140625,84,25.125,84C15.874755859375,84,8.375,76.47802734375,8.375,67.2001953125C3.75,67.2001953125,0,63.4384765625,0,58.7998046875L0,50.39990234375L92.125,50.39990234375L92.125,4.2001953125C92.125,1.87841796875,94,0,96.3125,0M25.125,58.7998046875C20.499755859375,58.7998046875,16.75,62.5615234375,16.75,67.2001953125C16.75,71.83837890625,20.499755859375,75.60009765625,25.125,75.60009765625C29.750244140625,75.60009765625,33.5,71.83837890625,33.5,67.2001953125C33.5,62.5615234375,29.750244140625,58.7998046875,25.125,58.7998046875M100.5,58.7998046875C95.874755859375,58.7998046875,92.125,62.5615234375,92.125,67.2001953125C92.125,71.83837890625,95.874755859375,75.60009765625,100.5,75.60009765625C105.125244140625,75.60009765625,108.875,71.83837890625,108.875,67.2001953125C108.875,62.5615234375,105.125244140625,58.7998046875,100.5,58.7998046875M115.005126953125,58.7998046875L121.4375,58.7998046875C123.75,58.7998046875,125.625,56.921875,125.625,54.60009765625L125.625,36.541015625C125.623046875,35.5849609375,125.2978515625,34.662109375,124.702880859375,33.919921875L112.30810546875,18.37890625C111.5146484375,17.3828125,110.314453125,16.7998046875,109.04248046875,16.7998046875L100.5,16.7998046875L100.5,50.39990234375C106.48486328125,50.39990234375,112.013671875,53.603515625,115.005126953125,58.7998046875" style="fill: rgb(255, 255, 255); fill-opacity: 1;"/></g></g></g></svg>