<svg width="75" xmlns="http://www.w3.org/2000/svg" height="60" id="screenshot-b5f7ee28-226f-805a-8006-f4c329169abb" viewBox="0 0 75 60" xmlns:xlink="http://www.w3.org/1999/xlink" fill="none" version="1.1"><g id="shape-b5f7ee28-226f-805a-8006-f4c329169abb" width="24" height="24" rx="0" ry="0" style="fill: rgb(0, 0, 0);"><g id="shape-b5f7ee28-226f-805a-8006-f4c3291ce9d3"><defs><linearGradient id="fill-color-gradient-render-2-0" x1="0.5" y1="1" x2="0.4999999999999999" y2="3.0616169978683836e-17" gradientTransform=""><stop offset="0" stop-color="#592901" stop-opacity="1"/><stop offset="1" stop-color="#b06b31" stop-opacity="1"/></linearGradient><pattern patternUnits="userSpaceOnUse" x="0" y="0" width="75" height="60" patternTransform="matrix(1.000000, 0.000000, 0.000000, 1.000000, 0.000000, 0.000000)" id="fill-0-render-2"><g><rect width="75" height="60" style="fill: url(&quot;#fill-color-gradient-render-2-0&quot;);"/></g></pattern></defs><g class="fills" id="fills-b5f7ee28-226f-805a-8006-f4c3291ce9d3"><path d="M14.999755859375,59.99951171875C10.87451171875,59.99951171875,7.34326171875,58.53125,4.40625,55.59375C1.46826171875,52.6552734375,0,49.12548828125,0,45L0,14.99951171875C0,10.8740234375,1.46826171875,7.34423828125,4.40625,4.4052734375C7.34326171875,1.46826171875,10.87451171875,0,14.999755859375,0L59.999755859375,0C64.125244140625,0,67.656494140625,1.46826171875,70.593505859375,4.4052734375C73.531494140625,7.34423828125,74.999755859375,10.8740234375,74.999755859375,14.99951171875L74.999755859375,45C74.999755859375,49.12548828125,73.531494140625,52.6552734375,70.593505859375,55.59375C67.656494140625,58.53125,64.125244140625,59.99951171875,59.999755859375,59.99951171875ZM14.999755859375,14.99951171875L59.999755859375,14.99951171875C61.375,14.99951171875,62.686767578125,15.15576171875,63.937744140625,15.46875C65.1875,15.78173828125,66.374755859375,16.28173828125,67.5,16.96826171875L67.5,14.99951171875C67.5,12.93798828125,66.7666015625,11.1728515625,65.298828125,9.7041015625C63.831298828125,8.2373046875,62.065185546875,7.50146484375,59.999755859375,7.49951171875L14.999755859375,7.49951171875C12.937255859375,7.49951171875,11.171875,8.234375,9.704345703125,9.7041015625C8.23779296875,11.1748046875,7.50244140625,12.939453125,7.499755859375,14.99951171875L7.499755859375,16.96826171875C8.625,16.28173828125,9.812255859375,15.78173828125,11.06201171875,15.46875C12.31298828125,15.15576171875,13.62451171875,14.99951171875,14.999755859375,14.99951171875M8.06201171875,27.18701171875L49.780517578125,37.3125C50.34375,37.4375,50.906005859375,37.4375,51.468994140625,37.3125C52.03125,37.1865234375,52.56201171875,36.9375,53.06201171875,36.5625L66.09375,25.6875C65.406005859375,24.75,64.531005859375,23.98486328125,63.46875,23.3916015625C62.40576171875,22.7998046875,61.24951171875,22.50146484375,59.999755859375,22.5L14.999755859375,22.5C13.374755859375,22.5,11.953857421875,22.9228515625,10.736328125,23.7666015625C9.5185546875,24.6123046875,8.627685546875,25.751953125,8.06201171875,27.18701171875" fill="url(#fill-0-render-2)"/></g></g></g></svg>