<svg width="40" xmlns="http://www.w3.org/2000/svg" height="38" id="screenshot-b5f7ee28-226f-805a-8006-f4b674510b95" viewBox="0 0 40 38" xmlns:xlink="http://www.w3.org/1999/xlink" fill="none" version="1.1"><g id="shape-b5f7ee28-226f-805a-8006-f4b674510b95" width="24" height="24" rx="0" ry="0" style="fill: rgb(0, 0, 0);"><g id="shape-b5f7ee28-226f-805a-8006-f4b67452cfcc"><g class="fills" id="fills-b5f7ee28-226f-805a-8006-f4b67452cfcc"><path d="M19.9990234375,31.83447265625L10.304443359375,37.6435546875C9.876220703125,37.91455078125,9.428466796875,38.03125,8.960693359375,37.99169921875C8.49365234375,37.953125,8.084716796875,37.798828125,7.734619140625,37.52783203125C7.38427734375,37.25634765625,7.11181640625,36.91845703125,6.916748046875,36.51220703125C6.72216796875,36.10595703125,6.683349609375,35.65087890625,6.80029296875,35.14599609375L9.36962890625,24.16650390625L0.784423828125,16.7880859375C0.3955078125,16.43994140625,0.15234375,16.04248046875,0.0556640625,15.5966796875C-0.041015625,15.15087890625,-0.01171875,14.71533203125,0.14208984375,14.291015625C0.296142578125,13.86669921875,0.530029296875,13.51708984375,0.84326171875,13.24462890625C1.15625,12.97265625,1.58447265625,12.7978515625,2.128173828125,12.7216796875L13.457763671875,11.734375L17.837890625,1.3935546875C18.032958984375,0.9296875,18.334716796875,0.58154296875,18.744384765625,0.3486328125C19.154296875,0.1162109375,19.572509765625,0.00048828125,19.9990234375,0.00048828125C20.425537109375,0.00048828125,20.84375,0.1162109375,21.253662109375,0.3486328125C21.663330078125,0.58154296875,21.96484375,0.9296875,22.159912109375,1.3935546875L26.540283203125,11.734375L37.869873046875,12.7216796875C38.4150390625,12.7998046875,38.843505859375,12.9736328125,39.15478515625,13.24462890625C39.46630859375,13.51611328125,39.7001953125,13.8642578125,39.855712890625,14.291015625C40.011474609375,14.71630859375,40.041259765625,15.1533203125,39.94482421875,15.59912109375C39.847900390625,16.044921875,39.604248046875,16.44189453125,39.213623046875,16.7880859375L30.62841796875,24.16650390625L33.19775390625,35.14599609375C33.314697265625,35.64892578125,33.27587890625,36.10498046875,33.081298828125,36.51220703125C32.88623046875,36.91943359375,32.61376953125,37.2578125,32.263427734375,37.52783203125C31.913330078125,37.79638671875,31.50439453125,37.9521484375,31.037353515625,37.99169921875C30.569580078125,38.03271484375,30.121826171875,37.9169921875,29.693603515625,37.6435546875Z" style="fill: rgb(255, 255, 255); fill-opacity: 1;"/></g><g id="strokes-61a92451-a5f3-801e-8006-fee6eeeb203b-b5f7ee28-226f-805a-8006-f4b67452cfcc" class="strokes"><g class="inner-stroke-shape"><defs><linearGradient id="stroke-color-gradient-render-2-0" x1="0.5" y1="1" x2="0.4999999999999999" y2="3.0616169978683836e-17" gradientTransform="matrix(1.000000, 0.000000, 0.000000, 1.000000, 0.000000, 0.000000)"><stop offset="0" stop-color="#482100" stop-opacity="1"/><stop offset="1" stop-color="#aa652b" stop-opacity="1"/></linearGradient><clipPath id="inner-stroke-render-2-b5f7ee28-226f-805a-8006-f4b67452cfcc-0"><use href="#stroke-shape-render-2-b5f7ee28-226f-805a-8006-f4b67452cfcc-0"/></clipPath><path d="M19.9990234375,31.83447265625L10.304443359375,37.6435546875C9.876220703125,37.91455078125,9.428466796875,38.03125,8.960693359375,37.99169921875C8.49365234375,37.953125,8.084716796875,37.798828125,7.734619140625,37.52783203125C7.38427734375,37.25634765625,7.11181640625,36.91845703125,6.916748046875,36.51220703125C6.72216796875,36.10595703125,6.683349609375,35.65087890625,6.80029296875,35.14599609375L9.36962890625,24.16650390625L0.784423828125,16.7880859375C0.3955078125,16.43994140625,0.15234375,16.04248046875,0.0556640625,15.5966796875C-0.041015625,15.15087890625,-0.01171875,14.71533203125,0.14208984375,14.291015625C0.296142578125,13.86669921875,0.530029296875,13.51708984375,0.84326171875,13.24462890625C1.15625,12.97265625,1.58447265625,12.7978515625,2.128173828125,12.7216796875L13.457763671875,11.734375L17.837890625,1.3935546875C18.032958984375,0.9296875,18.334716796875,0.58154296875,18.744384765625,0.3486328125C19.154296875,0.1162109375,19.572509765625,0.00048828125,19.9990234375,0.00048828125C20.425537109375,0.00048828125,20.84375,0.1162109375,21.253662109375,0.3486328125C21.663330078125,0.58154296875,21.96484375,0.9296875,22.159912109375,1.3935546875L26.540283203125,11.734375L37.869873046875,12.7216796875C38.4150390625,12.7998046875,38.843505859375,12.9736328125,39.15478515625,13.24462890625C39.46630859375,13.51611328125,39.7001953125,13.8642578125,39.855712890625,14.291015625C40.011474609375,14.71630859375,40.041259765625,15.1533203125,39.94482421875,15.59912109375C39.847900390625,16.044921875,39.604248046875,16.44189453125,39.213623046875,16.7880859375L30.62841796875,24.16650390625L33.19775390625,35.14599609375C33.314697265625,35.64892578125,33.27587890625,36.10498046875,33.081298828125,36.51220703125C32.88623046875,36.91943359375,32.61376953125,37.2578125,32.263427734375,37.52783203125C31.913330078125,37.79638671875,31.50439453125,37.9521484375,31.037353515625,37.99169921875C30.569580078125,38.03271484375,30.121826171875,37.9169921875,29.693603515625,37.6435546875Z" id="stroke-shape-render-2-b5f7ee28-226f-805a-8006-f4b67452cfcc-0" style="fill: none; stroke-width: 6; stroke: url(&quot;#stroke-color-gradient-render-2-0&quot;);"/></defs><use href="#stroke-shape-render-2-b5f7ee28-226f-805a-8006-f4b67452cfcc-0" clip-path="url('#inner-stroke-render-2-b5f7ee28-226f-805a-8006-f4b67452cfcc-0')"/></g></g></g></g></svg>