<svg width="34" xmlns="http://www.w3.org/2000/svg" height="29" id="screenshot-c68eaf53-5e8f-80b3-8006-f2624f38d01c" viewBox="0 0 34 29" xmlns:xlink="http://www.w3.org/1999/xlink" fill="none" version="1.1"><g id="shape-c68eaf53-5e8f-80b3-8006-f2624f38d01c" width="18" height="18" rx="0" ry="0" style="fill: rgb(0, 0, 0);"><g id="shape-c68eaf53-5e8f-80b3-8006-f2624f38d01e"><g class="fills" id="fills-c68eaf53-5e8f-80b3-8006-f2624f38d01e"><path d="M16.8837890625,7.2548828125C16.029296875,7.25634765625,15.181640625,7.41015625,14.38134765625,7.708984375L23.67333984375,16.98828125C23.97607421875,16.1787109375,24.1298828125,15.32177734375,24.127197265625,14.4580078125C24.10986328125,10.474609375,20.871826171875,7.2548828125,16.8837890625,7.2548828125" class="clr-i-solid clr-i-solid-path-1" style="fill: rgb(78, 78, 78); fill-opacity: 1;"/></g></g><g id="shape-c68eaf53-5e8f-80b3-8006-f2624f38d01f"><g class="fills" id="fills-c68eaf53-5e8f-80b3-8006-f2624f38d01f"><path d="M33.69384765625,13.9619140625C30.13525390625,7.392578125,23.89501953125,3.4169921875,16.9892578125,3.4169921875C15.109130859375,3.4208984375,13.241455078125,3.7236328125,11.45654296875,4.3125L13.156494140625,6.021484375C14.40869140625,5.6982421875,15.696044921875,5.5322265625,16.9892578125,5.52587890625C22.93408203125,5.52587890625,28.34033203125,8.8369140625,31.560791015625,14.41552734375C30.37841796875,16.484375,28.8125,18.3095703125,26.946533203125,19.7939453125L28.44580078125,21.291015625C30.60693359375,19.55078125,32.4013671875,17.400390625,33.725341796875,14.9638671875L34,14.4580078125Z" class="clr-i-solid clr-i-solid-path-2" style="fill: rgb(78, 78, 78); fill-opacity: 1;"/></g></g><g id="shape-c68eaf53-5e8f-80b3-8006-f2624f393e1a"><g class="fills" id="fills-c68eaf53-5e8f-80b3-8006-f2624f393e1a"><path d="M2.629150390625,1.5712890625L7.33837890625,6.2744140625C4.361083984375,8.18798828125,1.92822265625,10.8359375,0.2744140625,13.9619140625L0,14.4580078125L0.2744140625,14.9638671875C3.832763671875,21.53369140625,10.0732421875,25.50927734375,16.978759765625,25.50927734375C19.67431640625,25.509765625,22.334716796875,24.900390625,24.7607421875,23.7275390625L30.040283203125,29L31.88818359375,27.41796875L4.4345703125,0ZM11.39306640625,10.32421875C9.353271484375,13.19677734375,9.685302734375,17.1201171875,12.1787109375,19.6103515625C14.672119140625,22.1005859375,18.600341796875,22.431640625,21.476806640625,20.39453125L23.166259765625,22.08203125C21.210693359375,22.9169921875,19.105712890625,23.34765625,16.978759765625,23.34765625C11.0341796875,23.34765625,5.6279296875,20.0361328125,2.407470703125,14.4580078125C3.953125,11.724609375,6.17919921875,9.4365234375,8.86962890625,7.81396484375Z" class="clr-i-solid clr-i-solid-path-3" style="fill: rgb(78, 78, 78); fill-opacity: 1;"/></g></g></g></svg>