<svg width="112" xmlns="http://www.w3.org/2000/svg" height="59" id="screenshot-c68eaf53-5e8f-80b3-8006-f2624f38d016" viewBox="0 0 112 59" xmlns:xlink="http://www.w3.org/1999/xlink" fill="none" version="1.1"><g id="shape-c68eaf53-5e8f-80b3-8006-f2624f38d016" width="24" height="24" rx="0" ry="0" style="fill: rgb(0, 0, 0);"><g id="shape-c68eaf53-5e8f-80b3-8006-f2624f3979af"><g class="fills" id="fills-c68eaf53-5e8f-80b3-8006-f2624f3979af"><path d="M10.181884765625,48.935546875L101.818359375,48.935546875C103.26123046875,48.935546875,104.470703125,49.4189453125,105.447265625,50.3857421875C106.42578125,51.35107421875,106.91259765625,52.54541015625,106.9091796875,53.9677734375C106.9052734375,55.390625,106.4169921875,56.5859375,105.4423828125,57.5556640625C104.46875,58.52587890625,103.26123046875,59.005859375,101.818359375,59L10.181884765625,59C8.73876953125,59,7.531005859375,58.517578125,6.557373046875,57.55078125C5.583251953125,56.5849609375,5.0947265625,55.390625,5.0908203125,53.9677734375C5.08740234375,52.54541015625,5.575927734375,51.35107421875,6.557373046875,50.3857421875C7.538330078125,49.4189453125,8.74609375,48.935546875,10.181884765625,48.935546875M15.27294921875,21.00830078125L12.854248046875,25.2861328125C12.345703125,26.20849609375,11.581298828125,26.7958984375,10.563232421875,27.04638671875C9.545654296875,27.29833984375,8.569580078125,27.1728515625,7.636474609375,26.66943359375C6.703125,26.1669921875,6.10888671875,25.4111328125,5.85400390625,24.40478515625C5.600341796875,23.39892578125,5.7275390625,22.4345703125,6.237060546875,21.51220703125L8.654052734375,17.234375L3.818359375,17.234375C2.715576171875,17.234375,1.8037109375,16.87939453125,1.083740234375,16.16796875C0.365478515625,15.45654296875,0.003662109375,14.5537109375,0.000244140625,13.46044921875C-0.003662109375,12.3671875,0.358154296875,11.46630859375,1.083740234375,10.7587890625C1.81103515625,10.0498046875,2.721923828125,9.69384765625,3.818359375,9.6865234375L8.654052734375,9.6865234375L6.237060546875,5.66064453125C5.7275390625,4.73828125,5.600341796875,3.7734375,5.85400390625,2.767578125C6.10888671875,1.7607421875,6.703125,1.0068359375,7.636474609375,0.50341796875C8.569580078125,0,9.545654296875,-0.1259765625,10.563232421875,0.1259765625C11.581298828125,0.3779296875,12.345703125,0.9638671875,12.854248046875,1.88671875L15.27294921875,5.91259765625L17.691650390625,1.88671875C18.19970703125,0.9638671875,18.9638671875,0.3779296875,19.98193359375,0.1259765625C21.000244140625,-0.1259765625,21.975830078125,0,22.9091796875,0.50341796875C23.84228515625,1.0068359375,24.4365234375,1.7607421875,24.691162109375,2.767578125C24.945068359375,3.7734375,24.818359375,4.73828125,24.308837890625,5.66064453125L21.89111328125,9.6865234375L26.7275390625,9.6865234375C27.82958984375,9.6865234375,28.7431640625,10.0439453125,29.46630859375,10.7587890625C30.188720703125,11.47265625,30.549072265625,12.373046875,30.545654296875,13.46044921875C30.541748046875,14.54736328125,30.179931640625,15.44921875,29.46142578125,16.16796875C28.7421875,16.8857421875,27.82958984375,17.24169921875,26.7275390625,17.234375L21.89111328125,17.234375L24.308837890625,21.51220703125C24.818359375,22.4345703125,24.945068359375,23.39892578125,24.691162109375,24.40478515625C24.4365234375,25.4111328125,23.84228515625,26.1669921875,22.9091796875,26.66943359375C21.975830078125,27.1728515625,21.000244140625,27.29833984375,19.98193359375,27.04638671875C18.9638671875,26.7958984375,18.19970703125,26.20849609375,17.691650390625,25.2861328125ZM56,21.00830078125L53.581298828125,25.2861328125C53.07275390625,26.20849609375,52.308349609375,26.7958984375,51.290771484375,27.04638671875C50.272705078125,27.29833984375,49.297119140625,27.1728515625,48.363525390625,26.66943359375C47.43017578125,26.1669921875,46.8359375,25.4111328125,46.581298828125,24.40478515625C46.327880859375,23.39892578125,46.45458984375,22.4345703125,46.964111328125,21.51220703125L49.3818359375,17.234375L44.54541015625,17.234375C43.443115234375,17.234375,42.53076171875,16.87939453125,41.81103515625,16.16796875C41.092529296875,15.45654296875,40.731201171875,14.5537109375,40.727294921875,13.46044921875C40.723388671875,12.3671875,41.085205078125,11.46630859375,41.81103515625,10.7587890625C42.5380859375,10.0498046875,43.448974609375,9.69384765625,44.54541015625,9.6865234375L49.3818359375,9.6865234375L46.964111328125,5.66064453125C46.45458984375,4.73828125,46.327880859375,3.7734375,46.581298828125,2.767578125C46.8359375,1.7607421875,47.43017578125,1.0068359375,48.363525390625,0.50341796875C49.297119140625,0,50.272705078125,-0.1259765625,51.290771484375,0.1259765625C52.308349609375,0.3779296875,53.07275390625,0.9638671875,53.581298828125,1.88671875L56,5.91259765625L58.418701171875,1.88671875C58.92724609375,0.9638671875,59.691650390625,0.3779296875,60.709228515625,0.1259765625C61.727294921875,-0.1259765625,62.702880859375,0,63.636474609375,0.50341796875C64.56982421875,1.0068359375,65.1640625,1.7607421875,65.418701171875,2.767578125C65.672119140625,3.7734375,65.54541015625,4.73828125,65.035888671875,5.66064453125L62.6181640625,9.6865234375L67.45458984375,9.6865234375C68.556884765625,9.6865234375,69.46923828125,10.0439453125,70.18896484375,10.7587890625C70.907470703125,11.47265625,71.268798828125,12.373046875,71.272705078125,13.46044921875C71.276611328125,14.54736328125,70.914794921875,15.44921875,70.18896484375,16.16796875C69.4619140625,16.8857421875,68.551025390625,17.24169921875,67.45458984375,17.234375L62.6181640625,17.234375L65.035888671875,21.51220703125C65.54541015625,22.4345703125,65.672119140625,23.39892578125,65.418701171875,24.40478515625C65.1640625,25.4111328125,64.56982421875,26.1669921875,63.636474609375,26.66943359375C62.702880859375,27.1728515625,61.727294921875,27.29833984375,60.709228515625,27.04638671875C59.691650390625,26.7958984375,58.92724609375,26.20849609375,58.418701171875,25.2861328125ZM96.72705078125,21.00830078125L94.30859375,25.2861328125C93.80029296875,26.20849609375,93.0361328125,26.7958984375,92.01806640625,27.04638671875C91,27.29833984375,90.0244140625,27.1728515625,89.0908203125,26.66943359375C88.15771484375,26.1669921875,87.5634765625,25.4111328125,87.308837890625,24.40478515625C87.054931640625,23.39892578125,87.181640625,22.4345703125,87.691162109375,21.51220703125L90.10888671875,17.234375L85.2724609375,17.234375C84.17041015625,17.234375,83.2578125,16.87939453125,82.53857421875,16.16796875C81.820068359375,15.45654296875,81.458251953125,14.5537109375,81.454345703125,13.46044921875C81.450927734375,12.3671875,81.812255859375,11.46630859375,82.53857421875,10.7587890625C83.265625,10.0498046875,84.1767578125,9.69384765625,85.2724609375,9.6865234375L90.10888671875,9.6865234375L87.691162109375,5.66064453125C87.181640625,4.73828125,87.054931640625,3.7734375,87.308837890625,2.767578125C87.5634765625,1.7607421875,88.15771484375,1.0068359375,89.0908203125,0.50341796875C90.0244140625,0,91,-0.1259765625,92.01806640625,0.1259765625C93.0361328125,0.3779296875,93.80029296875,0.9638671875,94.30859375,1.88671875L96.72705078125,5.91259765625L99.1455078125,1.88671875C99.654296875,0.9638671875,100.4189453125,0.3779296875,101.4365234375,0.1259765625C102.4541015625,-0.1259765625,103.4306640625,0,104.36328125,0.50341796875C105.296875,1.0068359375,105.89111328125,1.7607421875,106.14599609375,2.767578125C106.3994140625,3.7734375,106.2724609375,4.73828125,105.7626953125,5.66064453125L103.345703125,9.6865234375L108.181640625,9.6865234375C109.2841796875,9.6865234375,110.19775390625,10.0439453125,110.9208984375,10.7587890625C111.6435546875,11.47265625,112.00390625,12.373046875,112,13.46044921875C111.99609375,14.54736328125,111.634765625,15.44921875,110.916015625,16.16796875C110.1962890625,16.8857421875,109.2841796875,17.24169921875,108.181640625,17.234375L103.345703125,17.234375L105.7626953125,21.51220703125C106.2724609375,22.4345703125,106.3994140625,23.39892578125,106.14599609375,24.40478515625C105.89111328125,25.4111328125,105.296875,26.1669921875,104.36328125,26.66943359375C103.4306640625,27.1728515625,102.4541015625,27.29833984375,101.4365234375,27.04638671875C100.4189453125,26.7958984375,99.654296875,26.20849609375,99.1455078125,25.2861328125Z" style="fill: rgb(255, 255, 255); fill-opacity: 1;"/></g></g></g></svg>