<svg width="43" xmlns="http://www.w3.org/2000/svg" height="58.424" id="screenshot-aff1dc01-b814-802f-8006-fef21de2f650" viewBox="0 0 43 58.424" xmlns:xlink="http://www.w3.org/1999/xlink" fill="none" version="1.1"><style>/* arabic */
@font-face {
  font-family: 'Cairo';
  font-style: normal;
  font-weight: 700;
  font-display: block;
  src: url(http://localhost:6080/internal/gfonts/font/cairo/v31/SLXgc1nY6HkvangtZmpQdkhzfH5lkSs2SgRjCAGMQ1z0hAc5a1biLD-H.woff2) format('woff2');
  unicode-range: U+0600-06FF, U+0750-077F, U+0870-088E, U+0890-0891, U+0897-08E1, U+08E3-08FF, U+200C-200E, U+2010-2011, U+204F, U+2E41, U+FB50-FDFF, U+FE70-FE74, U+FE76-FEFC, U+102E0-102FB, U+10E60-10E7E, U+10EC2-10EC4, U+10EFC-10EFF, U+1EE00-1EE03, U+1EE05-1EE1F, U+1EE21-1EE22, U+1EE24, U+1EE27, U+1EE29-1EE32, U+1EE34-1EE37, U+1EE39, U+1EE3B, U+1EE42, U+1EE47, U+1EE49, U+1EE4B, U+1EE4D-1EE4F, U+1EE51-1EE52, U+1EE54, U+1EE57, U+1EE59, U+1EE5B, U+1EE5D, U+1EE5F, U+1EE61-1EE62, U+1EE64, U+1EE67-1EE6A, U+1EE6C-1EE72, U+1EE74-1EE77, U+1EE79-1EE7C, U+1EE7E, U+1EE80-1EE89, U+1EE8B-1EE9B, U+1EEA1-1EEA3, U+1EEA5-1EEA9, U+1EEAB-1EEBB, U+1EEF0-1EEF1;
}
/* latin-ext */
@font-face {
  font-family: 'Cairo';
  font-style: normal;
  font-weight: 700;
  font-display: block;
  src: url(http://localhost:6080/internal/gfonts/font/cairo/v31/SLXgc1nY6HkvangtZmpQdkhzfH5lkSs2SgRjCAGMQ1z0hAc5a13iLD-H.woff2) format('woff2');
  unicode-range: U+0100-02BA, U+02BD-02C5, U+02C7-02CC, U+02CE-02D7, U+02DD-02FF, U+0304, U+0308, U+0329, U+1D00-1DBF, U+1E00-1E9F, U+1EF2-1EFF, U+2020, U+20A0-20AB, U+20AD-20C0, U+2113, U+2C60-2C7F, U+A720-A7FF;
}
/* latin */
@font-face {
  font-family: 'Cairo';
  font-style: normal;
  font-weight: 700;
  font-display: block;
  src: url(http://localhost:6080/internal/gfonts/font/cairo/v31/SLXgc1nY6HkvangtZmpQdkhzfH5lkSs2SgRjCAGMQ1z0hAc5a1PiLA.woff2) format('woff2');
  unicode-range: U+0000-00FF, U+0131, U+0152-0153, U+02BB-02BC, U+02C6, U+02DA, U+02DC, U+0304, U+0308, U+0329, U+2000-206F, U+20AC, U+2122, U+2191, U+2193, U+2212, U+2215, U+FEFF, U+FFFD;
}
</style><g id="shape-aff1dc01-b814-802f-8006-fef21de2f650" rx="0" ry="0"><g id="shape-aff1dc01-b814-802f-8006-feec851da7d2"><g transform="matrix(1.000000, 0.000000, 0.000000, 1.000000, 0.000000, 0.000000)" class="text-container" x="0" y="38.42447916666697" width="43" height="20" rx="0" ry="0"><defs><pattern patternUnits="objectBoundingBox" width="42.703125" height="24" id="fill-0-render-2-0"><g><rect width="42.703125" height="24" style="fill: rgb(255, 255, 255); fill-opacity: 1;"/></g></pattern></defs><g class="fills" id="fills-aff1dc01-b814-802f-8006-feec851da7d2"><text x="42.703125" y="59.42447916666697" dominant-baseline="ideographic" textLength="42.703125" lengthAdjust="spacingAndGlyphs" style="text-transform: none; font-family: Cairo; letter-spacing: normal; font-style: normal; font-weight: 700; white-space: pre; font-size: 13px; text-decoration: rgb(255, 255, 255); direction: rtl; fill: rgb(255, 255, 255); fill-opacity: 1;">الرسائل</text></g></g></g><g id="shape-aff1dc01-b814-802f-8006-fef1ad456c98" width="16" height="16" rx="0" ry="0" style="fill: rgb(0, 0, 0);"><g id="shape-aff1dc01-b814-802f-8006-fef1ad4ed4a4"><g class="fills" id="fills-aff1dc01-b814-802f-8006-fef1ad4ed4a4"><path d="M37.17667770385742,10.41259765625C36.32340621948242,8.38037109375,35.08219528198242,6.53369140625,33.52238082885742,4.974609375C31.96695899963379,3.41259765625,30.11954689025879,2.17138671875,28.08463478088379,1.32080078125C25.99967384338379,0.44482421875,23.76017189025879,-0.0048828125,21.49820899963379,0L21.42228126525879,0C19.12174415588379,0.01171875,16.89713478088379,0.46728515625,14.801920890808105,1.3623046875C12.784342765808105,2.22216796875,10.954264640808105,3.46630859375,9.413493156433105,5.0244140625C7.868814945220947,6.5791015625,6.641764163970947,8.41943359375,5.800943851470947,10.4423828125C4.928141117095947,12.5458984375,4.486002445220947,14.802734375,4.500406742095947,17.07958984375C4.511637210845947,19.71337890625,5.143229007720947,22.328125,6.322184085845947,24.6650390625L6.322184085845947,30.43310546875C6.322184085845947,31.39697265625,7.105143070220947,32.1787109375,8.067057609558105,32.1787109375L13.839518547058105,32.1787109375C16.19303321838379,33.36328125,18.78995704650879,33.98681640625,21.42569923400879,34L21.50602149963379,34C23.77994728088379,34,25.98185157775879,33.56005859375,28.05777931213379,32.69775390625C30.08292579650879,31.857421875,31.92301368713379,30.6298828125,33.47672653198242,29.0859375C35.04362106323242,27.53369140625,36.27531051635742,25.720703125,37.13859176635742,23.69775390625C38.03214645385742,21.603515625,38.48844528198242,19.375,38.49967575073242,17.07568359375C38.50748825073242,14.7646484375,38.05900192260742,12.5224609375,37.17667770385742,10.41259765625M13.908366203308105,18.8212890625C12.904215812683105,18.8212890625,12.086588859558105,18.00537109375,12.086588859558105,17C12.086588859558105,15.99462890625,12.904215812683105,15.1787109375,13.908366203308105,15.1787109375C14.912028312683105,15.1787109375,15.729411125183105,15.99462890625,15.729411125183105,17C15.729411125183105,18.00537109375,14.916178703308105,18.8212890625,13.908366203308105,18.8212890625M21.49820899963379,18.8212890625C20.49405860900879,18.8212890625,19.67667579650879,18.00537109375,19.67667579650879,17C19.67667579650879,15.99462890625,20.49405860900879,15.1787109375,21.49820899963379,15.1787109375C22.50235939025879,15.1787109375,23.31998634338379,15.99462890625,23.31998634338379,17C23.31998634338379,18.00537109375,22.50235939025879,18.8212890625,21.49820899963379,18.8212890625M29.08829689025879,18.8212890625C28.08463478088379,18.8212890625,27.26700782775879,18.00537109375,27.26700782775879,17C27.26700782775879,15.99462890625,28.08463478088379,15.1787109375,29.08829689025879,15.1787109375C30.09220314025879,15.1787109375,30.90983009338379,15.99462890625,30.90983009338379,17C30.90983009338379,18.00537109375,30.09220314025879,18.8212890625,29.08829689025879,18.8212890625" style="fill: rgb(255, 255, 255); fill-opacity: 1;"/></g></g></g></g></svg>