<svg width="501" xmlns="http://www.w3.org/2000/svg" height="126" id="screenshot-b5f7ee28-226f-805a-8006-f4c8990256e8" viewBox="-27 -27 501 126" xmlns:xlink="http://www.w3.org/1999/xlink" fill="none" version="1.1"><style>/* arabic */
@font-face {
  font-family: 'Cairo';
  font-style: normal;
  font-weight: 400;
  font-display: block;
  src: url(http://localhost:6080/internal/gfonts/font/cairo/v31/SLXgc1nY6HkvangtZmpQdkhzfH5lkSs2SgRjCAGMQ1z0hOA-a1biLD-H.woff2) format('woff2');
  unicode-range: U+0600-06FF, U+0750-077F, U+0870-088E, U+0890-0891, U+0897-08E1, U+08E3-08FF, U+200C-200E, U+2010-2011, U+204F, U+2E41, U+FB50-FDFF, U+FE70-FE74, U+FE76-FEFC, U+102E0-102FB, U+10E60-10E7E, U+10EC2-10EC4, U+10EFC-10EFF, U+1EE00-1EE03, U+1EE05-1EE1F, U+1EE21-1EE22, U+1EE24, U+1EE27, U+1EE29-1EE32, U+1EE34-1EE37, U+1EE39, U+1EE3B, U+1EE42, U+1EE47, U+1EE49, U+1EE4B, U+1EE4D-1EE4F, U+1EE51-1EE52, U+1EE54, U+1EE57, U+1EE59, U+1EE5B, U+1EE5D, U+1EE5F, U+1EE61-1EE62, U+1EE64, U+1EE67-1EE6A, U+1EE6C-1EE72, U+1EE74-1EE77, U+1EE79-1EE7C, U+1EE7E, U+1EE80-1EE89, U+1EE8B-1EE9B, U+1EEA1-1EEA3, U+1EEA5-1EEA9, U+1EEAB-1EEBB, U+1EEF0-1EEF1;
}
/* latin-ext */
@font-face {
  font-family: 'Cairo';
  font-style: normal;
  font-weight: 400;
  font-display: block;
  src: url(http://localhost:6080/internal/gfonts/font/cairo/v31/SLXgc1nY6HkvangtZmpQdkhzfH5lkSs2SgRjCAGMQ1z0hOA-a13iLD-H.woff2) format('woff2');
  unicode-range: U+0100-02BA, U+02BD-02C5, U+02C7-02CC, U+02CE-02D7, U+02DD-02FF, U+0304, U+0308, U+0329, U+1D00-1DBF, U+1E00-1E9F, U+1EF2-1EFF, U+2020, U+20A0-20AB, U+20AD-20C0, U+2113, U+2C60-2C7F, U+A720-A7FF;
}
/* latin */
@font-face {
  font-family: 'Cairo';
  font-style: normal;
  font-weight: 400;
  font-display: block;
  src: url(http://localhost:6080/internal/gfonts/font/cairo/v31/SLXgc1nY6HkvangtZmpQdkhzfH5lkSs2SgRjCAGMQ1z0hOA-a1PiLA.woff2) format('woff2');
  unicode-range: U+0000-00FF, U+0131, U+0152-0153, U+02BB-02BC, U+02C6, U+02DA, U+02DC, U+0304, U+0308, U+0329, U+2000-206F, U+20AC, U+2122, U+2191, U+2193, U+2212, U+2215, U+FEFF, U+FFFD;
}
</style><g id="shape-b5f7ee28-226f-805a-8006-f4c8990256e8" rx="0" ry="0"><g id="shape-b5f7ee28-226f-805a-8006-f4c8990256e9" style="opacity: 1;"><defs><filter id="filter-render-2" x="-0.06206896551724138" y="-0.45" width="1.1517241379310346" height="2.1" filterUnits="objectBoundingBox" color-interpolation-filters="sRGB"><feFlood flood-opacity="0" result="BackgroundImageFix"/><feColorMatrix in="SourceAlpha" type="matrix" values="0 0 0 0 0 0 0 0 0 0 0 0 0 0 0 0 0 0 127 0"/><feOffset dx="4" dy="4"/><feGaussianBlur stdDeviation="2"/><feColorMatrix type="matrix" values="0 0 0 0 0 0 0 0 0 0 0 0 0 0 0 0 0 0 0.2 0"/><feBlend mode="normal" in2="BackgroundImageFix" result="filter_71b04822-b0d5-8031-8006-f0df7e8cfde2"/><feBlend mode="normal" in="SourceGraphic" in2="filter_71b04822-b0d5-8031-8006-f0df7e8cfde2" result="shape"/></filter><filter id="filter-shadow-render-2" x="-0.06206896551724138" y="-0.45" width="1.1517241379310346" height="2.1" filterUnits="objectBoundingBox" color-interpolation-filters="sRGB"><feFlood flood-opacity="0" result="BackgroundImageFix"/><feColorMatrix in="SourceAlpha" type="matrix" values="0 0 0 0 0 0 0 0 0 0 0 0 0 0 0 0 0 0 127 0"/><feOffset dx="4" dy="4"/><feGaussianBlur stdDeviation="2"/><feColorMatrix type="matrix" values="0 0 0 0 0 0 0 0 0 0 0 0 0 0 0 0 0 0 0.2 0"/><feBlend mode="normal" in2="BackgroundImageFix" result="filter_71b04822-b0d5-8031-8006-f0df7e8cfde2"/><feBlend mode="normal" in="SourceGraphic" in2="filter_71b04822-b0d5-8031-8006-f0df7e8cfde2" result="shape"/></filter></defs><g class="fills" id="fills-b5f7ee28-226f-805a-8006-f4c8990256e9"><rect width="435" height="60" x="0" transform="matrix(1.000000, 0.000000, 0.000000, 1.000000, 0.000000, 0.000000)" style="fill: rgb(255, 255, 255); fill-opacity: 1;" ry="30" rx="30" filter="url(#filter-render-2)" y="0"/></g><g id="strokes-690d1a0c-72bc-8041-8006-feeccb8c49f5-b5f7ee28-226f-805a-8006-f4c8990256e9" class="strokes"><g class="inner-stroke-shape" transform="matrix(1.000000, 0.000000, 0.000000, 1.000000, 0.000000, 0.000000)"><defs><clipPath id="inner-stroke-render-2-b5f7ee28-226f-805a-8006-f4c8990256e9-0"><use href="#stroke-shape-render-2-b5f7ee28-226f-805a-8006-f4c8990256e9-0"/></clipPath><rect rx="30" ry="30" x="0" y="0" width="435" height="60" id="stroke-shape-render-2-b5f7ee28-226f-805a-8006-f4c8990256e9-0" style="fill: none; stroke-width: 3; stroke: rgb(183, 183, 183); stroke-opacity: 1;"/></defs><use href="#stroke-shape-render-2-b5f7ee28-226f-805a-8006-f4c8990256e9-0" clip-path="url('#inner-stroke-render-2-b5f7ee28-226f-805a-8006-f4c8990256e9-0')"/></g></g></g><g id="shape-b5f7ee28-226f-805a-8006-f4c8990256ea"><defs><linearGradient id="fill-color-gradient-render-3-0" x1="0.5" y1="1" x2="0.4999999999999999" y2="3.0616169978683836e-17" gradientTransform=""><stop offset="0" stop-color="#482100" stop-opacity="1"/><stop offset="1" stop-color="#aa652b" stop-opacity="1"/></linearGradient><pattern patternUnits="userSpaceOnUse" x="7" y="6" width="48" height="48" id="fill-0-render-3"><g><rect width="48" height="48" style="fill: url(&quot;#fill-color-gradient-render-3-0&quot;);"/></g></pattern></defs><g class="fills" id="fills-b5f7ee28-226f-805a-8006-f4c8990256ea"><ellipse cx="31" cy="30" rx="24" ry="24" transform="matrix(1.000000, 0.000000, 0.000000, 1.000000, 0.000000, 0.000000)" fill="url(#fill-0-render-3)"/></g></g><g id="shape-b5f7ee28-226f-805a-8006-f4c8990256eb"><g transform="matrix(1.000000, 0.000000, 0.000000, 1.000000, 0.000000, 0.000000)" class="text-container" x="131" y="19" width="287" height="22" rx="0" ry="0"><defs><pattern patternUnits="objectBoundingBox" width="187.40625" height="33" id="fill-0-render-4-0"><g><rect width="187.40625" height="33" style="fill: rgb(0, 0, 0); fill-opacity: 0.5;"/></g></pattern></defs><g class="fills" id="fills-b5f7ee28-226f-805a-8006-f4c8990256eb"><text x="418" y="46" dominant-baseline="ideographic" textLength="187.40625" lengthAdjust="spacingAndGlyphs" style="text-transform: none; font-family: Cairo; letter-spacing: normal; font-style: normal; font-weight: 400; white-space: pre; font-size: 18px; text-decoration: rgba(0, 0, 0, 0.5); direction: rtl; fill: rgb(0, 0, 0); fill-opacity: 0.5;">ابحث عن رسالة، زبون، إلخ...</text></g></g></g><g id="shape-b5f7ee28-226f-805a-8006-f4c8990256ec" width="24" height="24" rx="0" ry="0" style="fill: rgb(0, 0, 0);"><g id="shape-b5f7ee28-226f-805a-8006-f4c8990256ed" rx="0" ry="0" style="fill: rgb(0, 0, 0);"><g id="shape-b5f7ee28-226f-805a-8006-f4c8990256ee"><g class="fills" id="fills-b5f7ee28-226f-805a-8006-f4c8990256ee"><path d="M64.85888671875,44.7607421875L64.84423828125,44.76318359375L64.75146484375,44.81005859375L64.725341796875,44.81494140625L64.70703125,44.81005859375L64.6142578125,44.76318359375C64.60009765625,44.75927734375,64.58984375,44.76123046875,64.5830078125,44.77001953125L64.577392578125,44.78369140625L64.555419921875,45.35302734375L64.56201171875,45.37890625L64.57470703125,45.396484375L64.7109375,45.49462890625L64.73095703125,45.5L64.74658203125,45.49462890625L64.88232421875,45.396484375L64.898193359375,45.375L64.9033203125,45.35302734375L64.881103515625,44.78515625C64.877685546875,44.77001953125,64.8701171875,44.76220703125,64.85888671875,44.7607421875M65.20556640625,44.6103515625L65.1884765625,44.61328125L64.9462890625,44.7373046875L64.93310546875,44.75048828125L64.92919921875,44.76513671875L64.953125,45.33642578125L64.95947265625,45.35302734375L64.969970703125,45.36181640625L65.23291015625,45.48583984375C65.24951171875,45.48974609375,65.26220703125,45.48681640625,65.270751953125,45.47509765625L65.2763671875,45.45556640625L65.231689453125,44.64013671875C65.2275390625,44.62353515625,65.218505859375,44.61376953125,65.20556640625,44.6103515625M64.27001953125,44.61328125C64.2578125,44.60595703125,64.2421875,44.609375,64.23486328125,44.62060546875L64.22705078125,44.64013671875L64.18212890625,45.45556640625C64.18310546875,45.47265625,64.190673828125,45.48291015625,64.20458984375,45.48828125L64.22412109375,45.48583984375L64.4873046875,45.36181640625L64.50048828125,45.3515625L64.505615234375,45.33642578125L64.52783203125,44.76513671875L64.52392578125,44.7490234375L64.5107421875,44.7353515625Z" fill-rule="evenodd" fill="none" style="fill: none;"/></g></g><g id="shape-b5f7ee28-226f-805a-8006-f4c8990256ef"><g class="fills" id="fills-b5f7ee28-226f-805a-8006-f4c8990256ef"><path d="M30.12060546875,16.5C25.24951171875,16.5009765625,20.9453125,19.72216796875,19.5009765625,24.44921875C18.056640625,29.17626953125,19.8076171875,34.30810546875,23.822265625,37.11279296875C27.836181640625,39.91650390625,33.178955078125,39.73876953125,37.0048828125,36.67529296875L41.78271484375,41.53076171875C42.296142578125,42.0341796875,43.1123046875,42.02685546875,43.616943359375,41.5146484375C44.12158203125,41.001953125,44.128662109375,40.171875,43.6328125,39.650390625L38.85498046875,34.7958984375C41.4921875,31.3955078125,41.986328125,26.763671875,40.126708984375,22.8681640625C38.26708984375,18.97265625,34.38134765625,16.5,30.12060546875,16.5M21.616455078125,27.7998046875C21.616455078125,23.02783203125,25.423828125,19.15869140625,30.12060546875,19.15869140625C34.817138671875,19.15869140625,38.62451171875,23.02783203125,38.62451171875,27.7998046875C38.62451171875,32.572265625,34.817138671875,36.44140625,30.12060546875,36.44140625C25.423828125,36.44140625,21.616455078125,32.572265625,21.616455078125,27.7998046875" fill-rule="evenodd" style="fill: rgb(255, 255, 255); fill-opacity: 1;"/></g></g></g></g></g></svg>