<svg width="137" xmlns="http://www.w3.org/2000/svg" height="146.424" id="screenshot-aff1dc01-b814-802f-8006-fee869a7a2c9" viewBox="-32 -32 137 146.424" xmlns:xlink="http://www.w3.org/1999/xlink" fill="none" version="1.1"><style>/* arabic */
@font-face {
  font-family: 'Cairo';
  font-style: normal;
  font-weight: 700;
  font-display: block;
  src: url(http://localhost:6080/internal/gfonts/font/cairo/v31/SLXgc1nY6HkvangtZmpQdkhzfH5lkSs2SgRjCAGMQ1z0hAc5a1biLD-H.woff2) format('woff2');
  unicode-range: U+0600-06FF, U+0750-077F, U+0870-088E, U+0890-0891, U+0897-08E1, U+08E3-08FF, U+200C-200E, U+2010-2011, U+204F, U+2E41, U+FB50-FDFF, U+FE70-FE74, U+FE76-FEFC, U+102E0-102FB, U+10E60-10E7E, U+10EC2-10EC4, U+10EFC-10EFF, U+1EE00-1EE03, U+1EE05-1EE1F, U+1EE21-1EE22, U+1EE24, U+1EE27, U+1EE29-1EE32, U+1EE34-1EE37, U+1EE39, U+1EE3B, U+1EE42, U+1EE47, U+1EE49, U+1EE4B, U+1EE4D-1EE4F, U+1EE51-1EE52, U+1EE54, U+1EE57, U+1EE59, U+1EE5B, U+1EE5D, U+1EE5F, U+1EE61-1EE62, U+1EE64, U+1EE67-1EE6A, U+1EE6C-1EE72, U+1EE74-1EE77, U+1EE79-1EE7C, U+1EE7E, U+1EE80-1EE89, U+1EE8B-1EE9B, U+1EEA1-1EEA3, U+1EEA5-1EEA9, U+1EEAB-1EEBB, U+1EEF0-1EEF1;
}
/* latin-ext */
@font-face {
  font-family: 'Cairo';
  font-style: normal;
  font-weight: 700;
  font-display: block;
  src: url(http://localhost:6080/internal/gfonts/font/cairo/v31/SLXgc1nY6HkvangtZmpQdkhzfH5lkSs2SgRjCAGMQ1z0hAc5a13iLD-H.woff2) format('woff2');
  unicode-range: U+0100-02BA, U+02BD-02C5, U+02C7-02CC, U+02CE-02D7, U+02DD-02FF, U+0304, U+0308, U+0329, U+1D00-1DBF, U+1E00-1E9F, U+1EF2-1EFF, U+2020, U+20A0-20AB, U+20AD-20C0, U+2113, U+2C60-2C7F, U+A720-A7FF;
}
/* latin */
@font-face {
  font-family: 'Cairo';
  font-style: normal;
  font-weight: 700;
  font-display: block;
  src: url(http://localhost:6080/internal/gfonts/font/cairo/v31/SLXgc1nY6HkvangtZmpQdkhzfH5lkSs2SgRjCAGMQ1z0hAc5a1PiLA.woff2) format('woff2');
  unicode-range: U+0000-00FF, U+0131, U+0152-0153, U+02BB-02BC, U+02C6, U+02DA, U+02DC, U+0304, U+0308, U+0329, U+2000-206F, U+20AC, U+2122, U+2191, U+2193, U+2212, U+2215, U+FEFF, U+FFFD;
}
</style><g id="shape-aff1dc01-b814-802f-8006-fee869a7a2c9" filter="url(#filter-render-1)" rx="0" ry="0"><defs><filter id="filter-render-1" x="-0.5510204081632653" y="-0.46213505683084943" width="2.3469387755102042" height="2.1296634722531875" filterUnits="objectBoundingBox" color-interpolation-filters="sRGB"><feFlood flood-opacity="0" result="BackgroundImageFix"/><feColorMatrix in="SourceAlpha" type="matrix" values="0 0 0 0 0 0 0 0 0 0 0 0 0 0 0 0 0 0 127 0"/><feOffset dx="4" dy="4"/><feGaussianBlur stdDeviation="2"/><feColorMatrix type="matrix" values="0 0 0 0 0 0 0 0 0 0 0 0 0 0 0 0 0 0 0.2 0"/><feBlend mode="normal" in2="BackgroundImageFix" result="filter_b5f7ee28-226f-805a-8006-f4bae2bef138"/><feBlend mode="normal" in="SourceGraphic" in2="filter_b5f7ee28-226f-805a-8006-f4bae2bef138" result="shape"/></filter><filter id="filter-shadow-render-1" x="-0.5510204081632653" y="-0.46213505683084943" width="2.3469387755102042" height="2.1296634722531875" filterUnits="objectBoundingBox" color-interpolation-filters="sRGB"><feFlood flood-opacity="0" result="BackgroundImageFix"/><feColorMatrix in="SourceAlpha" type="matrix" values="0 0 0 0 0 0 0 0 0 0 0 0 0 0 0 0 0 0 127 0"/><feOffset dx="4" dy="4"/><feGaussianBlur stdDeviation="2"/><feColorMatrix type="matrix" values="0 0 0 0 0 0 0 0 0 0 0 0 0 0 0 0 0 0 0.2 0"/><feBlend mode="normal" in2="BackgroundImageFix" result="filter_b5f7ee28-226f-805a-8006-f4bae2bef138"/><feBlend mode="normal" in="SourceGraphic" in2="filter_b5f7ee28-226f-805a-8006-f4bae2bef138" result="shape"/></filter></defs><g id="shape-aff1dc01-b814-802f-8006-fee869a7a2ca" width="24" height="24" rx="0" ry="0" style="fill: rgb(0, 0, 0);"><g id="shape-aff1dc01-b814-802f-8006-fee869a7a2cc"><g class="fills" id="fills-aff1dc01-b814-802f-8006-fee869a7a2cc"><path d="M7.500081539154053,30.11376953125L7.500081539154053,12.62841796875C7.500081539154053,12.0126953125,7.650960445404053,11.43017578125,7.952474117279053,10.8798828125C8.254231452941895,10.330078125,8.670491218566895,9.87646484375,9.200276374816895,9.51953125L21.95027732849121,0.77685546875C22.69344139099121,0.2587890625,23.54402732849121,-9.094947017729282e-13,24.50008201599121,-9.094947017729282e-13C25.45613670349121,-9.094947017729282e-13,26.30647850036621,0.2587890625,27.04988670349121,0.77685546875L39.79988479614258,9.51953125C40.33113479614258,9.87646484375,40.74763870239258,10.330078125,41.04964065551758,10.8798828125C41.35115432739258,11.43017578125,41.50154495239258,12.0126953125,41.49983596801758,12.62841796875L41.49983596801758,30.11376953125C41.49983596801758,31.18212890625,41.08333206176758,32.09765625,40.25081253051758,32.859375C39.41756057739258,33.62158203125,38.41731643676758,34.0009765625,37.25008010864258,34L30.87508201599121,34C30.27254295349121,34,29.76839256286621,33.81298828125,29.36214256286621,33.43994140625C28.95540428161621,33.0673828125,28.75154685974121,32.60595703125,28.74983787536621,32.05712890625L28.74983787536621,22.3427734375C28.74983787536621,21.79248046875,28.54598045349121,21.33154296875,28.13777732849121,20.95947265625C27.73006248474121,20.587890625,27.22566795349121,20.40087890625,26.62508201599121,20.39990234375L22.37483787536621,20.39990234375C21.77254295349121,20.39990234375,21.26839256286621,20.58642578125,20.86214256286621,20.95947265625C20.45540428161621,21.33251953125,20.25154685974121,21.79345703125,20.25008201599121,22.3427734375L20.25008201599121,32.05712890625C20.25008201599121,32.607421875,20.04622459411621,33.0693359375,19.63802146911621,33.4423828125C19.23006248474121,33.81494140625,18.72566795349121,34.0009765625,18.12508201599121,34L11.750081062316895,34C10.581135749816895,34,9.580891609191895,33.61962890625,8.749348640441895,32.859375C7.918050289154053,32.0986328125,7.501546382904053,31.18408203125,7.500081539154053,30.11376953125" style="fill: rgb(177, 178, 181); fill-opacity: 0;"/></g><g id="strokes-f0cf4d71-eb3e-80be-8006-fef0711a455a-aff1dc01-b814-802f-8006-fee869a7a2cc" class="strokes"><g class="inner-stroke-shape"><defs><clipPath id="inner-stroke-render-3-aff1dc01-b814-802f-8006-fee869a7a2cc-0"><use href="#stroke-shape-render-3-aff1dc01-b814-802f-8006-fee869a7a2cc-0"/></clipPath><path d="M7.500081539154053,30.11376953125L7.500081539154053,12.62841796875C7.500081539154053,12.0126953125,7.650960445404053,11.43017578125,7.952474117279053,10.8798828125C8.254231452941895,10.330078125,8.670491218566895,9.87646484375,9.200276374816895,9.51953125L21.95027732849121,0.77685546875C22.69344139099121,0.2587890625,23.54402732849121,-9.094947017729282e-13,24.50008201599121,-9.094947017729282e-13C25.45613670349121,-9.094947017729282e-13,26.30647850036621,0.2587890625,27.04988670349121,0.77685546875L39.79988479614258,9.51953125C40.33113479614258,9.87646484375,40.74763870239258,10.330078125,41.04964065551758,10.8798828125C41.35115432739258,11.43017578125,41.50154495239258,12.0126953125,41.49983596801758,12.62841796875L41.49983596801758,30.11376953125C41.49983596801758,31.18212890625,41.08333206176758,32.09765625,40.25081253051758,32.859375C39.41756057739258,33.62158203125,38.41731643676758,34.0009765625,37.25008010864258,34L30.87508201599121,34C30.27254295349121,34,29.76839256286621,33.81298828125,29.36214256286621,33.43994140625C28.95540428161621,33.0673828125,28.75154685974121,32.60595703125,28.74983787536621,32.05712890625L28.74983787536621,22.3427734375C28.74983787536621,21.79248046875,28.54598045349121,21.33154296875,28.13777732849121,20.95947265625C27.73006248474121,20.587890625,27.22566795349121,20.40087890625,26.62508201599121,20.39990234375L22.37483787536621,20.39990234375C21.77254295349121,20.39990234375,21.26839256286621,20.58642578125,20.86214256286621,20.95947265625C20.45540428161621,21.33251953125,20.25154685974121,21.79345703125,20.25008201599121,22.3427734375L20.25008201599121,32.05712890625C20.25008201599121,32.607421875,20.04622459411621,33.0693359375,19.63802146911621,33.4423828125C19.23006248474121,33.81494140625,18.72566795349121,34.0009765625,18.12508201599121,34L11.750081062316895,34C10.581135749816895,34,9.580891609191895,33.61962890625,8.749348640441895,32.859375C7.918050289154053,32.0986328125,7.501546382904053,31.18408203125,7.500081539154053,30.11376953125" id="stroke-shape-render-3-aff1dc01-b814-802f-8006-fee869a7a2cc-0" style="fill: none; stroke-width: 6; stroke: rgb(255, 255, 255); stroke-opacity: 1;"/></defs><use href="#stroke-shape-render-3-aff1dc01-b814-802f-8006-fee869a7a2cc-0" clip-path="url('#inner-stroke-render-3-aff1dc01-b814-802f-8006-fee869a7a2cc-0')"/></g></g></g></g><g id="shape-aff1dc01-b814-802f-8006-fee869a7a2cb"><g transform="matrix(1.000000, 0.000000, 0.000000, 1.000000, 0.000000, 0.000000)" class="text-container" x="0" y="38.42447916666606" width="49" height="20" rx="0" ry="0"><defs><pattern patternUnits="objectBoundingBox" width="48.125" height="24" id="fill-0-render-4-0"><g><rect width="48.125" height="24" style="fill: rgb(255, 255, 255); fill-opacity: 1;"/></g></pattern></defs><g class="fills" id="fills-aff1dc01-b814-802f-8006-fee869a7a2cb"><text x="48.125" y="59.42447916666606" dominant-baseline="ideographic" textLength="48.125" lengthAdjust="spacingAndGlyphs" style="text-transform: none; font-family: Cairo; letter-spacing: normal; font-style: normal; font-weight: 700; white-space: pre; font-size: 13px; text-decoration: rgb(255, 255, 255); direction: rtl; fill: rgb(255, 255, 255); fill-opacity: 1;">الرئيسية</text></g></g></g></g></svg>